{
.appVersion = "1349";
classes = (
{
automatic = 1;

glyphs = (
{
color = 4;
glyphname = A;
layers = (
{
anchors = (
{
name = bottom;
position = "{491, 0}";
},
{
name = ogonek;
position = "{958, 0}";
},
{
name = top;
position = "{508, 990}";
}
);
layerId = "8D9E6227-A940-4CC2-85D6-810E74B12C63";
paths = (
{
closed = 1;
nodes = (
"534 999 OFFCURVE",
"470 998 OFFCURVE",
"423 991 CURVE",
"457 927 LINE",
"737 75 LINE",
"750 103 LINE",
"704 94 OFFCURVE",
"661 81 OFFCURVE",
"631 68 CURVE",
"626 0 LINE",
"1000 0 LINE",
"1005 66 LINE",
"874 94 LINE",
"918 65 LINE",
"589 996 LINE"
);
},
{
closed = 1;
nodes = (
"423 991 LINE",
"96 65 LINE",
"141 102 LINE",
"97 94 OFFCURVE",
"54 81 OFFCURVE",
"21 64 CURVE",
"16 0 LINE",
"331 0 LINE",
"336 66 LINE",
"214 95 LINE",
"221 65 LINE",
"529 990 LINE"
);
},
{
closed = 1;
nodes = (
"738 281 LINE",
"704 377 LINE",
"279 377 LINE",
"246 281 LINE"
);
}
);
width = 1014;
},
{
anchors = (
{
name = bottom;
position = "{491, 0}";
},
{
name = ogonek;
position = "{966, 0}";
},
{
name = top;
position = "{508, 990}";
}
);
layerId = "106916A4-8C74-485A-AD82-F5ABB18EF495";
paths = (
{
closed = 1;
nodes = (
"541 1000 OFFCURVE",
"453 998 OFFCURVE",
"383 991 CURVE",
"423 928 LINE",
"691 99 LINE",
"711 126 LINE",
"665 117 OFFCURVE",
"625 105 OFFCURVE",
"597 92 CURVE",
"590 0 LINE",
"1008 0 LINE",
"1015 90 LINE",
"888 114 LINE",
"946 89 LINE",
"629 996 LINE"
);
},
{
closed = 1;
nodes = (
"383 991 LINE",
"68 89 LINE",
"131 126 LINE",
"81 115 OFFCURVE",
"38 102 OFFCURVE",
"13 88 CURVE",
"6 0 LINE",
"324 0 LINE",
"331 90 LINE",
"203 117 LINE",
"226 89 LINE",
"520 990 LINE"
);
},
{
closed = 1;
nodes = (
"758 265 LINE",
"724 389 LINE",
"243 389 LINE",
"210 265 LINE"
);
}
);
width = 1014;
}
);
leftKerningGroup = A;
rightKerningGroup = A;
unicode = 0041;
},
{
color = 4;
glyphname = AE;
layers = (
{
anchors = (
{
name = top;
position = "{768, 990}";
}
);
layerId = "8D9E6227-A940-4CC2-85D6-810E74B12C63";
paths = (
{
closed = 1;
nodes = (
"321 0 LINE",
"326 66 LINE",
"204 95 LINE",
"203 61 LINE",
"709 990 LINE",
"593 990 LINE",
"69 64 LINE",
"121 102 LINE",
"77 94 OFFCURVE",
"34 81 OFFCURVE",
"1 64 CURVE",
"-4 0 LINE"
);
},
{
closed = 1;
nodes = (
"939 0 LINE",
"944 66 LINE",
"811 95 LINE",
"828 28 LINE",
"828 168 LINE",
"662 168 LINE",
"662 28 LINE",
"682 103 LINE",
"635 92 OFFCURVE",
"589 78 OFFCURVE",
"555 64 CURVE",
"550 0 LINE"
);
},
{
closed = 1;
nodes = (
"741 300 LINE",
"741 398 LINE",
"299 398 LINE",
"256 300 LINE"
);
},
{
closed = 1;
nodes = (
"1279 0 LINE",
"1255 100 LINE",
"672 100 LINE",
"672 0 LINE"
);
},
{
closed = 1;
nodes = (
"828 15 LINE",
"828 976 LINE",
"662 976 LINE",
"662 15 LINE"
);
},
{
closed = 1;
nodes = (
"1307 99 OFFCURVE",
"1322 215 OFFCURVE",
"1320 285 CURVE",
"1243 285 LINE",
"1120 53 LINE",
"1279 0 LINE"
);
},
{
closed = 1;
nodes = (
"1130 455 LINE",
"1138 561 LINE",
"731 561 LINE",
"731 455 LINE"
);
},
{
closed = 1;
nodes = (
"640 990 LINE",
"409 990 LINE",
"404 924 LINE",
"560 895 LINE"
);
},
{
closed = 1;
nodes = (
"1249 890 LINE",
"1268 990 LINE",
"662 990 LINE",
"592 893 LINE",
"680 890 LINE"
);
},
{
closed = 1;
nodes = (
"1286 723 LINE",
"1292 804 OFFCURVE",
"1286 900 OFFCURVE",
"1268 990 CURVE",
"1117 933 LINE",
"1207 723 LINE"
);
}
);
width = 1372;
},
{
anchors = (
{
name = top;
position = "{789, 990}";
}
);
layerId = "106916A4-8C74-485A-AD82-F5ABB18EF495";
paths = (
{
closed = 1;
nodes = (
"320 0 LINE",
"327 90 LINE",
"199 117 LINE",
"215 85 LINE",
"702 990 LINE",
"550 990 LINE",
"42 87 LINE",
"111 126 LINE",
"61 115 OFFCURVE",
"18 102 OFFCURVE",
"-7 88 CURVE",
"-14 0 LINE"
);
},
{
closed = 1;
nodes = (
"965 0 LINE",
"972 90 LINE",
"839 119 LINE",
"874 25 LINE",
"874 182 LINE",
"636 182 LINE",
"636 25 LINE",
"674 127 LINE",
"627 116 OFFCURVE",
"581 102 OFFCURVE",
"549 88 CURVE",
"542 0 LINE"
);
},
{
closed = 1;
nodes = (
"737 284 LINE",
"737 410 LINE",
"293 410 LINE",
"250 284 LINE"
);
},
{
closed = 1;
nodes = (
"1305 0 LINE",
"1281 130 LINE",
"761 130 LINE",
"761 0 LINE"
);
},
{
closed = 1;
nodes = (
"874 15 LINE",
"874 976 LINE",
"636 976 LINE",
"636 15 LINE"
);
},
{
closed = 1;
nodes = (
"1337 111 OFFCURVE",
"1353 224 OFFCURVE",
"1350 315 CURVE",
"1243 315 LINE",
"1110 83 LINE",
"1305 0 LINE"
);
},
{
closed = 1;
nodes = (
"1157 441 LINE",
"1167 575 LINE",
"745 575 LINE",
"745 441 LINE"
);
},
{
closed = 1;
nodes = (
"586 990 LINE",
"365 990 LINE",
"358 900 LINE",
"521 873 LINE"
);
},
{
closed = 1;
nodes = (
"1275 860 LINE",
"1294 990 LINE",
"605 990 LINE",
"560 864 LINE",
"678 860 LINE"
);
},
{
closed = 1;
nodes = (
"1316 693 LINE",
"1322 788 OFFCURVE",
"1315 894 OFFCURVE",
"1294 990 CURVE",
"1107 903 LINE",
"1207 693 LINE"
);
}
);
width = 1392;
}
);
leftKerningGroup = AE;
leftMetricsKey = "=A-20";
rightKerningGroup = E;
rightMetricsKey = E;
unicode = 00C6;
},
{
color = 4;
glyphname = B;
layers = (
{
components = (
{
name = _serif.cap;
transform = "{1, 0, 0, 1, 1, 0}";
},
{
name = _serif.cap;
transform = "{-1, 0, 0, -1, 507, 990}";
}
);
layerId = "8D9E6227-A940-4CC2-85D6-810E74B12C63";
paths = (
{
closed = 1;
nodes = (
"458 0 LINE SMOOTH",
"718 0 OFFCURVE",
"884 115 OFFCURVE",
"884 296 CURVE SMOOTH",
"884 461 OFFCURVE",
"745 541 OFFCURVE",
"457 541 CURVE SMOOTH",
"251 541 LINE",
"251 459 LINE",
"449 459 LINE SMOOTH",
"618 459 OFFCURVE",
"700 399 OFFCURVE",
"700 274 CURVE SMOOTH",
"700 157 OFFCURVE",
"628 100 OFFCURVE",
"478 100 CURVE SMOOTH",
"251 100 LINE",
"241 0 LINE"
);
},
{
closed = 1;
nodes = (
"338 15 LINE",
"338 976 LINE",
"170 976 LINE",
"170 15 LINE"
);
},
{
closed = 1;
nodes = (
"452 490 LINE SMOOTH",
"694 490 OFFCURVE",
"828 581 OFFCURVE",
"828 745 CURVE SMOOTH",
"828 902 OFFCURVE",
"705 990 OFFCURVE",
"484 990 CURVE SMOOTH",
"236 990 LINE",
"236 890 LINE",
"475 890 LINE SMOOTH",
"592 890 OFFCURVE",
"648 836 OFFCURVE",
"648 723 CURVE SMOOTH",
"648 606 OFFCURVE",
"589 549 OFFCURVE",
"467 549 CURVE SMOOTH",
"241 549 LINE",
"222 490 LINE"
);
}
);
width = 948;
},
{
components = (
{
name = _serif.cap;
transform = "{1, 0, 0, 1, 9, 0}";
},
{
name = _serif.cap;
transform = "{-1, 0, 0, -1, 515, 990}";
}
);
layerId = "106916A4-8C74-485A-AD82-F5ABB18EF495";
paths = (
{
closed = 1;
nodes = (
"468 0 LINE SMOOTH",
"755 0 OFFCURVE",
"936 117 OFFCURVE",
"936 301 CURVE SMOOTH",
"936 470 OFFCURVE",
"785 551 OFFCURVE",
"474 551 CURVE SMOOTH",
"265 551 LINE",
"265 447 LINE",
"460 447 LINE SMOOTH",
"604 447 OFFCURVE",
"674 393 OFFCURVE",
"674 280 CURVE SMOOTH",
"674 176 OFFCURVE",
"615 126 OFFCURVE",
"492 126 CURVE SMOOTH",
"265 126 LINE",
"255 0 LINE"
);
},
{
closed = 1;
nodes = (
"382 15 LINE",
"382 976 LINE",
"142 976 LINE",
"142 15 LINE"
);
},
{
closed = 1;
nodes = (
"463 490 LINE SMOOTH",
"731 490 OFFCURVE",
"880 581 OFFCURVE",
"880 746 CURVE SMOOTH",
"880 903 OFFCURVE",
"745 990 OFFCURVE",
"501 990 CURVE SMOOTH",
"250 990 LINE",
"250 864 LINE",
"489 864 LINE SMOOTH",
"579 864 OFFCURVE",
"622 815 OFFCURVE",
"622 714 CURVE SMOOTH",
"622 611 OFFCURVE",
"577 561 OFFCURVE",
"484 561 CURVE SMOOTH",
"255 561 LINE",
"236 490 LINE"
);
}
);
width = 974;
}
);
leftKerningGroup = H;
leftMetricsKey = H;
rightKerningGroup = O;
rightMetricsKey = "=O-4";
unicode = 0042;
},
{
color = 4;
glyphname = C;
layers = (
{
anchors = (
{
name = bottom;
position = "{554, 0}";
},
{
name = top;
position = "{516, 990}";
}
);
layerId = "8D9E6227-A940-4CC2-85D6-810E74B12C63";
paths = (
{
closed = 1;
nodes = (
"689 -17 OFFCURVE",
"793 6 OFFCURVE",
"861 45 CURVE",
"883 134 OFFCURVE",
"894 224 OFFCURVE",
"893 297 CURVE",
"816 297 LINE",
"693 65 LINE",
"826 77 LINE",
"832 135 LINE",
"762 97 OFFCURVE",
"688 79 OFFCURVE",
"604 79 CURVE SMOOTH",
"372 79 OFFCURVE",
"260 219 OFFCURVE",
"260 510 CURVE SMOOTH",
"260 780 OFFCURVE",
"357 911 OFFCURVE",
"558 911 CURVE SMOOTH",
"637 911 OFFCURVE",
"718 891 OFFCURVE",
"786 856 CURVE",
"697 933 LINE",
"793 709 LINE",
"866 709 LINE",
"871 787 OFFCURVE",
"867 871 OFFCURVE",
"856 946 CURVE",
"790 983 OFFCURVE",
"681 1007 OFFCURVE",
"576 1007 CURVE SMOOTH",
"265 1007 OFFCURVE",
"68 800 OFFCURVE",
"68 474 CURVE SMOOTH",
"68 158 OFFCURVE",
"253 -17 OFFCURVE",
"586 -17 CURVE SMOOTH"
);
}
);
width = 959;
},
{
anchors = (
{
name = bottom;
position = "{566, 0}";
},
{
name = top;
position = "{518, 990}";
}
);
layerId = "106916A4-8C74-485A-AD82-F5ABB18EF495";
paths = (
{
closed = 1;
nodes = (
"715 -17 OFFCURVE",
"833 9 OFFCURVE",
"901 51 CURVE",
"924 144 OFFCURVE",
"936 245 OFFCURVE",
"935 333 CURVE",
"828 333 LINE",
"695 101 LINE",
"838 77 LINE",
"843 165 LINE",
"773 127 OFFCURVE",
"699 109 OFFCURVE",
"615 109 CURVE SMOOTH",
"412 109 OFFCURVE",
"314 240 OFFCURVE",
"314 510 CURVE SMOOTH",
"314 760 OFFCURVE",
"398 881 OFFCURVE",
"571 881 CURVE SMOOTH",
"650 881 OFFCURVE",
"731 861 OFFCURVE",
"799 826 CURVE",
"699 897 LINE",
"805 673 LINE",
"908 673 LINE",
"913 756 OFFCURVE",
"909 851 OFFCURVE",
"896 940 CURVE",
"826 981 OFFCURVE",
"706 1007 OFFCURVE",
"588 1007 CURVE SMOOTH",
"254 1007 OFFCURVE",
"42 800 OFFCURVE",
"42 474 CURVE SMOOTH",
"42 158 OFFCURVE",
"241 -17 OFFCURVE",
"598 -17 CURVE SMOOTH"
);
}
);
width = 975;
}
);
leftKerningGroup = O;
leftMetricsKey = O;
rightKerningGroup = C;
rightMetricsKey = "=O-2";
unicode = 0043;
},
{
color = 4;
glyphname = D;
layers = (
{
anchors = (
{
name = bar;
position = "{310, 507}";
},
{
name = bottom;
position = "{500, 0}";
},
{
name = top;
position = "{490, 990}";
}
);
components = (
{
name = _serif.cap;
transform = "{1, 0, 0, 1, 1, 0}";
},
{
name = _serif.cap;
transform = "{-1, 0, 0, -1, 507, 990}";
}
);
layerId = "8D9E6227-A940-4CC2-85D6-810E74B12C63";
paths = (
{
closed = 1;
nodes = (
"478 0 LINE SMOOTH",
"781 0 OFFCURVE",
"974 199 OFFCURVE",
"974 512 CURVE SMOOTH",
"974 819 OFFCURVE",
"788 990 OFFCURVE",
"454 990 CURVE SMOOTH",
"256 990 LINE",
"256 890 LINE",
"445 890 LINE SMOOTH",
"672 890 OFFCURVE",
"782 762 OFFCURVE",
"782 496 CURVE SMOOTH",
"782 241 OFFCURVE",
"681 100 OFFCURVE",
"498 100 CURVE SMOOTH",
"256 100 LINE",
"256 0 LINE"
);
},
{
closed = 1;
nodes = (
"338 15 LINE",
"338 976 LINE",
"170 976 LINE",
"170 15 LINE"
);
}
);
width = 1038;
},
{
anchors = (
{
name = bar;
position = "{307, 507}";
},
{
name = bottom;
position = "{514, 0}";
},
{
name = top;
position = "{504, 990}";
}
);
components = (
{
name = _serif.cap;
transform = "{1, 0, 0, 1, 9, 0}";
},
{
name = _serif.cap;
transform = "{-1, 0, 0, -1, 515, 990}";
}
);
layerId = "106916A4-8C74-485A-AD82-F5ABB18EF495";
paths = (
{
closed = 1;
nodes = (
"492 0 LINE SMOOTH",
"819 0 OFFCURVE",
"1026 199 OFFCURVE",
"1026 512 CURVE SMOOTH",
"1026 819 OFFCURVE",
"827 990 OFFCURVE",
"468 990 CURVE SMOOTH",
"270 990 LINE",
"270 860 LINE",
"459 860 LINE SMOOTH",
"658 860 OFFCURVE",
"754 741 OFFCURVE",
"754 494 CURVE SMOOTH",
"754 260 OFFCURVE",
"668 130 OFFCURVE",
"512 130 CURVE SMOOTH",
"270 130 LINE",
"270 0 LINE"
);
},
{
closed = 1;
nodes = (
"382 15 LINE",
"382 976 LINE",
"142 976 LINE",
"142 15 LINE"
);
}
);
width = 1064;
}
);
leftKerningGroup = H;
leftMetricsKey = H;
rightKerningGroup = O;
rightMetricsKey = "=O-4";
unicode = 0044;
},
{
color = 4;
glyphname = E;
layers = (
{
anchors = (
{
name = bottom;
position = "{500, 0}";
},
{
name = ogonek;
position = "{829, 0}";
},
{
name = top;
position = "{474, 990}";
}
);
components = (
{
name = _serif.cap;
transform = "{1, 0, 0, 1, 1, 0}";
},
{
name = _serif.cap;
transform = "{-1, 0, 0, -1, 507, 990}";
}
);
layerId = "8D9E6227-A940-4CC2-85D6-810E74B12C63";
paths = (
{
closed = 1;
nodes = (
"338 15 LINE",
"338 976 LINE",
"170 976 LINE",
"170 15 LINE"
);
},
{
closed = 1;
nodes = (
"819 0 LINE",
"795 100 LINE",
"255 100 LINE",
"255 0 LINE"
);
},
{
closed = 1;
nodes = (
"847 99 OFFCURVE",
"862 215 OFFCURVE",
"860 285 CURVE",
"783 285 LINE",
"660 53 LINE",
"819 0 LINE"
);
},
{
closed = 1;
nodes = (
"670 454 LINE",
"678 562 LINE",
"239 562 LINE",
"239 454 LINE"
);
},
{
closed = 1;
nodes = (
"789 890 LINE",
"808 990 LINE",
"197 990 LINE",
"197 890 LINE"
);
},
{
closed = 1;
nodes = (
"826 723 LINE",
"832 804 OFFCURVE",
"826 900 OFFCURVE",
"808 990 CURVE",
"657 933 LINE",
"747 723 LINE"
);
}
);
width = 912;
},
{
anchors = (
{
name = bottom;
position = "{504, 0}";
},
{
name = ogonek;
position = "{843, 0}";
},
{
name = top;
position = "{472, 990}";
}
);
components = (
{
name = _serif.cap;
transform = "{1, 0, 0, 1, 9, 0}";
},
{
name = _serif.cap;
transform = "{-1, 0, 0, -1, 515, 990}";
}
);
layerId = "106916A4-8C74-485A-AD82-F5ABB18EF495";
paths = (
{
closed = 1;
nodes = (
"382 15 LINE",
"382 976 LINE",
"142 976 LINE",
"142 15 LINE"
);
},
{
closed = 1;
nodes = (
"843 0 LINE",
"819 130 LINE",
"269 130 LINE",
"269 0 LINE"
);
},
{
closed = 1;
nodes = (
"875 111 OFFCURVE",
"891 224 OFFCURVE",
"888 315 CURVE",
"781 315 LINE",
"648 83 LINE",
"843 0 LINE"
);
},
{
closed = 1;
nodes = (
"695 440 LINE",
"705 576 LINE",
"253 576 LINE",
"253 440 LINE"
);
},
{
closed = 1;
nodes = (
"813 860 LINE",
"832 990 LINE",
"211 990 LINE",
"211 860 LINE"
);
},
{
closed = 1;
nodes = (
"854 693 LINE",
"860 788 OFFCURVE",
"853 894 OFFCURVE",
"832 990 CURVE",
"645 903 LINE",
"745 693 LINE"
);
}
);
width = 930;
}
);
leftKerningGroup = H;
leftMetricsKey = H;
rightKerningGroup = E;
unicode = 0045;
},
{
color = 4;
glyphname = Eogonek;
layers = (
{
components = (
{
name = E;
}
);
layerId = "8D9E6227-A940-4CC2-85D6-810E74B12C63";
paths = (
{
closed = 1;
nodes = (
"758 -343 OFFCURVE",
"807 -332 OFFCURVE",
"845 -311 CURVE",
"850 -237 LINE",
"814 -246 OFFCURVE",
"779 -251 OFFCURVE",
"755 -251 CURVE SMOOTH",
"702 -251 OFFCURVE",
"676 -228 OFFCURVE",
"676 -179 CURVE SMOOTH",
"676 -110 OFFCURVE",
"727 -46 OFFCURVE",
"819 0 CURVE",
"809 37 LINE",
"643 2 OFFCURVE",
"538 -94 OFFCURVE",
"538 -209 CURVE SMOOTH",
"538 -295 OFFCURVE",
"598 -343 OFFCURVE",
"707 -343 CURVE SMOOTH"
);
}
);
width = 912;
},
{
components = (
{
name = E;
}
);
layerId = "106916A4-8C74-485A-AD82-F5ABB18EF495";
paths = (
{
closed = 1;
nodes = (
"775 -349 OFFCURVE",
"829 -336 OFFCURVE",
"868 -312 CURVE",
"874 -227 LINE",
"838 -235 OFFCURVE",
"806 -239 OFFCURVE",
"785 -239 CURVE SMOOTH",
"738 -239 OFFCURVE",
"716 -218 OFFCURVE",
"716 -173 CURVE SMOOTH",
"716 -107 OFFCURVE",
"761 -45 OFFCURVE",
"843 0 CURVE",
"831 47 LINE",
"638 -1 OFFCURVE",
"530 -93 OFFCURVE",
"530 -209 CURVE SMOOTH",
"530 -299 OFFCURVE",
"596 -349 OFFCURVE",
"715 -349 CURVE SMOOTH"
);
}
);
width = 930;
}
);
leftKerningGroup = H;
leftMetricsKey = E;
rightKerningGroup = E;
unicode = 0118;
},
{
color = 4;
glyphname = F;
layers = (
{
components = (
{
name = _serif.cap;
transform = "{-1, 0, 0, -1, 507, 990}";
}
);
layerId = "8D9E6227-A940-4CC2-85D6-810E74B12C63";
paths = (
{
closed = 1;
nodes = (
"338 15 LINE",
"338 976 LINE",
"170 976 LINE",
"170 15 LINE"
);
},
{
closed = 1;
nodes = (
"650 424 LINE",
"658 532 LINE",
"239 532 LINE",
"239 424 LINE"
);
},
{
closed = 1;
nodes = (
"745 890 LINE",
"764 990 LINE",
"197 990 LINE",
"197 890 LINE"
);
},
{
closed = 1;
nodes = (
"782 709 LINE",
"788 801 OFFCURVE",
"782 902 OFFCURVE",
"764 990 CURVE",
"613 933 LINE",
"709 709 LINE"
);
},
{
closed = 1;
nodes = (
"479 0 LINE",
"484 66 LINE",
"316 95 LINE",
"338 28 LINE",
"338 168 LINE",
"170 168 LINE",
"170 28 LINE",
"190 103 LINE",
"143 92 OFFCURVE",
"97 78 OFFCURVE",
"63 64 CURVE",
"58 0 LINE"
);
}
);
width = 828;
},
{
components = (
{
name = _serif.cap;
transform = "{-1, 0, 0, -1, 515, 990}";
}
);
layerId = "106916A4-8C74-485A-AD82-F5ABB18EF495";
paths = (
{
closed = 1;
nodes = (
"382 15 LINE",
"382 976 LINE",
"142 976 LINE",
"142 15 LINE"
);
},
{
closed = 1;
nodes = (
"675 406 LINE",
"685 542 LINE",
"253 542 LINE",
"253 406 LINE"
);
},
{
closed = 1;
nodes = (
"769 860 LINE",
"788 990 LINE",
"211 990 LINE",
"211 860 LINE"
);
},
{
closed = 1;
nodes = (
"810 679 LINE",
"816 785 OFFCURVE",
"809 896 OFFCURVE",
"788 990 CURVE",
"601 903 LINE",
"707 679 LINE"
);
},
{
closed = 1;
nodes = (
"503 0 LINE",
"510 90 LINE",
"347 117 LINE",
"382 25 LINE",
"382 182 LINE",
"142 182 LINE",
"142 25 LINE",
"180 127 LINE",
"133 116 OFFCURVE",
"87 102 OFFCURVE",
"55 88 CURVE",
"48 0 LINE"
);
}
);
width = 846;
}
);
leftKerningGroup = H;
leftMetricsKey = H;
rightKerningGroup = F;
unicode = 0046;
},
{
color = 4;
glyphname = G;
layers = (
{
anchors = (
{
name = bottom;
position = "{558, 0}";
},
{
name = top;
position = "{534, 990}";
}
);
layerId = "8D9E6227-A940-4CC2-85D6-810E74B12C63";
paths = (
{
closed = 1;
nodes = (
"719 -17 OFFCURVE",
"824 4 OFFCURVE",
"893 43 CURVE",
"864 133 LINE",
"786 97 OFFCURVE",
"706 79 OFFCURVE",
"618 79 CURVE SMOOTH",
"374 79 OFFCURVE",
"256 219 OFFCURVE",
"256 509 CURVE SMOOTH",
"256 780 OFFCURVE",
"359 911 OFFCURVE",
"572 911 CURVE SMOOTH",
"652 911 OFFCURVE",
"727 893 OFFCURVE",
"802 856 CURVE",
"715 933 LINE",
"806 721 LINE",
"882 721 LINE",
"887 788 OFFCURVE",
"883 868 OFFCURVE",
"872 946 CURVE",
"808 983 OFFCURVE",
"699 1007 OFFCURVE",
"590 1007 CURVE SMOOTH",
"271 1007 OFFCURVE",
"68 800 OFFCURVE",
"68 473 CURVE SMOOTH",
"68 158 OFFCURVE",
"258 -17 OFFCURVE",
"600 -17 CURVE SMOOTH"
);
},
{
closed = 1;
nodes = (
"893 43 LINE",
"893 391 LINE",
"733 391 LINE",
"733 41 LINE"
);
},
{
closed = 1;
nodes = (
"893 291 LINE",
"893 431 LINE",
"874 354 LINE",
"906 361 OFFCURVE",
"937 372 OFFCURVE",
"959 383 CURVE",
"965 457 LINE",
"572 457 LINE",
"567 391 LINE",
"751 363 LINE",
"733 431 LINE",
"733 291 LINE"
);
}
);
width = 1019;
},
{
anchors = (
{
name = bottom;
position = "{570, 0}";
},
{
name = top;
position = "{536, 990}";
}
);
layerId = "106916A4-8C74-485A-AD82-F5ABB18EF495";
paths = (
{
closed = 1;
nodes = (
"748 -17 OFFCURVE",
"867 7 OFFCURVE",
"947 51 CURVE",
"876 173 LINE",
"798 137 OFFCURVE",
"718 119 OFFCURVE",
"630 119 CURVE SMOOTH",
"413 119 OFFCURVE",
"310 248 OFFCURVE",
"310 513 CURVE SMOOTH",
"310 760 OFFCURVE",
"399 881 OFFCURVE",
"584 881 CURVE SMOOTH",
"664 881 OFFCURVE",
"739 863 OFFCURVE",
"814 826 CURVE",
"713 897 LINE",
"814 685 LINE",
"920 685 LINE",
"925 756 OFFCURVE",
"921 848 OFFCURVE",
"908 940 CURVE",
"843 981 OFFCURVE",
"724 1007 OFFCURVE",
"602 1007 CURVE SMOOTH",
"260 1007 OFFCURVE",
"42 800 OFFCURVE",
"42 473 CURVE SMOOTH",
"42 158 OFFCURVE",
"246 -17 OFFCURVE",
"612 -17 CURVE SMOOTH"
);
},
{
closed = 1;
nodes = (
"947 51 LINE",
"947 397 LINE",
"709 397 LINE",
"709 41 LINE"
);
},
{
closed = 1;
nodes = (
"947 297 LINE",
"947 437 LINE",
"909 360 LINE",
"945 368 OFFCURVE",
"975 379 OFFCURVE",
"993 389 CURVE",
"1001 487 LINE",
"578 487 LINE",
"571 397 LINE",
"739 371 LINE",
"709 437 LINE",
"709 297 LINE"
);
}
);
width = 1029;
}
);
leftKerningGroup = O;
leftMetricsKey = O;
rightKerningGroup = G;
rightMetricsKey = "=O-14";
unicode = 0047;
},
{
color = 4;
glyphname = H;
layers = (
{
anchors = (
{
name = bottom;
position = "{546, 0}";
},
{
name = top;
position = "{546, 990}";
}
);
components = (
{
name = _serif.cap;
transform = "{1, 0, 0, 1, 1, 0}";
},
{
name = _serif.cap;
transform = "{1, 0, 0, 1, 585, 0}";
},
{
name = _serif.cap;
transform = "{-1, 0, 0, -1, 1091, 990}";
},
{
name = _serif.cap;
transform = "{-1, 0, 0, -1, 507, 990}";
}
);
layerId = "8D9E6227-A940-4CC2-85D6-810E74B12C63";
paths = (
{
closed = 1;
nodes = (
"922 15 LINE",
"922 976 LINE",
"754 976 LINE",
"754 15 LINE"
);
},
{
closed = 1;
nodes = (
"338 15 LINE",
"338 976 LINE",
"170 976 LINE",
"170 15 LINE"
);
},
{
closed = 1;
nodes = (
"841 450 LINE",
"841 548 LINE",
"244 548 LINE",
"244 450 LINE"
);
}
);
width = 1092;
},
{
anchors = (
{
name = bottom;
position = "{560, 0}";
},
{
name = top;
position = "{560, 990}";
}
);
components = (
{
name = _serif.cap;
transform = "{1, 0, 0, 1, 9, 0}";
},
{
name = _serif.cap;
transform = "{1, 0, 0, 1, 605, 0}";
},
{
name = _serif.cap;
transform = "{-1, 0, 0, -1, 1111, 990}";
},
{
name = _serif.cap;
transform = "{-1, 0, 0, -1, 515, 990}";
}
);
layerId = "106916A4-8C74-485A-AD82-F5ABB18EF495";
paths = (
{
closed = 1;
nodes = (
"978 15 LINE",
"978 976 LINE",
"738 976 LINE",
"738 15 LINE"
);
},
{
closed = 1;
nodes = (
"382 15 LINE",
"382 976 LINE",
"142 976 LINE",
"142 15 LINE"
);
},
{
closed = 1;
nodes = (
"855 435 LINE",
"855 563 LINE",
"258 563 LINE",
"258 435 LINE"
);
}
);
width = 1120;
}
);
leftKerningGroup = H;
rightKerningGroup = H;
unicode = 0048;
},
{
color = 4;
glyphname = I;
layers = (
{
anchors = (
{
name = bottom;
position = "{256, 0}";
},
{
name = ogonek;
position = "{418, 0}";
},
{
name = top;
position = "{256, 990}";
}
);
components = (
{
name = _serif.cap;
transform = "{1, 0, 0, 1, 3, 0}";
},
{
name = _serif.cap;
transform = "{-1, 0, 0, -1, 509, 990}";
}
);
layerId = "8D9E6227-A940-4CC2-85D6-810E74B12C63";
paths = (
{
closed = 1;
nodes = (
"340 15 LINE",
"340 976 LINE",
"172 976 LINE",
"172 15 LINE"
);
}
);
width = 512;
},
{
anchors = (
{
name = bottom;
position = "{264, 0}";
},
{
name = ogonek;
position = "{426, 0}";
},
{
name = top;
position = "{264, 990}";
}
);
components = (
{
name = _serif.cap;
transform = "{1, 0, 0, 1, 11, 0}";
},
{
name = _serif.cap;
transform = "{-1, 0, 0, -1, 517, 990}";
}
);
layerId = "106916A4-8C74-485A-AD82-F5ABB18EF495";
paths = (
{
closed = 1;
nodes = (
"384 15 LINE",
"384 976 LINE",
"144 976 LINE",
"144 15 LINE"
);
}
);
width = 528;
}
);
leftKerningGroup = H;
leftMetricsKey = "=H+2";
rightKerningGroup = H;
rightMetricsKey = "=H+2";
unicode = 0049;
},
{
color = 4;
glyphname = Iogonek;
layers = (
{
components = (
{
name = I;
}
);
layerId = "8D9E6227-A940-4CC2-85D6-810E74B12C63";
paths = (
{
closed = 1;
nodes = (
"327 -343 OFFCURVE",
"376 -332 OFFCURVE",
"414 -311 CURVE",
"419 -237 LINE",
"383 -246 OFFCURVE",
"348 -251 OFFCURVE",
"324 -251 CURVE SMOOTH",
"271 -251 OFFCURVE",
"245 -228 OFFCURVE",
"245 -179 CURVE SMOOTH",
"245 -110 OFFCURVE",
"296 -46 OFFCURVE",
"388 0 CURVE",
"378 37 LINE",
"212 2 OFFCURVE",
"107 -94 OFFCURVE",
"107 -209 CURVE SMOOTH",
"107 -295 OFFCURVE",
"167 -343 OFFCURVE",
"276 -343 CURVE SMOOTH"
);
}
);
width = 512;
},
{
components = (
{
name = I;
}
);
layerId = "106916A4-8C74-485A-AD82-F5ABB18EF495";
paths = (
{
closed = 1;
nodes = (
"344 -349 OFFCURVE",
"398 -336 OFFCURVE",
"437 -312 CURVE",
"443 -227 LINE",
"407 -235 OFFCURVE",
"375 -239 OFFCURVE",
"354 -239 CURVE SMOOTH",
"307 -239 OFFCURVE",
"285 -217 OFFCURVE",
"285 -172 CURVE SMOOTH",
"285 -106 OFFCURVE",
"333 -44 OFFCURVE",
"420 0 CURVE",
"408 47 LINE",
"209 -1 OFFCURVE",
"99 -92 OFFCURVE",
"99 -209 CURVE SMOOTH",
"99 -299 OFFCURVE",
"165 -349 OFFCURVE",
"284 -349 CURVE SMOOTH"
);
}
);
width = 528;
}
);
leftKerningGroup = H;
leftMetricsKey = I;
rightKerningGroup = H;
rightMetricsKey = I;
unicode = 012E;
},
{
color = 4;
glyphname = J;
layers = (
{
anchors = (
{
name = top;
position = "{468, 990}";
}
);
layerId = "8D9E6227-A940-4CC2-85D6-810E74B12C63";
paths = (
{
closed = 1;
nodes = (
"446 -16 OFFCURVE",
"564 80 OFFCURVE",
"564 230 CURVE",
"396 246 LINE",
"396 135 OFFCURVE",
"352 82 OFFCURVE",
"261 82 CURVE SMOOTH",
"224 82 OFFCURVE",
"179 91 OFFCURVE",
"136 107 CURVE",
"209 57 LINE",
"126 251 LINE",
"46 251 LINE",
"41 173 OFFCURVE",
"46 91 OFFCURVE",
"60 20 CURVE",
"120 -3 OFFCURVE",
"192 -16 OFFCURVE",
"261 -16 CURVE SMOOTH"
);
},
{
closed = 1;
nodes = (
"564 976 LINE",
"396 976 LINE",
"396 246 LINE",
"564 230 LINE"
);
},
{
closed = 1;
nodes = (
"251 990 LINE",
"246 924 LINE",
"418 895 LINE",
"396 962 LINE",
"396 822 LINE",
"564 822 LINE",
"564 962 LINE",
"545 887 LINE",
"591 898 OFFCURVE",
"632 912 OFFCURVE",
"661 926 CURVE",
"666 990 LINE"
);
}
);
width = 706;
},
{
anchors = (
{
name = top;
position = "{476, 990}";
}
);
layerId = "106916A4-8C74-485A-AD82-F5ABB18EF495";
paths = (
{
closed = 1;
nodes = (
"488 -16 OFFCURVE",
"608 72 OFFCURVE",
"608 230 CURVE",
"368 256 LINE",
"368 159 OFFCURVE",
"332 112 OFFCURVE",
"259 112 CURVE SMOOTH",
"228 112 OFFCURVE",
"187 121 OFFCURVE",
"144 137 CURVE",
"239 87 LINE",
"146 281 LINE",
"36 281 LINE",
"30 194 OFFCURVE",
"36 101 OFFCURVE",
"52 20 CURVE",
"112 -3 OFFCURVE",
"191 -16 OFFCURVE",
"273 -16 CURVE SMOOTH"
);
},
{
closed = 1;
nodes = (
"608 976 LINE",
"368 976 LINE",
"368 256 LINE",
"608 230 LINE"
);
},
{
closed = 1;
nodes = (
"243 990 LINE",
"236 900 LINE",
"403 873 LINE",
"368 965 LINE",
"368 808 LINE",
"608 808 LINE",
"608 965 LINE",
"570 862 LINE",
"619 875 OFFCURVE",
"660 889 OFFCURVE",
"685 902 CURVE",
"692 990 LINE"
);
}
);
width = 722;
}
);
leftKerningGroup = J;
leftMetricsKey = "=U+4";
rightKerningGroup = U;
rightMetricsKey = "=U";
unicode = 004A;
},
{
color = 4;
glyphname = K;
layers = (
{
anchors = (
{
name = bottom;
position = "{550, 0}";
}
);
components = (
{
name = _serif.cap;
transform = "{1, 0, 0, 1, 1, 0}";
},
{
name = _serif.cap;
transform = "{-1, 0, 0, -1, 507, 990}";
}
);
layerId = "8D9E6227-A940-4CC2-85D6-810E74B12C63";
paths = (
{
closed = 1;
nodes = (
"967 0 LINE",
"972 70 LINE",
"838 97 LINE",
"908 65 LINE",
"504 561 LINE",
"512 484 LINE",
"884 932 LINE",
"825 888 LINE",
"869 896 OFFCURVE",
"912 909 OFFCURVE",
"945 926 CURVE",
"950 990 LINE",
"585 990 LINE",
"580 924 LINE",
"714 895 LINE",
"735 938 LINE",
"385 514 LINE",
"385 458 LINE",
"742 0 LINE"
);
},
{
closed = 1;
nodes = (
"338 15 LINE",
"338 974 LINE",
"170 974 LINE",
"170 15 LINE"
);
},
{
closed = 1;
nodes = (
"517 435 LINE",
"517 539 LINE",
"255 539 LINE",
"255 435 LINE"
);
}
);
width = 986;
},
{
anchors = (
{
name = bottom;
position = "{564, 0}";
}
);
components = (
{
name = _serif.cap;
transform = "{1, 0, 0, 1, 9, 0}";
},
{
name = _serif.cap;
transform = "{-1, 0, 0, -1, 515, 990}";
}
);
layerId = "106916A4-8C74-485A-AD82-F5ABB18EF495";
paths = (
{
closed = 1;
nodes = (
"1017 0 LINE",
"1024 94 LINE",
"890 119 LINE",
"980 89 LINE",
"621 561 LINE",
"561 484 LINE",
"956 908 LINE",
"877 864 LINE",
"927 875 OFFCURVE",
"970 888 OFFCURVE",
"995 902 CURVE",
"1002 990 LINE",
"623 990 LINE",
"616 900 LINE",
"756 873 LINE",
"763 914 LINE",
"410 526 LINE",
"410 451 LINE",
"736 0 LINE"
);
},
{
closed = 1;
nodes = (
"382 15 LINE",
"382 974 LINE",
"142 974 LINE",
"142 15 LINE"
);
},
{
closed = 1;
nodes = (
"531 422 LINE",
"531 552 LINE",
"269 552 LINE",
"269 422 LINE"
);
}
);
width = 1018;
}
);
leftKerningGroup = H;
leftMetricsKey = H;
rightKerningGroup = X;
unicode = 004B;
},
{
color = 4;
glyphname = L;
layers = (
{
anchors = (
{
name = bottom;
position = "{480, 0}";
},
{
name = top;
position = "{270, 990}";
},
{
name = topright;
position = "{522, 746}";
}
);
components = (
{
name = _serif.cap;
transform = "{1, 0, 0, 1, 1, 0}";
}
);
layerId = "8D9E6227-A940-4CC2-85D6-810E74B12C63";
paths = (
{
closed = 1;
nodes = (
"338 15 LINE",
"338 976 LINE",
"170 976 LINE",
"170 15 LINE"
);
},
{
closed = 1;
nodes = (
"796 0 LINE",
"755 100 LINE",
"254 100 LINE",
"254 0 LINE"
);
},
{
closed = 1;
nodes = (
"824 99 OFFCURVE",
"839 215 OFFCURVE",
"839 325 CURVE",
"775 325 LINE",
"631 53 LINE",
"796 0 LINE"
);
},
{
closed = 1;
nodes = (
"59 990 LINE",
"54 924 LINE",
"187 895 LINE",
"170 962 LINE",
"170 822 LINE",
"338 822 LINE",
"338 962 LINE",
"318 889 LINE",
"379 897 OFFCURVE",
"439 911 OFFCURVE",
"485 926 CURVE",
"490 990 LINE"
);
}
);
width = 881;
},
{
anchors = (
{
name = bottom;
position = "{484, 0}";
},
{
name = top;
position = "{284, 990}";
},
{
name = topright;
position = "{532, 746}";
}
);
components = (
{
name = _serif.cap;
transform = "{1, 0, 0, 1, 9, 0}";
}
);
layerId = "106916A4-8C74-485A-AD82-F5ABB18EF495";
paths = (
{
closed = 1;
nodes = (
"382 15 LINE",
"382 976 LINE",
"142 976 LINE",
"142 15 LINE"
);
},
{
closed = 1;
nodes = (
"810 0 LINE",
"773 130 LINE",
"268 130 LINE",
"268 0 LINE"
);
},
{
closed = 1;
nodes = (
"840 105 OFFCURVE",
"857 232 OFFCURVE",
"857 355 CURVE",
"763 355 LINE",
"609 83 LINE",
"810 0 LINE"
);
},
{
closed = 1;
nodes = (
"51 990 LINE",
"44 900 LINE",
"177 871 LINE",
"142 965 LINE",
"142 808 LINE",
"382 808 LINE",
"382 965 LINE",
"344 866 LINE",
"412 877 OFFCURVE",
"471 890 OFFCURVE",
"509 902 CURVE",
"516 990 LINE"
);
}
);
width = 889;
}
);
leftKerningGroup = H;
leftMetricsKey = H;
rightKerningGroup = L;
unicode = 004C;
},
{
color = 4;
glyphname = Lslash;
layers = (
{
components = (
{
name = L;
transform = "{1, 0, 0, 1, 20, 0}";
}
);
layerId = "8D9E6227-A940-4CC2-85D6-810E74B12C63";
paths = (
{
closed = 1;
nodes = (
"280 402 LINE",
"288 397 LINE",
"651 561 LINE",
"658 671 LINE",
"288 503 LINE",
"280 508 LINE",
"43 401 LINE",
"36 291 LINE"
);
}
);
width = 901;
},
{
components = (
{
name = L;
transform = "{1, 0, 0, 1, 24, 0}";
}
);
layerId = "106916A4-8C74-485A-AD82-F5ABB18EF495";
paths = (
{
closed = 1;
nodes = (
"288 397 LINE",
"296 392 LINE",
"669 559 LINE",
"676 689 LINE",
"296 514 LINE",
"288 519 LINE",
"35 407 LINE",
"28 277 LINE"
);
}
);
width = 913;
}
);
leftKerningGroup = H;
rightKerningGroup = L;
rightMetricsKey = L;
unicode = 0141;
},
{
color = 4;
glyphname = M;
layers = (
{
anchors = (
{
name = bottom;
position = "{672, 0}";
}
);
guideLines = (
{
position = "{281, 822}";
}
);
layerId = "8D9E6227-A940-4CC2-85D6-810E74B12C63";
paths = (
{
closed = 1;
nodes = (
"652 37 OFFCURVE",
"698 39 OFFCURVE",
"737 44 CURVE",
"733 127 LINE",
"424 990 LINE",
"252 990 LINE",
"607 40 LINE"
);
},
{
closed = 1;
nodes = (
"396 0 LINE",
"401 66 LINE",
"256 95 LINE",
"272 38 LINE",
"324 990 LINE",
"85 990 LINE",
"80 924 LINE",
"220 895 LINE",
"205 944 LINE",
"146 36 LINE",
"170 103 LINE",
"125 93 OFFCURVE",
"82 79 OFFCURVE",
"49 64 CURVE",
"44 0 LINE"
);
},
{
closed = 1;
nodes = (
"1090 990 LINE",
"962 990 LINE",
"636 66 LINE",
"737 44 LINE"
);
},
{
closed = 1;
nodes = (
"1339 0 LINE",
"1344 66 LINE",
"1218 95 LINE",
"1237 46 LINE",
"1178 935 LINE",
"1161 888 LINE",
"1212 898 OFFCURVE",
"1260 912 OFFCURVE",
"1294 926 CURVE",
"1299 990 LINE",
"1021 990 LINE",
"1072 43 LINE",
"1089 102 LINE",
"1039 93 OFFCURVE",
"990 80 OFFCURVE",
"952 64 CURVE",
"947 0 LINE"
);
}
);
width = 1388;
},
{
anchors = (
{
name = bottom;
position = "{667, 0}";
}
);
guideLines = (
{
position = "{320, 768}";
}
);
layerId = "106916A4-8C74-485A-AD82-F5ABB18EF495";
paths = (
{
closed = 1;
nodes = (
"633 46 OFFCURVE",
"700 48 OFFCURVE",
"760 54 CURVE",
"778 138 LINE",
"474 990 LINE",
"228 990 LINE",
"574 50 LINE"
);
},
{
closed = 1;
nodes = (
"382 0 LINE",
"389 90 LINE",
"246 118 LINE",
"277 38 LINE",
"329 990 LINE",
"75 990 LINE",
"68 900 LINE",
"208 871 LINE",
"176 944 LINE",
"117 36 LINE",
"160 127 LINE",
"113 116 OFFCURVE",
"72 103 OFFCURVE",
"41 88 CURVE",
"34 0 LINE"
);
},
{
closed = 1;
nodes = (
"1105 990 LINE",
"938 990 LINE",
"625 72 LINE",
"760 54 LINE"
);
},
{
closed = 1;
nodes = (
"1375 0 LINE",
"1382 90 LINE",
"1256 119 LINE",
"1294 46 LINE",
"1235 935 LINE",
"1197 864 LINE",
"1248 874 OFFCURVE",
"1296 888 OFFCURVE",
"1330 902 CURVE",
"1337 990 LINE",
"1006 990 LINE",
"1057 43 LINE",
"1091 126 LINE",
"1041 116 OFFCURVE",
"992 102 OFFCURVE",
"956 88 CURVE",
"949 0 LINE"
);
}
);
width = 1416;
}
);
leftKerningGroup = H;
leftMetricsKey = "=H-10";
rightKerningGroup = H;
rightMetricsKey = "=H-10";
unicode = 004D;
},
{
color = 4;
glyphname = N;
layers = (
{
anchors = (
{
name = bottom;
position = "{560, 0}";
},
{
name = top;
position = "{548, 990}";
}
);
layerId = "8D9E6227-A940-4CC2-85D6-810E74B12C63";
paths = (
{
closed = 1;
nodes = (
"855 -10 OFFCURVE",
"896 -8 OFFCURVE",
"930 -1 CURVE",
"922 96 LINE",
"290 990 LINE",
"178 886 LINE",
"810 -6 LINE"
);
},
{
closed = 1;
nodes = (
"296 15 LINE",
"296 917 LINE",
"170 976 LINE",
"170 15 LINE"
);
},
{
closed = 1;
nodes = (
"290 990 LINE",
"59 990 LINE",
"54 924 LINE",
"187 877 LINE",
"304 818 LINE"
);
},
{
closed = 1;
nodes = (
"930 976 LINE",
"804 976 LINE",
"804 44 LINE",
"930 -1 LINE"
);
},
{
closed = 1;
nodes = (
"421 0 LINE",
"426 66 LINE",
"277 95 LINE",
"296 28 LINE",
"296 168 LINE",
"170 168 LINE",
"170 28 LINE",
"190 103 LINE",
"143 92 OFFCURVE",
"97 78 OFFCURVE",
"63 64 CURVE",
"58 0 LINE"
);
},
{
closed = 1;
nodes = (
"693 990 LINE",
"688 924 LINE",
"821 895 LINE",
"804 962 LINE",
"804 822 LINE",
"930 822 LINE",
"930 962 LINE",
"909 887 LINE",
"951 896 OFFCURVE",
"994 910 OFFCURVE",
"1031 926 CURVE",
"1036 990 LINE"
);
}
);
width = 1076;
},
{
anchors = (
{
name = bottom;
position = "{569, 0}";
},
{
name = top;
position = "{555, 990}";
}
);
layerId = "106916A4-8C74-485A-AD82-F5ABB18EF495";
paths = (
{
closed = 1;
nodes = (
"880 -9 OFFCURVE",
"934 -7 OFFCURVE",
"974 -1 CURVE",
"964 174 LINE",
"296 990 LINE",
"154 808 LINE",
"822 -6 LINE"
);
},
{
closed = 1;
nodes = (
"304 15 LINE",
"304 917 LINE",
"144 976 LINE",
"144 15 LINE"
);
},
{
closed = 1;
nodes = (
"296 990 LINE",
"51 990 LINE",
"44 900 LINE",
"177 853 LINE",
"292 818 LINE"
);
},
{
closed = 1;
nodes = (
"974 976 LINE",
"814 976 LINE",
"814 84 LINE",
"974 -1 LINE"
);
},
{
closed = 1;
nodes = (
"409 0 LINE",
"416 90 LINE",
"269 118 LINE",
"304 25 LINE",
"304 182 LINE",
"144 182 LINE",
"144 25 LINE",
"182 127 LINE",
"135 116 OFFCURVE",
"89 102 OFFCURVE",
"57 88 CURVE",
"50 0 LINE"
);
},
{
closed = 1;
nodes = (
"723 990 LINE",
"716 900 LINE",
"849 871 LINE",
"814 965 LINE",
"814 808 LINE",
"974 808 LINE",
"974 965 LINE",
"936 863 LINE",
"981 873 OFFCURVE",
"1023 887 OFFCURVE",
"1055 902 CURVE",
"1062 990 LINE"
);
}
);
width = 1092;
}
);
leftKerningGroup = H;
leftMetricsKey = H;
rightKerningGroup = N;
rightMetricsKey = "=H-14";
unicode = 004E;
},
{
color = 4;
glyphname = Eng;
layers = (
{
layerId = "8D9E6227-A940-4CC2-85D6-810E74B12C63";
paths = (
{
closed = 1;
nodes = (
"922 96 LINE",
"290 990 LINE",
"178 886 LINE",
"810 -6 LINE"
);
},
{
closed = 1;
nodes = (
"421 0 LINE",
"426 66 LINE",
"277 95 LINE",
"296 28 LINE",
"296 168 LINE",
"170 168 LINE",
"170 28 LINE",
"190 103 LINE",
"143 92 OFFCURVE",
"97 78 OFFCURVE",
"63 64 CURVE",
"58 0 LINE"
);
},
{
closed = 1;
nodes = (
"296 15 LINE",
"296 917 LINE",
"170 976 LINE",
"170 15 LINE"
);
},
{
closed = 1;
nodes = (
"817 -298 OFFCURVE",
"881 -220 OFFCURVE",
"909 -119 CURVE SMOOTH",
"923 -68 OFFCURVE",
"930 4 OFFCURVE",
"930 105 CURVE SMOOTH",
"930 378 LINE",
"790 178 LINE",
"790 70 LINE SMOOTH",
"790 -81 OFFCURVE",
"761 -180 OFFCURVE",
"690 -265 CURVE SMOOTH",
"661 -300 LINE",
"712 -342 LINE"
);
},
{
closed = 1;
nodes = (
"290 990 LINE",
"59 990 LINE",
"54 924 LINE",
"187 877 LINE",
"304 818 LINE"
);
},
{
closed = 1;
nodes = (
"930 129 LINE",
"930 976 LINE",
"804 976 LINE",
"804 44 LINE"
);
},
{
closed = 1;
nodes = (
"930 822 LINE",
"930 962 LINE",
"909 887 LINE",
"951 896 OFFCURVE",
"994 910 OFFCURVE",
"1031 926 CURVE",
"1036 990 LINE",
"693 990 LINE",
"688 924 LINE",
"821 895 LINE",
"804 962 LINE",
"804 822 LINE"
);
}
);
width = 1076;
},
{
layerId = "106916A4-8C74-485A-AD82-F5ABB18EF495";
paths = (
{
closed = 1;
nodes = (
"964 174 LINE",
"296 990 LINE",
"154 808 LINE",
"822 -6 LINE"
);
},
{
closed = 1;
nodes = (
"409 0 LINE",
"416 90 LINE",
"269 118 LINE",
"304 25 LINE",
"304 182 LINE",
"144 182 LINE",
"144 25 LINE",
"182 127 LINE",
"135 116 OFFCURVE",
"89 102 OFFCURVE",
"57 88 CURVE",
"50 0 LINE"
);
},
{
closed = 1;
nodes = (
"304 15 LINE",
"304 917 LINE",
"144 976 LINE",
"144 15 LINE"
);
},
{
closed = 1;
nodes = (
"851 -293 OFFCURVE",
"925 -215 OFFCURVE",
"953 -119 CURVE SMOOTH",
"968 -67 OFFCURVE",
"974 8 OFFCURVE",
"974 113 CURVE SMOOTH",
"974 311 LINE",
"762 261 LINE",
"762 62 LINE SMOOTH",
"762 -90 OFFCURVE",
"734 -186 OFFCURVE",
"668 -265 CURVE SMOOTH",
"648 -289 LINE",
"720 -348 LINE"
);
},
{
closed = 1;
nodes = (
"296 990 LINE",
"51 990 LINE",
"44 900 LINE",
"177 853 LINE",
"292 818 LINE"
);
},
{
closed = 1;
nodes = (
"974 199 LINE",
"974 976 LINE",
"814 976 LINE",
"814 84 LINE"
);
},
{
closed = 1;
nodes = (
"974 808 LINE",
"974 965 LINE",
"936 863 LINE",
"981 873 OFFCURVE",
"1023 887 OFFCURVE",
"1055 902 CURVE",
"1062 990 LINE",
"723 990 LINE",
"716 900 LINE",
"849 871 LINE",
"814 965 LINE",
"814 808 LINE"
);
}
);
width = 1092;
}
);
leftKerningGroup = H;
leftMetricsKey = N;
rightKerningGroup = H;
rightMetricsKey = N;
unicode = 014A;
},
{
color = 4;
glyphname = Nhookleft;
layers = (
{
anchors = (
{
name = bottom;
position = "{560, 0}";
},
{
name = top;
position = "{552, 990}";
}
);
layerId = "8D9E6227-A940-4CC2-85D6-810E74B12C63";
paths = (
{
closed = 1;
nodes = (
"855 -10 OFFCURVE",
"896 -8 OFFCURVE",
"930 -1 CURVE",
"922 96 LINE",
"290 990 LINE",
"178 886 LINE",
"810 -6 LINE"
);
},
{
closed = 1;
nodes = (
"181 -304 OFFCURVE",
"248 -224 OFFCURVE",
"277 -119 CURVE SMOOTH",
"291 -68 OFFCURVE",
"298 4 OFFCURVE",
"298 105 CURVE SMOOTH",
"298 333 LINE",
"170 333 LINE",
"170 70 LINE SMOOTH",
"170 -77 OFFCURVE",
"139 -176 OFFCURVE",
"66 -265 CURVE SMOOTH",
"37 -300 LINE",
"88 -342 LINE"
);
},
{
closed = 1;
nodes = (
"298 155 LINE",
"298 917 LINE",
"170 976 LINE",
"170 155 LINE"
);
},
{
closed = 1;
nodes = (
"290 990 LINE",
"59 990 LINE",
"54 924 LINE",
"187 877 LINE",
"304 818 LINE"
);
},
{
closed = 1;
nodes = (
"930 976 LINE",
"804 976 LINE",
"804 44 LINE",
"930 -1 LINE"
);
},
{
closed = 1;
nodes = (
"930 822 LINE",
"930 962 LINE",
"909 887 LINE",
"951 896 OFFCURVE",
"994 910 OFFCURVE",
"1031 926 CURVE",
"1036 990 LINE",
"693 990 LINE",
"688 924 LINE",
"821 895 LINE",
"804 962 LINE",
"804 822 LINE"
);
}
);
width = 1076;
},
{
anchors = (
{
name = bottom;
position = "{569, 0}";
},
{
name = top;
position = "{561, 990}";
}
);
layerId = "106916A4-8C74-485A-AD82-F5ABB18EF495";
paths = (
{
closed = 1;
nodes = (
"880 -9 OFFCURVE",
"934 -7 OFFCURVE",
"974 -1 CURVE",
"964 174 LINE",
"296 990 LINE",
"154 808 LINE",
"822 -6 LINE"
);
},
{
closed = 1;
nodes = (
"187 -308 OFFCURVE",
"256 -226 OFFCURVE",
"287 -119 CURVE SMOOTH",
"302 -67 OFFCURVE",
"308 8 OFFCURVE",
"308 113 CURVE SMOOTH",
"308 311 LINE",
"144 261 LINE",
"144 62 LINE SMOOTH",
"144 -81 OFFCURVE",
"113 -177 OFFCURVE",
"40 -265 CURVE SMOOTH",
"20 -289 LINE",
"92 -348 LINE"
);
},
{
closed = 1;
nodes = (
"308 125 LINE",
"308 917 LINE",
"144 976 LINE",
"144 125 LINE"
);
},
{
closed = 1;
nodes = (
"296 990 LINE",
"51 990 LINE",
"44 900 LINE",
"177 853 LINE",
"292 818 LINE"
);
},
{
closed = 1;
nodes = (
"974 976 LINE",
"814 976 LINE",
"814 84 LINE",
"974 -1 LINE"
);
},
{
closed = 1;
nodes = (
"974 808 LINE",
"974 965 LINE",
"936 863 LINE",
"981 873 OFFCURVE",
"1023 887 OFFCURVE",
"1055 902 CURVE",
"1062 990 LINE",
"723 990 LINE",
"716 900 LINE",
"849 871 LINE",
"814 965 LINE",
"814 808 LINE"
);
}
);
width = 1092;
}
);
rightKerningGroup = H;
rightMetricsKey = N;
unicode = 019D;
},
{
color = 4;
glyphname = O;
layers = (
{
anchors = (
{
name = bottom;
position = "{537, 0}";
},
{
name = horn;
position = "{811, 990}";
},
{
name = ogonek;
position = "{724, 0}";
},
{
name = top;
position = "{537, 990}";
}
);
layerId = "8D9E6227-A940-4CC2-85D6-810E74B12C63";
paths = (
{
closed = 1;
nodes = (
"823 -18 OFFCURVE",
"1006 182 OFFCURVE",
"1006 496 CURVE SMOOTH",
"1006 809 OFFCURVE",
"823 1008 OFFCURVE",
"537 1008 CURVE SMOOTH",
"250 1008 OFFCURVE",
"68 808 OFFCURVE",
"68 494 CURVE SMOOTH",
"68 181 OFFCURVE",
"250 -18 OFFCURVE",
"536 -18 CURVE SMOOTH"
);
},
{
closed = 1;
nodes = (
"369 80 OFFCURVE",
"260 240 OFFCURVE",
"260 532 CURVE SMOOTH",
"260 786 OFFCURVE",
"342 910 OFFCURVE",
"512 910 CURVE SMOOTH",
"705 910 OFFCURVE",
"814 749 OFFCURVE",
"814 458 CURVE SMOOTH",
"814 203 OFFCURVE",
"732 80 OFFCURVE",
"562 80 CURVE SMOOTH"
);
}
);
width = 1074;
},
{
anchors = (
{
name = bottom;
position = "{549, 0}";
},
{
name = horn;
position = "{823, 990}";
},
{
name = ogonek;
position = "{736, 0}";
},
{
name = top;
position = "{549, 990}";
}
);
layerId = "106916A4-8C74-485A-AD82-F5ABB18EF495";
paths = (
{
closed = 1;
nodes = (
"859 -18 OFFCURVE",
"1056 182 OFFCURVE",
"1056 496 CURVE SMOOTH",
"1056 809 OFFCURVE",
"859 1008 OFFCURVE",
"549 1008 CURVE SMOOTH",
"239 1008 OFFCURVE",
"42 808 OFFCURVE",
"42 494 CURVE SMOOTH",
"42 181 OFFCURVE",
"239 -18 OFFCURVE",
"548 -18 CURVE SMOOTH"
);
},
{
closed = 1;
nodes = (
"407 110 OFFCURVE",
"314 262 OFFCURVE",
"314 534 CURVE SMOOTH",
"314 768 OFFCURVE",
"383 880 OFFCURVE",
"525 880 CURVE SMOOTH",
"691 880 OFFCURVE",
"784 728 OFFCURVE",
"784 456 CURVE SMOOTH",
"784 222 OFFCURVE",
"715 110 OFFCURVE",
"573 110 CURVE SMOOTH"
);
}
);
width = 1098;
}
);
leftKerningGroup = O;
rightKerningGroup = O;
unicode = 004F;
},
{
color = 4;
glyphname = Oogonek;
layers = (
{
components = (
{
name = O;
}
);
layerId = "8D9E6227-A940-4CC2-85D6-810E74B12C63";
paths = (
{
closed = 1;
nodes = (
"635 -343 OFFCURVE",
"684 -332 OFFCURVE",
"722 -311 CURVE",
"727 -237 LINE",
"691 -246 OFFCURVE",
"656 -251 OFFCURVE",
"632 -251 CURVE SMOOTH",
"579 -251 OFFCURVE",
"553 -228 OFFCURVE",
"553 -179 CURVE SMOOTH",
"553 -68 OFFCURVE",
"685 -5 OFFCURVE",
"735 18 CURVE SMOOTH",
"916 103 OFFCURVE",
"1006 266 OFFCURVE",
"1006 496 CURVE",
"735 61 LINE",
"529 7 OFFCURVE",
"415 -90 OFFCURVE",
"415 -209 CURVE SMOOTH",
"415 -295 OFFCURVE",
"475 -343 OFFCURVE",
"584 -343 CURVE SMOOTH"
);
}
);
width = 1074;
},
{
components = (
{
name = O;
}
);
layerId = "106916A4-8C74-485A-AD82-F5ABB18EF495";
paths = (
{
closed = 1;
nodes = (
"656 -349 OFFCURVE",
"710 -336 OFFCURVE",
"749 -312 CURVE",
"755 -227 LINE",
"719 -235 OFFCURVE",
"687 -239 OFFCURVE",
"666 -239 CURVE SMOOTH",
"619 -239 OFFCURVE",
"597 -217 OFFCURVE",
"597 -172 CURVE SMOOTH",
"597 -101 OFFCURVE",
"651 -29 OFFCURVE",
"747 12 CURVE SMOOTH",
"832 48 OFFCURVE",
"1056 143 OFFCURVE",
"1056 496 CURVE",
"734 49 LINE",
"526 3 OFFCURVE",
"411 -89 OFFCURVE",
"411 -209 CURVE SMOOTH",
"411 -299 OFFCURVE",
"477 -349 OFFCURVE",
"596 -349 CURVE SMOOTH"
);
}
);
width = 1098;
}
);
leftKerningGroup = O;
leftMetricsKey = O;
rightKerningGroup = O;
rightMetricsKey = O;
unicode = 01EA;
},
{
color = 4;
glyphname = Oslash;
layers = (
{
anchors = (
{
name = top;
position = "{537, 990}";
}
);
layerId = "8D9E6227-A940-4CC2-85D6-810E74B12C63";
paths = (
{
closed = 1;
nodes = (
"823 -18 OFFCURVE",
"1006 182 OFFCURVE",
"1006 496 CURVE SMOOTH",
"1006 809 OFFCURVE",
"823 1008 OFFCURVE",
"537 1008 CURVE SMOOTH",
"250 1008 OFFCURVE",
"68 808 OFFCURVE",
"68 494 CURVE SMOOTH",
"68 181 OFFCURVE",
"250 -18 OFFCURVE",
"536 -18 CURVE SMOOTH"
);
},
{
closed = 1;
nodes = (
"369 80 OFFCURVE",
"260 240 OFFCURVE",
"260 532 CURVE SMOOTH",
"260 786 OFFCURVE",
"342 910 OFFCURVE",
"512 910 CURVE SMOOTH",
"705 910 OFFCURVE",
"814 749 OFFCURVE",
"814 458 CURVE SMOOTH",
"814 203 OFFCURVE",
"732 80 OFFCURVE",
"562 80 CURVE SMOOTH"
);
},
{
closed = 1;
nodes = (
"986 992 LINE",
"914 1049 LINE",
"88 -2 LINE",
"160 -59 LINE"
);
}
);
width = 1074;
},
{
anchors = (
{
name = top;
position = "{549, 990}";
}
);
layerId = "106916A4-8C74-485A-AD82-F5ABB18EF495";
paths = (
{
closed = 1;
nodes = (
"859 -18 OFFCURVE",
"1056 182 OFFCURVE",
"1056 496 CURVE SMOOTH",
"1056 805 OFFCURVE",
"855 1008 OFFCURVE",
"549 1008 CURVE SMOOTH",
"239 1008 OFFCURVE",
"42 808 OFFCURVE",
"42 494 CURVE SMOOTH",
"42 185 OFFCURVE",
"243 -18 OFFCURVE",
"548 -18 CURVE SMOOTH"
);
},
{
closed = 1;
nodes = (
"403 110 OFFCURVE",
"312 259 OFFCURVE",
"312 534 CURVE SMOOTH",
"312 767 OFFCURVE",
"381 880 OFFCURVE",
"525 880 CURVE SMOOTH",
"695 880 OFFCURVE",
"786 731 OFFCURVE",
"786 456 CURVE SMOOTH",
"786 223 OFFCURVE",
"717 110 OFFCURVE",
"573 110 CURVE SMOOTH"
);
},
{
closed = 1;
nodes = (
"1004 984 LINE",
"917 1053 LINE",
"94 6 LINE",
"181 -63 LINE"
);
}
);
width = 1098;
}
);
leftKerningGroup = O;
leftMetricsKey = O;
rightKerningGroup = O;
rightMetricsKey = O;
unicode = 00D8;
},
{
color = 4;
glyphname = OE;
layers = (
{
layerId = "8D9E6227-A940-4CC2-85D6-810E74B12C63";
paths = (
{
closed = 1;
nodes = (
"597 -8 OFFCURVE",
"687 0 OFFCURVE",
"785 0 CURVE",
"785 100 LINE",
"697 100 OFFCURVE",
"615 92 OFFCURVE",
"562 92 CURVE SMOOTH",
"368 92 OFFCURVE",
"260 249 OFFCURVE",
"260 532 CURVE SMOOTH",
"260 779 OFFCURVE",
"342 898 OFFCURVE",
"512 898 CURVE SMOOTH",
"585 898 OFFCURVE",
"684 890 OFFCURVE",
"785 890 CURVE",
"785 990 LINE",
"687 990 OFFCURVE",
"597 998 OFFCURVE",
"537 998 CURVE SMOOTH",
"250 998 OFFCURVE",
"68 802 OFFCURVE",
"68 494 CURVE SMOOTH",
"68 187 OFFCURVE",
"250 -8 OFFCURVE",
"536 -8 CURVE SMOOTH"
);
},
{
closed = 1;
nodes = (
"1331 0 LINE",
"1307 100 LINE",
"732 100 LINE",
"732 0 LINE"
);
},
{
closed = 1;
nodes = (
"880 15 LINE",
"880 976 LINE",
"712 976 LINE",
"712 15 LINE"
);
},
{
closed = 1;
nodes = (
"1359 99 OFFCURVE",
"1374 215 OFFCURVE",
"1372 285 CURVE",
"1295 285 LINE",
"1172 53 LINE",
"1331 0 LINE"
);
},
{
closed = 1;
nodes = (
"1182 454 LINE",
"1190 562 LINE",
"781 562 LINE",
"781 454 LINE"
);
},
{
closed = 1;
nodes = (
"1301 890 LINE",
"1320 990 LINE",
"732 990 LINE",
"732 890 LINE"
);
},
{
closed = 1;
nodes = (
"1338 723 LINE",
"1344 804 OFFCURVE",
"1338 900 OFFCURVE",
"1320 990 CURVE",
"1169 933 LINE",
"1259 723 LINE"
);
}
);
width = 1424;
},
{
layerId = "106916A4-8C74-485A-AD82-F5ABB18EF495";
paths = (
{
closed = 1;
nodes = (
"609 -8 OFFCURVE",
"699 0 OFFCURVE",
"797 0 CURVE",
"797 130 LINE",
"709 130 OFFCURVE",
"626 122 OFFCURVE",
"573 122 CURVE SMOOTH",
"407 122 OFFCURVE",
"314 269 OFFCURVE",
"314 534 CURVE SMOOTH",
"314 759 OFFCURVE",
"383 868 OFFCURVE",
"525 868 CURVE SMOOTH",
"598 868 OFFCURVE",
"696 860 OFFCURVE",
"797 860 CURVE",
"797 990 LINE",
"699 990 OFFCURVE",
"609 998 OFFCURVE",
"549 998 CURVE SMOOTH",
"239 998 OFFCURVE",
"42 802 OFFCURVE",
"42 494 CURVE SMOOTH",
"42 187 OFFCURVE",
"239 -8 OFFCURVE",
"548 -8 CURVE SMOOTH"
);
},
{
closed = 1;
nodes = (
"1353 0 LINE",
"1329 130 LINE",
"702 130 LINE",
"702 0 LINE"
);
},
{
closed = 1;
nodes = (
"922 15 LINE",
"922 976 LINE",
"682 976 LINE",
"682 15 LINE"
);
},
{
closed = 1;
nodes = (
"1385 111 OFFCURVE",
"1401 224 OFFCURVE",
"1398 315 CURVE",
"1291 315 LINE",
"1158 83 LINE",
"1353 0 LINE"
);
},
{
closed = 1;
nodes = (
"1205 441 LINE",
"1215 575 LINE",
"793 575 LINE",
"793 441 LINE"
);
},
{
closed = 1;
nodes = (
"1323 860 LINE",
"1342 990 LINE",
"702 990 LINE",
"702 860 LINE"
);
},
{
closed = 1;
nodes = (
"1364 693 LINE",
"1370 788 OFFCURVE",
"1363 894 OFFCURVE",
"1342 990 CURVE",
"1155 903 LINE",
"1255 693 LINE"
);
}
);
width = 1440;
}
);
leftKerningGroup = O;
leftMetricsKey = O;
rightKerningGroup = E;
rightMetricsKey = E;
unicode = 0152;
},
{
color = 4;
glyphname = P;
layers = (
{
components = (
{
name = _serif.cap;
transform = "{-1, 0, 0, -1, 507, 990}";
}
);
layerId = "8D9E6227-A940-4CC2-85D6-810E74B12C63";
paths = (
{
closed = 1;
nodes = (
"695 350 OFFCURVE",
"851 483 OFFCURVE",
"851 691 CURVE SMOOTH",
"851 883 OFFCURVE",
"720 990 OFFCURVE",
"484 990 CURVE SMOOTH",
"235 990 LINE",
"235 890 LINE",
"475 890 LINE SMOOTH",
"603 890 OFFCURVE",
"665 818 OFFCURVE",
"665 669 CURVE SMOOTH",
"665 517 OFFCURVE",
"601 444 OFFCURVE",
"467 444 CURVE SMOOTH",
"401 444 OFFCURVE",
"325 448 OFFCURVE",
"250 456 CURVE",
"235 362 LINE",
"311 354 OFFCURVE",
"386 350 OFFCURVE",
"449 350 CURVE SMOOTH"
);
},
{
closed = 1;
nodes = (
"338 15 LINE",
"338 976 LINE",
"170 976 LINE",
"170 15 LINE"
);
},
{
closed = 1;
nodes = (
"479 0 LINE",
"484 66 LINE",
"316 95 LINE",
"338 28 LINE",
"338 168 LINE",
"170 168 LINE",
"170 28 LINE",
"190 103 LINE",
"143 92 OFFCURVE",
"97 78 OFFCURVE",
"63 64 CURVE",
"58 0 LINE"
);
}
);
width = 893;
},
{
components = (
{
name = _serif.cap;
transform = "{-1, 0, 0, -1, 515, 990}";
}
);
layerId = "106916A4-8C74-485A-AD82-F5ABB18EF495";
paths = (
{
closed = 1;
nodes = (
"732 320 OFFCURVE",
"903 458 OFFCURVE",
"903 676 CURVE SMOOTH",
"903 878 OFFCURVE",
"758 990 OFFCURVE",
"498 990 CURVE SMOOTH",
"249 990 LINE",
"249 860 LINE",
"489 860 LINE SMOOTH",
"589 860 OFFCURVE",
"637 793 OFFCURVE",
"637 654 CURVE SMOOTH",
"637 512 OFFCURVE",
"586 444 OFFCURVE",
"481 444 CURVE SMOOTH",
"415 444 OFFCURVE",
"339 448 OFFCURVE",
"264 456 CURVE",
"249 332 LINE",
"325 324 OFFCURVE",
"400 320 OFFCURVE",
"463 320 CURVE SMOOTH"
);
},
{
closed = 1;
nodes = (
"382 15 LINE",
"382 976 LINE",
"142 976 LINE",
"142 15 LINE"
);
},
{
closed = 1;
nodes = (
"503 0 LINE",
"510 90 LINE",
"347 117 LINE",
"382 25 LINE",
"382 182 LINE",
"142 182 LINE",
"142 25 LINE",
"180 127 LINE",
"133 116 OFFCURVE",
"87 102 OFFCURVE",
"55 88 CURVE",
"48 0 LINE"
);
}
);
width = 925;
}
);
leftKerningGroup = H;
leftMetricsKey = H;
rightKerningGroup = P;
unicode = 0050;
},
{
color = 4;
glyphname = Thorn;
layers = (
{
layerId = "8D9E6227-A940-4CC2-85D6-810E74B12C63";
paths = (
{
closed = 1;
nodes = (
"691 198 OFFCURVE",
"851 323 OFFCURVE",
"851 519 CURVE SMOOTH",
"851 698 OFFCURVE",
"716 798 OFFCURVE",
"474 798 CURVE SMOOTH",
"215 798 LINE",
"215 698 LINE",
"465 698 LINE SMOOTH",
"600 698 OFFCURVE",
"665 633 OFFCURVE",
"665 497 CURVE SMOOTH",
"665 359 OFFCURVE",
"597 292 OFFCURVE",
"457 292 CURVE SMOOTH",
"391 292 OFFCURVE",
"315 296 OFFCURVE",
"240 304 CURVE",
"225 210 LINE",
"301 202 OFFCURVE",
"376 198 OFFCURVE",
"439 198 CURVE SMOOTH"
);
},
{
closed = 1;
nodes = (
"457 0 LINE",
"462 66 LINE",
"306 95 LINE",
"326 28 LINE",
"326 168 LINE",
"160 168 LINE",
"160 28 LINE",
"180 102 LINE",
"137 94 OFFCURVE",
"95 80 OFFCURVE",
"63 64 CURVE",
"58 0 LINE"
);
},
{
closed = 1;
nodes = (
"326 15 LINE",
"326 976 LINE",
"160 976 LINE",
"160 15 LINE"
);
},
{
closed = 1;
nodes = (
"326 822 LINE",
"326 962 LINE",
"303 888 LINE",
"362 899 OFFCURVE",
"416 913 OFFCURVE",
"453 926 CURVE",
"458 990 LINE",
"59 990 LINE",
"54 924 LINE",
"176 895 LINE",
"160 962 LINE",
"160 822 LINE"
);
}
);
width = 873;
},
{
layerId = "106916A4-8C74-485A-AD82-F5ABB18EF495";
paths = (
{
closed = 1;
nodes = (
"728 183 OFFCURVE",
"903 314 OFFCURVE",
"903 519 CURVE SMOOTH",
"903 708 OFFCURVE",
"755 813 OFFCURVE",
"488 813 CURVE SMOOTH",
"239 813 LINE",
"239 683 LINE",
"479 683 LINE SMOOTH",
"586 683 OFFCURVE",
"637 622 OFFCURVE",
"637 497 CURVE SMOOTH",
"637 369 OFFCURVE",
"583 307 OFFCURVE",
"471 307 CURVE SMOOTH",
"405 307 OFFCURVE",
"329 311 OFFCURVE",
"254 319 CURVE",
"239 195 LINE",
"315 187 OFFCURVE",
"390 183 OFFCURVE",
"453 183 CURVE SMOOTH"
);
},
{
closed = 1;
nodes = (
"481 0 LINE",
"488 90 LINE",
"331 118 LINE",
"368 25 LINE",
"368 182 LINE",
"132 182 LINE",
"132 25 LINE",
"170 127 LINE",
"127 117 OFFCURVE",
"86 104 OFFCURVE",
"55 88 CURVE",
"48 0 LINE"
);
},
{
closed = 1;
nodes = (
"368 15 LINE",
"368 976 LINE",
"132 976 LINE",
"132 15 LINE"
);
},
{
closed = 1;
nodes = (
"368 788 LINE",
"368 965 LINE",
"327 865 LINE",
"385 875 OFFCURVE",
"438 888 OFFCURVE",
"477 902 CURVE",
"484 990 LINE",
"51 990 LINE",
"44 900 LINE",
"167 871 LINE",
"132 965 LINE",
"132 808 LINE"
);
}
);
width = 905;
}
);
leftKerningGroup = H;
leftMetricsKey = H;
rightKerningGroup = O;
rightMetricsKey = "=P-20";
unicode = 00DE;
},
{
color = 4;
glyphname = Q;
layers = (
{
components = (
{
name = O;
}
);
layerId = "8D9E6227-A940-4CC2-85D6-810E74B12C63";
paths = (
{
closed = 1;
nodes = (
"1041 -266 OFFCURVE",
"1135 -245 OFFCURVE",
"1197 -207 CURVE",
"1204 -123 LINE",
"1142 -147 OFFCURVE",
"1064 -160 OFFCURVE",
"992 -160 CURVE SMOOTH",
"815 -160 OFFCURVE",
"703 -81 OFFCURVE",
"649 82 CURVE",
"481 17 LINE",
"555 -165 OFFCURVE",
"719 -266 OFFCURVE",
"940 -266 CURVE SMOOTH"
);
}
);
width = 1073;
},
{
components = (
{
name = O;
transform = "{1, 0, 0, 1, 4, 0}";
}
);
layerId = "106916A4-8C74-485A-AD82-F5ABB18EF495";
paths = (
{
closed = 1;
nodes = (
"1067 -294 OFFCURVE",
"1176 -270 OFFCURVE",
"1237 -233 CURVE",
"1246 -115 LINE",
"1182 -136 OFFCURVE",
"1108 -148 OFFCURVE",
"1044 -148 CURVE SMOOTH",
"872 -148 OFFCURVE",
"760 -62 OFFCURVE",
"699 115 CURVE",
"457 31 LINE",
"538 -178 OFFCURVE",
"717 -294 OFFCURVE",
"958 -294 CURVE SMOOTH"
);
}
);
width = 1098;
}
);
leftKerningGroup = O;
rightKerningGroup = O;
unicode = 0051;
},
{
color = 4;
glyphname = R;
layers = (
{
anchors = (
{
name = bottom;
position = "{520, 0}";
},
{
name = top;
position = "{454, 990}";
}
);
components = (
{
name = _serif.cap;
transform = "{-1, 0, 0, -1, 507, 990}";
}
);
layerId = "8D9E6227-A940-4CC2-85D6-810E74B12C63";
paths = (
{
closed = 1;
nodes = (
"941 0 LINE",
"946 70 LINE",
"812 97 LINE",
"882 65 LINE",
"578 449 LINE",
"417 406 LINE",
"724 0 LINE"
);
},
{
closed = 1;
nodes = (
"453 388 OFFCURVE",
"477 389 OFFCURVE",
"499 392 CURVE",
"562 409 LINE",
"730 429 OFFCURVE",
"836 545 OFFCURVE",
"836 707 CURVE SMOOTH",
"836 889 OFFCURVE",
"703 990 OFFCURVE",
"464 990 CURVE SMOOTH",
"235 990 LINE",
"235 890 LINE",
"455 890 LINE SMOOTH",
"588 890 OFFCURVE",
"652 823 OFFCURVE",
"652 685 CURVE SMOOTH",
"652 545 OFFCURVE",
"585 478 OFFCURVE",
"447 478 CURVE SMOOTH",
"381 478 OFFCURVE",
"305 482 OFFCURVE",
"230 490 CURVE",
"215 400 LINE",
"291 392 OFFCURVE",
"366 388 OFFCURVE",
"429 388 CURVE SMOOTH"
);
},
{
closed = 1;
nodes = (
"338 15 LINE",
"338 976 LINE",
"170 976 LINE",
"170 15 LINE"
);
},
{
closed = 1;
nodes = (
"441 0 LINE",
"446 66 LINE",
"322 95 LINE",
"338 28 LINE",
"338 168 LINE",
"170 168 LINE",
"170 28 LINE",
"190 103 LINE",
"143 92 OFFCURVE",
"97 78 OFFCURVE",
"63 64 CURVE",
"58 0 LINE"
);
}
);
width = 964;
},
{
anchors = (
{
name = bottom;
position = "{534, 0}";
},
{
name = top;
position = "{468, 990}";
}
);
components = (
{
name = _serif.cap;
transform = "{-1, 0, 0, -1, 515, 990}";
}
);
layerId = "106916A4-8C74-485A-AD82-F5ABB18EF495";
paths = (
{
closed = 1;
nodes = (
"991 0 LINE",
"998 94 LINE",
"864 119 LINE",
"954 89 LINE",
"650 473 LINE",
"411 406 LINE",
"718 0 LINE"
);
},
{
closed = 1;
nodes = (
"467 368 OFFCURVE",
"491 369 OFFCURVE",
"513 372 CURVE",
"576 399 LINE",
"777 430 OFFCURVE",
"888 538 OFFCURVE",
"888 701 CURVE SMOOTH",
"888 887 OFFCURVE",
"742 990 OFFCURVE",
"478 990 CURVE SMOOTH",
"249 990 LINE",
"249 860 LINE",
"469 860 LINE SMOOTH",
"574 860 OFFCURVE",
"624 801 OFFCURVE",
"624 678 CURVE SMOOTH",
"624 550 OFFCURVE",
"571 488 OFFCURVE",
"461 488 CURVE SMOOTH",
"395 488 OFFCURVE",
"319 492 OFFCURVE",
"244 500 CURVE",
"229 380 LINE",
"305 372 OFFCURVE",
"380 368 OFFCURVE",
"443 368 CURVE SMOOTH"
);
},
{
closed = 1;
nodes = (
"382 15 LINE",
"382 976 LINE",
"142 976 LINE",
"142 15 LINE"
);
},
{
closed = 1;
nodes = (
"465 0 LINE",
"472 90 LINE",
"349 119 LINE",
"382 25 LINE",
"382 182 LINE",
"142 182 LINE",
"142 25 LINE",
"180 127 LINE",
"133 116 OFFCURVE",
"87 102 OFFCURVE",
"55 88 CURVE",
"48 0 LINE"
);
}
);
width = 996;
}
);
leftKerningGroup = H;
leftMetricsKey = H;
rightKerningGroup = R;
unicode = 0052;
},
{
color = 4;
glyphname = S;
layers = (
{
anchors = (
{
name = bottom;
position = "{398, 0}";
},
{
name = top;
position = "{394, 990}";
}
);
guideLines = (
{
angle = 66.2838;
position = "{324, 425}";
}
);
layerId = "8D9E6227-A940-4CC2-85D6-810E74B12C63";
paths = (
{
closed = 1;
nodes = (
"600 -16 OFFCURVE",
"745 101 OFFCURVE",
"745 286 CURVE SMOOTH",
"745 423 OFFCURVE",
"665 514 OFFCURVE",
"498 567 CURVE SMOOTH",
"400 598 LINE SMOOTH",
"282 635 OFFCURVE",
"233 685 OFFCURVE",
"233 769 CURVE SMOOTH",
"233 861 OFFCURVE",
"291 912 OFFCURVE",
"396 912 CURVE SMOOTH",
"464 912 OFFCURVE",
"543 890 OFFCURVE",
"618 851 CURVE",
"522 933 LINE",
"610 729 LINE",
"687 729 LINE",
"692 794 OFFCURVE",
"688 871 OFFCURVE",
"677 946 CURVE",
"602 985 OFFCURVE",
"510 1006 OFFCURVE",
"419 1006 CURVE SMOOTH",
"206 1006 OFFCURVE",
"71 891 OFFCURVE",
"71 711 CURVE SMOOTH",
"71 571 OFFCURVE",
"153 479 OFFCURVE",
"324 425 CURVE SMOOTH",
"422 394 LINE SMOOTH",
"533 360 OFFCURVE",
"579 312 OFFCURVE",
"579 231 CURVE SMOOTH",
"579 133 OFFCURVE",
"513 78 OFFCURVE",
"395 78 CURVE SMOOTH",
"321 78 OFFCURVE",
"242 100 OFFCURVE",
"173 139 CURVE",
"251 64 LINE",
"143 315 LINE",
"70 315 LINE",
"63 252 OFFCURVE",
"66 163 OFFCURVE",
"80 68 CURVE",
"152 14 OFFCURVE",
"256 -16 OFFCURVE",
"372 -16 CURVE SMOOTH"
);
}
);
width = 813;
},
{
anchors = (
{
name = bottom;
position = "{418, 0}";
},
{
name = top;
position = "{402, 990}";
}
);
guideLines = (
{
angle = 66.2838;
position = "{329, 395}";
}
);
layerId = "106916A4-8C74-485A-AD82-F5ABB18EF495";
paths = (
{
closed = 1;
nodes = (
"630 -16 OFFCURVE",
"787 109 OFFCURVE",
"787 306 CURVE SMOOTH",
"787 449 OFFCURVE",
"704 543 OFFCURVE",
"531 597 CURVE SMOOTH",
"415 633 LINE SMOOTH",
"309 666 OFFCURVE",
"265 707 OFFCURVE",
"265 773 CURVE SMOOTH",
"265 844 OFFCURVE",
"315 884 OFFCURVE",
"406 884 CURVE SMOOTH",
"474 884 OFFCURVE",
"553 862 OFFCURVE",
"628 823 CURVE",
"524 897 LINE",
"622 693 LINE",
"729 693 LINE",
"734 763 OFFCURVE",
"730 851 OFFCURVE",
"717 940 CURVE",
"635 982 OFFCURVE",
"532 1006 OFFCURVE",
"429 1006 CURVE SMOOTH",
"197 1006 OFFCURVE",
"49 884 OFFCURVE",
"49 693 CURVE SMOOTH",
"49 547 OFFCURVE",
"134 450 OFFCURVE",
"311 395 CURVE SMOOTH",
"427 359 LINE SMOOTH",
"526 328 OFFCURVE",
"567 289 OFFCURVE",
"567 225 CURVE SMOOTH",
"567 149 OFFCURVE",
"509 106 OFFCURVE",
"405 106 CURVE SMOOTH",
"331 106 OFFCURVE",
"252 128 OFFCURVE",
"183 167 CURVE",
"269 100 LINE",
"151 351 LINE",
"48 351 LINE",
"40 279 OFFCURVE",
"44 180 OFFCURVE",
"60 74 CURVE",
"140 16 OFFCURVE",
"255 -16 OFFCURVE",
"382 -16 CURVE SMOOTH"
);
}
);
width = 833;
}
);
leftKerningGroup = S;
leftMetricsKey = "=s+6";
rightKerningGroup = S;
rightMetricsKey = "=s+6";
unicode = 0053;
},
{
color = 4;
glyphname = Germandbls;
layers = (
{
layerId = "8D9E6227-A940-4CC2-85D6-810E74B12C63";
paths = (
{
closed = 1;
nodes = (
"309 6 LINE",
"309 606 LINE SMOOTH",
"309 804 OFFCURVE",
"392 914 OFFCURVE",
"541 914 CURVE SMOOTH",
"607 914 OFFCURVE",
"712 893 OFFCURVE",
"812 859 CURVE",
"879 833 LINE",
"880 877 OFFCURVE",
"877 923 OFFCURVE",
"871 960 CURVE",
"784 990 OFFCURVE",
"655 1012 OFFCURVE",
"564 1012 CURVE SMOOTH",
"306 1012 OFFCURVE",
"142 831 OFFCURVE",
"142 546 CURVE SMOOTH",
"142 6 LINE"
);
},
{
closed = 1;
nodes = (
"309 0 LINE",
"309 168 LINE",
"142 168 LINE",
"142 28 LINE",
"162 103 LINE",
"115 92 OFFCURVE",
"69 78 OFFCURVE",
"35 64 CURVE",
"30 0 LINE"
);
},
{
closed = 1;
nodes = (
"865 -16 OFFCURVE",
"980 70 OFFCURVE",
"980 226 CURVE SMOOTH",
"980 459 OFFCURVE",
"734 441 OFFCURVE",
"734 613 CURVE SMOOTH",
"734 690 OFFCURVE",
"781 761 OFFCURVE",
"879 833 CURVE",
"830 936 LINE",
"665 841 OFFCURVE",
"574 710 OFFCURVE",
"574 568 CURVE SMOOTH",
"574 340 OFFCURVE",
"814 347 OFFCURVE",
"814 180 CURVE SMOOTH",
"814 111 OFFCURVE",
"771 78 OFFCURVE",
"682 78 CURVE SMOOTH",
"608 78 OFFCURVE",
"529 100 OFFCURVE",
"460 139 CURVE",
"614 0 LINE",
"506 251 LINE",
"433 251 LINE",
"427 198 OFFCURVE",
"430 109 OFFCURVE",
"443 24 CURVE",
"501 -2 OFFCURVE",
"579 -16 OFFCURVE",
"659 -16 CURVE SMOOTH"
);
}
);
width = 1048;
},
{
layerId = "106916A4-8C74-485A-AD82-F5ABB18EF495";
paths = (
{
closed = 1;
nodes = (
"353 6 LINE",
"353 600 LINE SMOOTH",
"353 783 OFFCURVE",
"422 884 OFFCURVE",
"545 884 CURVE SMOOTH",
"606 884 OFFCURVE",
"725 860 OFFCURVE",
"850 821 CURVE",
"917 803 LINE",
"918 858 OFFCURVE",
"915 909 OFFCURVE",
"909 948 CURVE",
"801 987 OFFCURVE",
"669 1012 OFFCURVE",
"570 1012 CURVE SMOOTH",
"291 1012 OFFCURVE",
"114 817 OFFCURVE",
"114 510 CURVE SMOOTH",
"114 6 LINE"
);
},
{
closed = 1;
nodes = (
"353 0 LINE",
"353 182 LINE",
"114 182 LINE",
"114 25 LINE",
"152 127 LINE",
"105 116 OFFCURVE",
"59 102 OFFCURVE",
"27 88 CURVE",
"20 0 LINE"
);
},
{
closed = 1;
nodes = (
"891 -16 OFFCURVE",
"1018 79 OFFCURVE",
"1018 251 CURVE SMOOTH",
"1018 488 OFFCURVE",
"778 476 OFFCURVE",
"778 637 CURVE SMOOTH",
"778 707 OFFCURVE",
"823 761 OFFCURVE",
"917 803 CURVE",
"861 916 LINE",
"659 841 OFFCURVE",
"562 728 OFFCURVE",
"562 569 CURVE SMOOTH",
"562 322 OFFCURVE",
"796 322 OFFCURVE",
"796 186 CURVE SMOOTH",
"796 133 OFFCURVE",
"760 108 OFFCURVE",
"686 108 CURVE SMOOTH",
"616 108 OFFCURVE",
"536 130 OFFCURVE",
"464 169 CURVE",
"664 24 LINE",
"546 275 LINE",
"443 275 LINE",
"437 204 OFFCURVE",
"441 112 OFFCURVE",
"455 18 CURVE",
"509 -4 OFFCURVE",
"583 -16 OFFCURVE",
"663 -16 CURVE SMOOTH"
);
}
);
width = 1064;
}
);
leftKerningGroup = Germandbls;
leftMetricsKey = "=U-10";
rightKerningGroup = S;
rightMetricsKey = S;
unicode = 1E9E;
},
{
color = 4;
glyphname = Schwa;
layers = (
{
layerId = "8D9E6227-A940-4CC2-85D6-810E74B12C63";
paths = (
{
closed = 1;
nodes = (
"751 -18 OFFCURVE",
"933 179 OFFCURVE",
"933 490 CURVE SMOOTH",
"933 807 OFFCURVE",
"751 1008 OFFCURVE",
"465 1008 CURVE SMOOTH",
"351 1008 OFFCURVE",
"214 973 OFFCURVE",
"117 917 CURVE",
"185 831 LINE",
"268 880 OFFCURVE",
"364 907 OFFCURVE",
"452 907 CURVE SMOOTH",
"650 907 OFFCURVE",
"745 764 OFFCURVE",
"745 467 CURVE SMOOTH",
"745 206 OFFCURVE",
"665 80 OFFCURVE",
"498 80 CURVE SMOOTH",
"332 80 OFFCURVE",
"263 198 OFFCURVE",
"263 482 CURVE",
"70 511 LINE",
"65 486 OFFCURVE",
"64 472 OFFCURVE",
"64 445 CURVE SMOOTH",
"64 147 OFFCURVE",
"207 -18 OFFCURVE",
"464 -18 CURVE SMOOTH"
);
},
{
closed = 1;
nodes = (
"884 418 LINE",
"884 511 LINE",
"70 511 LINE",
"93 418 LINE"
);
},
{
closed = 1;
nodes = (
"183 709 LINE",
"279 933 LINE",
"117 917 LINE",
"108 858 OFFCURVE",
"105 784 OFFCURVE",
"110 709 CURVE"
);
}
);
userData = {
RMXScaler = {
height = 134;
verticalShift = 6;
weight = -6;
width = 145;
};
};
width = 1001;
},
{
layerId = "106916A4-8C74-485A-AD82-F5ABB18EF495";
paths = (
{
closed = 1;
nodes = (
"785 -18 OFFCURVE",
"982 183 OFFCURVE",
"982 500 CURVE SMOOTH",
"982 811 OFFCURVE",
"786 1008 OFFCURVE",
"477 1008 CURVE SMOOTH",
"346 1008 OFFCURVE",
"197 970 OFFCURVE",
"98 910 CURVE",
"188 802 LINE",
"272 850 OFFCURVE",
"366 876 OFFCURVE",
"450 876 CURVE SMOOTH",
"628 876 OFFCURVE",
"714 737 OFFCURVE",
"714 449 CURVE SMOOTH",
"714 220 OFFCURVE",
"647 110 OFFCURVE",
"508 110 CURVE SMOOTH",
"368 110 OFFCURVE",
"310 219 OFFCURVE",
"310 482 CURVE",
"48 528 LINE",
"43 503 OFFCURVE",
"42 472 OFFCURVE",
"42 446 CURVE SMOOTH",
"42 148 OFFCURVE",
"197 -18 OFFCURVE",
"476 -18 CURVE SMOOTH"
);
},
{
closed = 1;
nodes = (
"888 415 LINE",
"888 528 LINE",
"48 528 LINE",
"70 415 LINE"
);
},
{
closed = 1;
nodes = (
"192 673 LINE",
"298 897 LINE",
"98 910 LINE",
"87 844 OFFCURVE",
"84 760 OFFCURVE",
"89 673 CURVE"
);
}
);
userData = {
RMXScaler = {
height = 130.2;
verticalShift = 5;
weight = -2;
width = 142.2;
};
};
width = 1024;
}
);
leftKerningGroup = O;
leftMetricsKey = "=schwa+6";
rightKerningGroup = O;
rightMetricsKey = "=schwa+6";
unicode = 018F;
userData = {
RMXScaler = {
source = schwa;
};
};
},
{
color = 4;
glyphname = T;
layers = (
{
anchors = (
{
name = bar;
position = "{460, 473}";
},
{
name = bottom;
position = "{470, 0}";
},
{
name = top;
position = "{460, 990}";
}
);
layerId = "8D9E6227-A940-4CC2-85D6-810E74B12C63";
paths = (
{
closed = 1;
nodes = (
"544 15 LINE",
"544 976 LINE",
"376 976 LINE",
"376 15 LINE"
);
},
{
closed = 1;
nodes = (
"101 695 LINE",
"204 933 LINE",
"49 990 LINE",
"31 900 OFFCURVE",
"25 795 OFFCURVE",
"33 695 CURVE"
);
},
{
closed = 1;
nodes = (
"835 890 LINE",
"871 990 LINE",
"49 990 LINE",
"67 890 LINE"
);
},
{
closed = 1;
nodes = (
"887 695 LINE",
"895 795 OFFCURVE",
"889 900 OFFCURVE",
"871 990 CURVE",
"716 933 LINE",
"819 695 LINE"
);
},
{
closed = 1;
nodes = (
"671 0 LINE",
"676 66 LINE",
"525 95 LINE",
"544 28 LINE",
"544 168 LINE",
"376 168 LINE",
"376 28 LINE",
"396 102 LINE",
"344 92 OFFCURVE",
"293 79 OFFCURVE",
"253 64 CURVE",
"248 0 LINE"
);
}
);
width = 920;
},
{
anchors = (
{
name = bar;
position = "{464, 470}";
},
{
name = bottom;
position = "{474, 0}";
},
{
name = top;
position = "{464, 990}";
}
);
layerId = "106916A4-8C74-485A-AD82-F5ABB18EF495";
paths = (
{
closed = 1;
nodes = (
"584 15 LINE",
"584 976 LINE",
"344 976 LINE",
"344 15 LINE"
);
},
{
closed = 1;
nodes = (
"121 665 LINE",
"234 903 LINE",
"40 990 LINE",
"20 889 OFFCURVE",
"14 773 OFFCURVE",
"23 665 CURVE"
);
},
{
closed = 1;
nodes = (
"853 860 LINE",
"888 990 LINE",
"40 990 LINE",
"57 860 LINE"
);
},
{
closed = 1;
nodes = (
"905 665 LINE",
"914 773 OFFCURVE",
"908 889 OFFCURVE",
"888 990 CURVE",
"694 903 LINE",
"807 665 LINE"
);
},
{
closed = 1;
nodes = (
"691 0 LINE",
"698 90 LINE",
"549 118 LINE",
"584 25 LINE",
"584 182 LINE",
"344 182 LINE",
"344 25 LINE",
"382 124 LINE",
"330 116 OFFCURVE",
"279 104 OFFCURVE",
"241 88 CURVE",
"234 0 LINE"
);
}
);
width = 928;
}
);
leftKerningGroup = T;
rightKerningGroup = T;
unicode = 0054;
},
{
color = 4;
glyphname = U;
layers = (
{
anchors = (
{
name = bottom;
position = "{528, 0}";
},
{
name = ogonek;
position = "{708, 0}";
},
{
name = top;
position = "{539, 990}";
}
);
layerId = "8D9E6227-A940-4CC2-85D6-810E74B12C63";
paths = (
{
closed = 1;
nodes = (
"745 -17 OFFCURVE",
"890 102 OFFCURVE",
"890 289 CURVE",
"764 310 LINE",
"764 176 OFFCURVE",
"684 101 OFFCURVE",
"541 101 CURVE SMOOTH",
"398 101 OFFCURVE",
"318 176 OFFCURVE",
"318 310 CURVE",
"146 289 LINE",
"146 102 OFFCURVE",
"291 -17 OFFCURVE",
"518 -17 CURVE SMOOTH"
);
},
{
closed = 1;
nodes = (
"318 310 LINE",
"318 976 LINE",
"146 976 LINE",
"146 289 LINE"
);
},
{
closed = 1;
nodes = (
"318 822 LINE",
"318 962 LINE",
"295 887 LINE",
"357 900 OFFCURVE",
"408 914 OFFCURVE",
"439 926 CURVE",
"444 990 LINE",
"45 990 LINE",
"40 924 LINE",
"161 895 LINE",
"146 962 LINE",
"146 822 LINE"
);
},
{
closed = 1;
nodes = (
"890 976 LINE",
"764 976 LINE",
"764 310 LINE",
"890 289 LINE"
);
},
{
closed = 1;
nodes = (
"890 822 LINE",
"890 962 LINE",
"871 887 LINE",
"917 898 OFFCURVE",
"958 912 OFFCURVE",
"987 926 CURVE",
"992 990 LINE",
"639 990 LINE",
"634 924 LINE",
"783 895 LINE",
"764 962 LINE",
"764 822 LINE"
);
}
);
width = 1032;
},
{
anchors = (
{
name = bottom;
position = "{536, 0}";
},
{
name = ogonek;
position = "{716, 0}";
},
{
name = top;
position = "{547, 990}";
}
);
layerId = "106916A4-8C74-485A-AD82-F5ABB18EF495";
paths = (
{
closed = 1;
nodes = (
"775 -17 OFFCURVE",
"934 102 OFFCURVE",
"934 289 CURVE",
"758 320 LINE",
"758 205 OFFCURVE",
"686 141 OFFCURVE",
"559 141 CURVE SMOOTH",
"432 141 OFFCURVE",
"362 205 OFFCURVE",
"362 320 CURVE",
"118 289 LINE",
"118 102 OFFCURVE",
"277 -17 OFFCURVE",
"526 -17 CURVE SMOOTH"
);
},
{
closed = 1;
nodes = (
"362 320 LINE",
"362 976 LINE",
"118 976 LINE",
"118 289 LINE"
);
},
{
closed = 1;
nodes = (
"362 808 LINE",
"362 965 LINE",
"324 865 LINE",
"388 879 OFFCURVE",
"438 893 OFFCURVE",
"463 902 CURVE",
"470 990 LINE",
"37 990 LINE",
"30 900 LINE",
"153 870 LINE",
"118 965 LINE",
"118 808 LINE"
);
},
{
closed = 1;
nodes = (
"934 976 LINE",
"758 976 LINE",
"758 320 LINE",
"934 289 LINE"
);
},
{
closed = 1;
nodes = (
"934 808 LINE",
"934 965 LINE",
"896 862 LINE",
"945 875 OFFCURVE",
"986 889 OFFCURVE",
"1011 902 CURVE",
"1018 990 LINE",
"653 990 LINE",
"646 900 LINE",
"793 872 LINE",
"758 965 LINE",
"758 808 LINE"
);
}
);
width = 1048;
}
);
leftKerningGroup = U;
leftMetricsKey = "=H-14";
rightKerningGroup = U;
rightMetricsKey = "=H-14";
unicode = 0055;
},
{
color = 4;
glyphname = Uhorn;
layers = (
{
anchors = (
{
name = bottom;
position = "{528, 0}";
},
{
name = ogonek;
position = "{708, 0}";
},
{
name = top;
position = "{539, 990}";
}
);
layerId = "8D9E6227-A940-4CC2-85D6-810E74B12C63";
paths = (
{
closed = 1;
nodes = (
"745 -17 OFFCURVE",
"890 102 OFFCURVE",
"890 289 CURVE",
"764 310 LINE",
"764 176 OFFCURVE",
"684 101 OFFCURVE",
"541 101 CURVE SMOOTH",
"398 101 OFFCURVE",
"318 176 OFFCURVE",
"318 310 CURVE",
"146 289 LINE",
"146 102 OFFCURVE",
"291 -17 OFFCURVE",
"518 -17 CURVE SMOOTH"
);
},
{
closed = 1;
nodes = (
"318 310 LINE",
"318 976 LINE",
"146 976 LINE",
"146 289 LINE"
);
},
{
closed = 1;
nodes = (
"318 822 LINE",
"318 962 LINE",
"295 887 LINE",
"357 900 OFFCURVE",
"408 914 OFFCURVE",
"439 926 CURVE",
"444 990 LINE",
"45 990 LINE",
"40 924 LINE",
"161 895 LINE",
"146 962 LINE",
"146 822 LINE"
);
},
{
closed = 1;
nodes = (
"890 976 LINE",
"764 976 LINE",
"764 310 LINE",
"890 289 LINE"
);
},
{
closed = 1;
nodes = (
"890 822 LINE",
"890 962 LINE",
"871 907 LINE",
"917 918 OFFCURVE",
"958 932 OFFCURVE",
"987 946 CURVE",
"992 990 LINE",
"639 990 LINE",
"634 924 LINE",
"783 895 LINE",
"764 962 LINE",
"764 822 LINE"
);
},
{
closed = 1;
nodes = (
"1020 925 OFFCURVE",
"1102 999 OFFCURVE",
"1102 1101 CURVE SMOOTH",
"1102 1152 OFFCURVE",
"1082 1203 OFFCURVE",
"1047 1244 CURVE",
"1001 1227 OFFCURVE",
"950 1199 OFFCURVE",
"912 1167 CURVE",
"942 1132 OFFCURVE",
"956 1100 OFFCURVE",
"956 1068 CURVE SMOOTH",
"956 1020 OFFCURVE",
"923 990 OFFCURVE",
"868 990 CURVE",
"872 893 LINE"
);
}
);
width = 1052;
},
{
anchors = (
{
name = bottom;
position = "{536, 0}";
},
{
name = ogonek;
position = "{716, 0}";
},
{
name = top;
position = "{547, 990}";
}
);
layerId = "106916A4-8C74-485A-AD82-F5ABB18EF495";
paths = (
{
closed = 1;
nodes = (
"775 -17 OFFCURVE",
"934 102 OFFCURVE",
"934 289 CURVE",
"758 320 LINE",
"758 205 OFFCURVE",
"686 141 OFFCURVE",
"559 141 CURVE SMOOTH",
"432 141 OFFCURVE",
"362 205 OFFCURVE",
"362 320 CURVE",
"118 289 LINE",
"118 102 OFFCURVE",
"277 -17 OFFCURVE",
"526 -17 CURVE SMOOTH"
);
},
{
closed = 1;
nodes = (
"362 320 LINE",
"362 976 LINE",
"118 976 LINE",
"118 289 LINE"
);
},
{
closed = 1;
nodes = (
"362 808 LINE",
"362 965 LINE",
"324 865 LINE",
"388 879 OFFCURVE",
"438 893 OFFCURVE",
"463 902 CURVE",
"470 990 LINE",
"37 990 LINE",
"30 900 LINE",
"153 870 LINE",
"118 965 LINE",
"118 808 LINE"
);
},
{
closed = 1;
nodes = (
"934 976 LINE",
"758 976 LINE",
"758 320 LINE",
"934 289 LINE"
);
},
{
closed = 1;
nodes = (
"934 808 LINE",
"934 965 LINE",
"898 894 LINE",
"947 907 OFFCURVE",
"988 921 OFFCURVE",
"1013 934 CURVE",
"1018 990 LINE",
"653 990 LINE",
"646 900 LINE",
"793 872 LINE",
"758 965 LINE",
"758 808 LINE"
);
},
{
closed = 1;
nodes = (
"1048 905 OFFCURVE",
"1140 989 OFFCURVE",
"1140 1104 CURVE SMOOTH",
"1140 1160 OFFCURVE",
"1119 1213 OFFCURVE",
"1082 1251 CURVE",
"1022 1229 OFFCURVE",
"963 1195 OFFCURVE",
"917 1156 CURVE",
"942 1127 OFFCURVE",
"954 1097 OFFCURVE",
"954 1065 CURVE SMOOTH",
"954 1017 OFFCURVE",
"927 990 OFFCURVE",
"878 990 CURVE",
"883 869 LINE"
);
}
);
width = 1068;
}
);
leftKerningGroup = U;
leftMetricsKey = U;
rightKerningGroup = U;
unicode = 01AF;
},
{
color = 4;
glyphname = Uogonek;
layers = (
{
components = (
{
name = U;
}
);
layerId = "8D9E6227-A940-4CC2-85D6-810E74B12C63";
paths = (
{
closed = 1;
nodes = (
"611 -343 OFFCURVE",
"662 -332 OFFCURVE",
"700 -311 CURVE",
"705 -237 LINE",
"669 -246 OFFCURVE",
"634 -251 OFFCURVE",
"610 -251 CURVE SMOOTH",
"557 -251 OFFCURVE",
"531 -228 OFFCURVE",
"531 -179 CURVE SMOOTH",
"531 -68 OFFCURVE",
"663 -5 OFFCURVE",
"713 18 CURVE SMOOTH",
"826 70 OFFCURVE",
"889 164 OFFCURVE",
"889 289 CURVE",
"713 61 LINE",
"507 7 OFFCURVE",
"393 -89 OFFCURVE",
"393 -209 CURVE SMOOTH",
"393 -295 OFFCURVE",
"453 -343 OFFCURVE",
"562 -343 CURVE SMOOTH"
);
}
);
width = 1032;
},
{
components = (
{
name = U;
}
);
layerId = "106916A4-8C74-485A-AD82-F5ABB18EF495";
paths = (
{
closed = 1;
nodes = (
"630 -349 OFFCURVE",
"684 -336 OFFCURVE",
"723 -312 CURVE",
"729 -227 LINE",
"693 -235 OFFCURVE",
"661 -239 OFFCURVE",
"640 -239 CURVE SMOOTH",
"593 -239 OFFCURVE",
"571 -217 OFFCURVE",
"571 -172 CURVE SMOOTH",
"571 -105 OFFCURVE",
"618 -39 OFFCURVE",
"724 10 CURVE SMOOTH",
"813 51 OFFCURVE",
"934 114 OFFCURVE",
"934 289 CURVE",
"711 47 LINE",
"501 3 OFFCURVE",
"385 -88 OFFCURVE",
"385 -209 CURVE SMOOTH",
"385 -299 OFFCURVE",
"451 -349 OFFCURVE",
"570 -349 CURVE SMOOTH"
);
}
);
width = 1048;
}
);
leftKerningGroup = U;
leftMetricsKey = U;
rightKerningGroup = U;
rightMetricsKey = U;
unicode = 0172;
},
{
color = 4;
glyphname = V;
layers = (
{
layerId = "8D9E6227-A940-4CC2-85D6-810E74B12C63";
paths = (
{
closed = 1;
nodes = (
"470 -9 OFFCURVE",
"526 -8 OFFCURVE",
"573 -1 CURVE",
"551 63 LINE",
"279 915 LINE",
"267 890 LINE",
"320 899 OFFCURVE",
"365 911 OFFCURVE",
"395 924 CURVE",
"400 990 LINE",
"14 990 LINE",
"9 924 LINE",
"140 896 LINE",
"96 925 LINE",
"415 -6 LINE"
);
},
{
closed = 1;
nodes = (
"573 -1 LINE",
"890 925 LINE",
"845 888 LINE",
"889 896 OFFCURVE",
"932 909 OFFCURVE",
"965 926 CURVE",
"970 990 LINE",
"643 990 LINE",
"638 924 LINE",
"772 895 LINE",
"763 925 LINE",
"463 0 LINE"
);
}
);
width = 986;
},
{
layerId = "106916A4-8C74-485A-AD82-F5ABB18EF495";
paths = (
{
closed = 1;
nodes = (
"450 -10 OFFCURVE",
"551 -8 OFFCURVE",
"613 -1 CURVE",
"581 62 LINE",
"325 891 LINE",
"303 866 LINE",
"358 876 OFFCURVE",
"403 888 OFFCURVE",
"429 900 CURVE",
"436 990 LINE",
"6 990 LINE",
"-1 900 LINE",
"126 876 LINE",
"68 901 LINE",
"375 -6 LINE"
);
},
{
closed = 1;
nodes = (
"613 -1 LINE",
"918 901 LINE",
"855 864 LINE",
"905 875 OFFCURVE",
"948 888 OFFCURVE",
"973 902 CURVE",
"980 990 LINE",
"650 990 LINE",
"643 900 LINE",
"783 873 LINE",
"758 901 LINE",
"476 0 LINE"
);
}
);
width = 986;
}
);
leftKerningGroup = V;
rightKerningGroup = V;
unicode = 0056;
},
{
color = 4;
glyphname = W;
layers = (
{
anchors = (
{
name = top;
position = "{753, 990}";
}
);
layerId = "8D9E6227-A940-4CC2-85D6-810E74B12C63";
paths = (
{
closed = 1;
nodes = (
"417 -10 OFFCURVE",
"478 -8 OFFCURVE",
"519 -1 CURVE",
"499 77 LINE",
"275 920 LINE",
"263 890 LINE",
"314 899 OFFCURVE",
"360 911 OFFCURVE",
"391 924 CURVE",
"396 990 LINE",
"14 990 LINE",
"9 924 LINE",
"145 895 LINE",
"97 926 LINE",
"369 -6 LINE"
);
},
{
closed = 1;
nodes = (
"795 966 LINE",
"684 967 LINE",
"417 14 LINE",
"519 -1 LINE"
);
},
{
closed = 1;
nodes = (
"987 -10 OFFCURVE",
"1049 -8 OFFCURVE",
"1090 -1 CURVE",
"1068 77 LINE",
"826 973 LINE",
"783 976 OFFCURVE",
"721 974 OFFCURVE",
"684 967 CURVE",
"690 903 LINE",
"940 -6 LINE"
);
},
{
closed = 1;
nodes = (
"1359 924 LINE",
"1316 889 LINE",
"1364 897 OFFCURVE",
"1406 910 OFFCURVE",
"1436 926 CURVE",
"1441 990 LINE",
"1119 990 LINE",
"1114 924 LINE",
"1248 895 LINE",
"1237 925 LINE",
"988 14 LINE",
"1090 -1 LINE"
);
}
);
width = 1457;
},
{
anchors = (
{
name = top;
position = "{757, 990}";
}
);
layerId = "106916A4-8C74-485A-AD82-F5ABB18EF495";
paths = (
{
closed = 1;
nodes = (
"404 -10 OFFCURVE",
"497 -8 OFFCURVE",
"559 -1 CURVE",
"530 76 LINE",
"321 896 LINE",
"299 866 LINE",
"354 876 OFFCURVE",
"399 888 OFFCURVE",
"425 900 CURVE",
"432 990 LINE",
"6 990 LINE",
"-1 900 LINE",
"126 876 LINE",
"69 902 LINE",
"329 -6 LINE"
);
},
{
closed = 1;
nodes = (
"806 956 LINE",
"669 957 LINE",
"432 14 LINE",
"559 -1 LINE"
);
},
{
closed = 1;
nodes = (
"983 -10 OFFCURVE",
"1076 -8 OFFCURVE",
"1138 -1 CURVE",
"1107 77 LINE",
"891 963 LINE",
"816 966 OFFCURVE",
"736 964 OFFCURVE",
"669 957 CURVE",
"685 894 LINE",
"908 -6 LINE"
);
},
{
closed = 1;
nodes = (
"1395 900 LINE",
"1334 864 LINE",
"1384 875 OFFCURVE",
"1427 888 OFFCURVE",
"1452 902 CURVE",
"1459 990 LINE",
"1135 990 LINE",
"1128 900 LINE",
"1267 873 LINE",
"1240 901 LINE",
"1009 15 LINE",
"1138 -1 LINE"
);
}
);
width = 1465;
}
);
leftKerningGroup = V;
leftMetricsKey = V;
rightKerningGroup = V;
rightMetricsKey = V;
unicode = 0057;
},
{
color = 4;
glyphname = X;
layers = (
{
layerId = "8D9E6227-A940-4CC2-85D6-810E74B12C63";
paths = (
{
closed = 1;
nodes = (
"966 0 LINE",
"971 66 LINE",
"838 95 LINE",
"904 57 LINE",
"581 534 LINE",
"438 466 LINE",
"693 74 LINE",
"697 100 LINE",
"644 91 OFFCURVE",
"599 79 OFFCURVE",
"569 66 CURVE",
"564 0 LINE"
);
},
{
closed = 1;
nodes = (
"366 0 LINE",
"371 66 LINE",
"237 95 LINE",
"239 63 LINE",
"562 520 LINE",
"431 525 LINE",
"91 62 LINE",
"151 102 LINE",
"107 94 OFFCURVE",
"64 81 OFFCURVE",
"31 64 CURVE",
"26 0 LINE"
);
},
{
closed = 1;
nodes = (
"569 528 LINE",
"314 916 LINE",
"310 890 LINE",
"363 899 OFFCURVE",
"408 911 OFFCURVE",
"436 924 CURVE",
"441 990 LINE",
"41 990 LINE",
"36 924 LINE",
"169 895 LINE",
"103 933 LINE",
"426 460 LINE"
);
},
{
closed = 1;
nodes = (
"892 928 LINE",
"832 888 LINE",
"876 896 OFFCURVE",
"919 909 OFFCURVE",
"952 926 CURVE",
"957 990 LINE",
"619 990 LINE",
"614 924 LINE",
"746 895 LINE",
"744 927 LINE",
"421 474 LINE",
"552 469 LINE"
);
}
);
width = 991;
},
{
layerId = "106916A4-8C74-485A-AD82-F5ABB18EF495";
paths = (
{
closed = 1;
nodes = (
"1004 0 LINE",
"1011 90 LINE",
"879 118 LINE",
"960 81 LINE",
"639 534 LINE",
"412 466 LINE",
"665 98 LINE",
"679 124 LINE",
"634 116 OFFCURVE",
"591 104 OFFCURVE",
"553 90 CURVE",
"546 0 LINE"
);
},
{
closed = 1;
nodes = (
"368 0 LINE",
"375 90 LINE",
"244 118 LINE",
"250 87 LINE",
"589 520 LINE",
"418 525 LINE",
"62 87 LINE",
"141 125 LINE",
"98 118 OFFCURVE",
"58 105 OFFCURVE",
"23 88 CURVE",
"16 0 LINE"
);
},
{
closed = 1;
nodes = (
"626 528 LINE",
"372 892 LINE",
"358 866 LINE",
"403 874 OFFCURVE",
"446 886 OFFCURVE",
"482 900 CURVE",
"489 990 LINE",
"33 990 LINE",
"26 900 LINE",
"158 872 LINE",
"77 909 LINE",
"398 460 LINE"
);
},
{
closed = 1;
nodes = (
"951 903 LINE",
"872 865 LINE",
"915 872 OFFCURVE",
"955 885 OFFCURVE",
"990 902 CURVE",
"997 990 LINE",
"647 990 LINE",
"640 900 LINE",
"769 872 LINE",
"763 903 LINE",
"424 474 LINE",
"595 469 LINE"
);
}
);
width = 1021;
}
);
leftKerningGroup = X;
leftMetricsKey = x;
rightKerningGroup = X;
rightMetricsKey = x;
unicode = 0058;
},
{
color = 4;
glyphname = Y;
layers = (
{
anchors = (
{
name = bottom;
position = "{474, 0}";
},
{
name = top;
position = "{495, 990}";
}
);
layerId = "8D9E6227-A940-4CC2-85D6-810E74B12C63";
paths = (
{
closed = 1;
nodes = (
"553 339 LINE",
"529 403 LINE",
"273 915 LINE",
"265 890 LINE",
"318 899 OFFCURVE",
"363 911 OFFCURVE",
"393 924 CURVE",
"398 990 LINE",
"14 990 LINE",
"9 924 LINE",
"140 896 LINE",
"92 925 LINE",
"395 334 LINE"
);
},
{
closed = 1;
nodes = (
"553 339 LINE",
"854 925 LINE",
"805 888 LINE",
"849 896 OFFCURVE",
"892 909 OFFCURVE",
"925 926 CURVE",
"930 990 LINE",
"605 990 LINE",
"600 924 LINE",
"734 895 LINE",
"729 925 LINE",
"445 340 LINE"
);
},
{
closed = 1;
nodes = (
"558 15 LINE",
"558 404 LINE",
"390 404 LINE",
"390 15 LINE"
);
},
{
closed = 1;
nodes = (
"685 0 LINE",
"690 66 LINE",
"539 95 LINE",
"558 28 LINE",
"558 168 LINE",
"390 168 LINE",
"390 28 LINE",
"410 102 LINE",
"358 92 OFFCURVE",
"307 79 OFFCURVE",
"267 64 CURVE",
"262 0 LINE"
);
}
);
width = 946;
},
{
anchors = (
{
name = bottom;
position = "{474, 0}";
},
{
name = top;
position = "{495, 990}";
}
);
layerId = "106916A4-8C74-485A-AD82-F5ABB18EF495";
paths = (
{
closed = 1;
nodes = (
"593 349 LINE",
"559 413 LINE",
"319 891 LINE",
"301 866 LINE",
"356 876 OFFCURVE",
"401 888 OFFCURVE",
"427 900 CURVE",
"434 990 LINE",
"6 990 LINE",
"-1 900 LINE",
"126 876 LINE",
"65 901 LINE",
"355 344 LINE"
);
},
{
closed = 1;
nodes = (
"593 349 LINE",
"882 901 LINE",
"815 864 LINE",
"865 875 OFFCURVE",
"908 888 OFFCURVE",
"933 902 CURVE",
"940 990 LINE",
"612 990 LINE",
"605 900 LINE",
"745 873 LINE",
"723 901 LINE",
"452 350 LINE"
);
},
{
closed = 1;
nodes = (
"594 15 LINE",
"594 414 LINE",
"354 414 LINE",
"354 15 LINE"
);
},
{
closed = 1;
nodes = (
"701 0 LINE",
"708 90 LINE",
"559 118 LINE",
"594 25 LINE",
"594 182 LINE",
"354 182 LINE",
"354 25 LINE",
"392 124 LINE",
"340 116 OFFCURVE",
"289 104 OFFCURVE",
"251 88 CURVE",
"244 0 LINE"
);
}
);
width = 946;
}
);
leftKerningGroup = Y;
leftMetricsKey = V;
rightKerningGroup = Y;
rightMetricsKey = V;
unicode = 0059;
},
{
color = 4;
glyphname = Z;
layers = (
{
anchors = (
{
name = bottom;
position = "{444, 0}";
},
{
name = top;
position = "{454, 990}";
}
);
layerId = "8D9E6227-A940-4CC2-85D6-810E74B12C63";
paths = (
{
closed = 1;
nodes = (
"189 0 LINE",
"820 904 LINE",
"827 990 LINE",
"680 990 LINE",
"49 86 LINE",
"42 0 LINE"
);
},
{
closed = 1;
nodes = (
"798 0 LINE",
"800 98 LINE",
"165 98 LINE",
"42 0 LINE"
);
},
{
closed = 1;
nodes = (
"141 685 LINE",
"248 933 LINE",
"93 990 LINE",
"75 900 OFFCURVE",
"69 791 OFFCURVE",
"77 685 CURVE"
);
},
{
closed = 1;
nodes = (
"705 892 LINE",
"827 990 LINE",
"93 990 LINE",
"92 892 LINE"
);
},
{
closed = 1;
nodes = (
"764 325 LINE",
"646 62 LINE",
"799 0 LINE",
"822 114 OFFCURVE",
"832 230 OFFCURVE",
"828 325 CURVE"
);
}
);
width = 886;
},
{
anchors = (
{
name = bottom;
position = "{460, 0}";
},
{
name = top;
position = "{470, 990}";
}
);
layerId = "106916A4-8C74-485A-AD82-F5ABB18EF495";
paths = (
{
closed = 1;
nodes = (
"241 0 LINE",
"870 882 LINE",
"877 990 LINE",
"660 990 LINE",
"31 108 LINE",
"24 0 LINE"
);
},
{
closed = 1;
nodes = (
"846 0 LINE",
"850 120 LINE",
"185 120 LINE",
"24 0 LINE"
);
},
{
closed = 1;
nodes = (
"153 655 LINE",
"270 911 LINE",
"77 990 LINE",
"57 889 OFFCURVE",
"50 769 OFFCURVE",
"59 655 CURVE"
);
},
{
closed = 1;
nodes = (
"717 870 LINE",
"877 990 LINE",
"77 990 LINE",
"74 870 LINE"
);
},
{
closed = 1;
nodes = (
"784 355 LINE",
"656 62 LINE",
"847 0 LINE",
"871 121 OFFCURVE",
"883 248 OFFCURVE",
"878 355 CURVE"
);
}
);
width = 918;
}
);
leftKerningGroup = Z;
leftMetricsKey = "=z+6";
rightKerningGroup = Z;
rightMetricsKey = "=z+6";
unicode = 005A;
},
{
color = 4;
glyphname = J.ss03;
layers = (
{
anchors = (
{
name = top;
position = "{246, 990}";
}
);
layerId = "8D9E6227-A940-4CC2-85D6-810E74B12C63";
paths = (
{
closed = 1;
nodes = (
"342 976 LINE",
"174 976 LINE",
"174 246 LINE",
"342 230 LINE"
);
},
{
closed = 1;
nodes = (
"39 990 LINE",
"34 924 LINE",
"194 895 LINE",
"174 962 LINE",
"174 822 LINE",
"342 822 LINE",
"342 962 LINE",
"323 887 LINE",
"369 898 OFFCURVE",
"410 912 OFFCURVE",
"439 926 CURVE",
"444 990 LINE"
);
},
{
closed = 1;
nodes = (
"220 -218 OFFCURVE",
"293 -139 OFFCURVE",
"321 -39 CURVE SMOOTH",
"335 12 OFFCURVE",
"342 84 OFFCURVE",
"342 185 CURVE SMOOTH",
"342 758 LINE",
"174 758 LINE",
"174 150 LINE SMOOTH",
"174 -15 OFFCURVE",
"149 -114 OFFCURVE",
"90 -185 CURVE SMOOTH",
"61 -220 LINE",
"116 -262 LINE"
);
}
);
width = 484;
},
{
anchors = (
{
name = top;
position = "{254, 990}";
}
);
layerId = "106916A4-8C74-485A-AD82-F5ABB18EF495";
paths = (
{
closed = 1;
nodes = (
"386 976 LINE",
"146 976 LINE",
"146 256 LINE",
"386 230 LINE"
);
},
{
closed = 1;
nodes = (
"31 990 LINE",
"24 900 LINE",
"179 873 LINE",
"146 965 LINE",
"146 808 LINE",
"386 808 LINE",
"386 965 LINE",
"348 862 LINE",
"397 875 OFFCURVE",
"438 889 OFFCURVE",
"463 902 CURVE",
"470 990 LINE"
);
},
{
closed = 1;
nodes = (
"252 -214 OFFCURVE",
"338 -133 OFFCURVE",
"365 -39 CURVE SMOOTH",
"380 13 OFFCURVE",
"386 88 OFFCURVE",
"386 193 CURVE SMOOTH",
"386 400 LINE",
"146 381 LINE",
"146 142 LINE SMOOTH",
"146 -23 OFFCURVE",
"123 -119 OFFCURVE",
"68 -185 CURVE SMOOTH",
"48 -209 LINE",
"124 -268 LINE"
);
}
);
width = 500;
}
);
leftKerningGroup = H;
leftMetricsKey = "=J-10";
rightKerningGroup = U;
rightMetricsKey = J;
},
{
color = 4;
glyphname = a;
layers = (
{
anchors = (
{
name = bottom;
position = "{368, 0}";
},
{
name = ogonek;
position = "{718, 0}";
},
{
name = top;
position = "{358, 746}";
}
);
components = (
{
name = _serif.base;
transform = "{1, 0, 0, 1, 340, 0}";
}
);
layerId = "8D9E6227-A940-4CC2-85D6-810E74B12C63";
paths = (
{
closed = 1;
nodes = (
"624 132 LINE",
"624 211 OFFCURVE",
"630 463 OFFCURVE",
"630 539 CURVE SMOOTH",
"630 690 OFFCURVE",
"553 763 OFFCURVE",
"395 763 CURVE SMOOTH",
"299 763 OFFCURVE",
"198 736 OFFCURVE",
"112 688 CURVE",
"104 644 OFFCURVE",
"100 588 OFFCURVE",
"102 531 CURVE",
"166 612 LINE",
"218 651 OFFCURVE",
"273 670 OFFCURVE",
"334 670 CURVE SMOOTH",
"427 670 OFFCURVE",
"472 624 OFFCURVE",
"472 528 CURVE SMOOTH",
"472 440 LINE",
"472 339 OFFCURVE",
"468 219 OFFCURVE",
"468 108 CURVE"
);
},
{
closed = 1;
nodes = (
"187 531 LINE",
"269 703 LINE",
"116 645 LINE",
"102 531 LINE"
);
},
{
closed = 1;
nodes = (
"366 -15 OFFCURVE",
"455 34 OFFCURVE",
"537 136 CURVE",
"519 172 LINE",
"447 121 OFFCURVE",
"387 97 OFFCURVE",
"333 97 CURVE SMOOTH",
"260 97 OFFCURVE",
"219 144 OFFCURVE",
"219 229 CURVE SMOOTH",
"219 319 OFFCURVE",
"265 362 OFFCURVE",
"375 376 CURVE SMOOTH",
"518 394 LINE",
"508 480 LINE",
"345 446 LINE SMOOTH",
"150 405 OFFCURVE",
"56 320 OFFCURVE",
"56 186 CURVE SMOOTH",
"56 63 OFFCURVE",
"136 -15 OFFCURVE",
"263 -15 CURVE SMOOTH"
);
}
);
width = 772;
},
{
anchors = (
{
name = bottom;
position = "{386, 0}";
},
{
name = ogonek;
position = "{762, 0}";
},
{
name = top;
position = "{376, 746}";
}
);
components = (
{
name = _serif.base;
transform = "{1, 0, 0, 1, 368, 0}";
}
);
layerId = "106916A4-8C74-485A-AD82-F5ABB18EF495";
paths = (
{
closed = 1;
nodes = (
"688 132 LINE",
"688 211 OFFCURVE",
"694 489 OFFCURVE",
"694 565 CURVE SMOOTH",
"694 716 OFFCURVE",
"606 789 OFFCURVE",
"424 789 CURVE SMOOTH",
"307 789 OFFCURVE",
"189 759 OFFCURVE",
"94 706 CURVE",
"84 651 OFFCURVE",
"80 584 OFFCURVE",
"82 519 CURVE",
"184 610 LINE",
"236 649 OFFCURVE",
"287 668 OFFCURVE",
"340 668 CURVE SMOOTH",
"424 668 OFFCURVE",
"464 622 OFFCURVE",
"464 526 CURVE SMOOTH",
"464 440 LINE",
"464 339 OFFCURVE",
"460 219 OFFCURVE",
"460 108 CURVE"
);
},
{
closed = 1;
nodes = (
"195 519 LINE",
"287 691 LINE",
"92 635 LINE",
"82 519 LINE"
);
},
{
closed = 1;
nodes = (
"372 -15 OFFCURVE",
"469 37 OFFCURVE",
"555 146 CURVE",
"537 202 LINE",
"466 151 OFFCURVE",
"410 127 OFFCURVE",
"365 127 CURVE SMOOTH",
"303 127 OFFCURVE",
"269 171 OFFCURVE",
"269 250 CURVE SMOOTH",
"269 334 OFFCURVE",
"307 373 OFFCURVE",
"397 384 CURVE SMOOTH",
"540 402 LINE",
"522 508 LINE",
"340 470 LINE SMOOTH",
"132 427 OFFCURVE",
"32 339 OFFCURVE",
"32 200 CURVE SMOOTH",
"32 69 OFFCURVE",
"121 -15 OFFCURVE",
"260 -15 CURVE SMOOTH"
);
}
);
width = 808;
}
);
leftKerningGroup = a;
rightKerningGroup = n;
unicode = 0061;
},
{
color = 4;
glyphname = ae;
layers = (
{
anchors = (
{
name = top;
position = "{587, 746}";
}
);
guideLines = (
{
angle = 255.0744;
position = "{575, 705}";
}
);
layerId = "8D9E6227-A940-4CC2-85D6-810E74B12C63";
paths = (
{
closed = 1;
nodes = (
"904 -16 OFFCURVE",
"983 5 OFFCURVE",
"1052 47 CURVE",
"1059 140 LINE",
"984 112 OFFCURVE",
"919 99 OFFCURVE",
"860 99 CURVE SMOOTH",
"693 99 OFFCURVE",
"613 203 OFFCURVE",
"613 419 CURVE SMOOTH",
"613 590 OFFCURVE",
"663 673 OFFCURVE",
"765 673 CURVE SMOOTH",
"869 673 OFFCURVE",
"912 588 OFFCURVE",
"912 383 CURVE",
"1080 367 LINE",
"1081 376 OFFCURVE",
"1082 394 OFFCURVE",
"1082 410 CURVE SMOOTH",
"1082 638 OFFCURVE",
"977 764 OFFCURVE",
"788 764 CURVE SMOOTH",
"655 764 OFFCURVE",
"558 701 OFFCURVE",
"517 587 CURVE",
"476 521 LINE",
"459 471 OFFCURVE",
"449 405 OFFCURVE",
"449 336 CURVE SMOOTH",
"449 110 OFFCURVE",
"578 -16 OFFCURVE",
"810 -16 CURVE SMOOTH"
);
},
{
closed = 1;
nodes = (
"591 320 LINE",
"591 539 LINE",
"591 695 OFFCURVE",
"528 763 OFFCURVE",
"385 763 CURVE SMOOTH",
"294 763 OFFCURVE",
"197 736 OFFCURVE",
"112 688 CURVE",
"104 644 OFFCURVE",
"100 588 OFFCURVE",
"102 531 CURVE",
"164 613 LINE",
"216 652 OFFCURVE",
"268 671 OFFCURVE",
"324 671 CURVE SMOOTH",
"412 671 OFFCURVE",
"454 624 OFFCURVE",
"454 528 CURVE SMOOTH",
"454 440 LINE",
"453 320 LINE"
);
},
{
closed = 1;
nodes = (
"185 531 LINE",
"267 703 LINE",
"116 645 LINE",
"102 531 LINE"
);
},
{
closed = 1;
nodes = (
"355 -15 OFFCURVE",
"462 40 OFFCURVE",
"554 140 CURVE",
"509 180 LINE",
"443 126 OFFCURVE",
"377 96 OFFCURVE",
"323 96 CURVE SMOOTH",
"255 96 OFFCURVE",
"217 144 OFFCURVE",
"217 229 CURVE SMOOTH",
"217 320 OFFCURVE",
"261 360 OFFCURVE",
"366 367 CURVE SMOOTH",
"500 375 LINE",
"492 457 LINE",
"325 434 LINE SMOOTH",
"152 410 OFFCURVE",
"56 323 OFFCURVE",
"56 186 CURVE SMOOTH",
"56 63 OFFCURVE",
"133 -15 OFFCURVE",
"253 -15 CURVE SMOOTH"
);
},
{
closed = 1;
nodes = (
"1080 367 LINE",
"1064 447 LINE",
"506 443 LINE",
"506 363 LINE"
);
}
);
width = 1140;
},
{
anchors = (
{
name = top;
position = "{618, 746}";
}
);
guideLines = (
{
angle = 255.0744;
position = "{631, 746}";
}
);
layerId = "106916A4-8C74-485A-AD82-F5ABB18EF495";
paths = (
{
closed = 1;
nodes = (
"946 -16 OFFCURVE",
"1053 9 OFFCURVE",
"1120 53 CURVE",
"1130 181 LINE",
"1061 155 OFFCURVE",
"986 140 OFFCURVE",
"929 140 CURVE SMOOTH",
"760 140 OFFCURVE",
"678 242 OFFCURVE",
"678 454 CURVE SMOOTH",
"678 598 OFFCURVE",
"716 668 OFFCURVE",
"795 668 CURVE SMOOTH",
"878 668 OFFCURVE",
"913 588 OFFCURVE",
"913 396 CURVE",
"1151 364 LINE",
"1152 379 OFFCURVE",
"1153 403 OFFCURVE",
"1153 423 CURVE SMOOTH",
"1153 659 OFFCURVE",
"1034 790 OFFCURVE",
"819 790 CURVE SMOOTH",
"683 790 OFFCURVE",
"581 723 OFFCURVE",
"532 602 CURVE",
"503 595 LINE",
"466 530 OFFCURVE",
"446 443 OFFCURVE",
"446 349 CURVE SMOOTH",
"446 114 OFFCURVE",
"587 -16 OFFCURVE",
"841 -16 CURVE SMOOTH"
);
},
{
closed = 1;
nodes = (
"639 362 LINE",
"639 565 LINE",
"639 716 OFFCURVE",
"566 789 OFFCURVE",
"416 789 CURVE SMOOTH",
"307 789 OFFCURVE",
"189 759 OFFCURVE",
"94 706 CURVE",
"84 651 OFFCURVE",
"80 584 OFFCURVE",
"82 519 CURVE",
"184 610 LINE",
"236 649 OFFCURVE",
"287 668 OFFCURVE",
"332 668 CURVE SMOOTH",
"410 668 OFFCURVE",
"450 622 OFFCURVE",
"450 526 CURVE SMOOTH",
"450 440 LINE",
"450 338 LINE"
);
},
{
closed = 1;
nodes = (
"193 519 LINE",
"285 691 LINE",
"92 635 LINE",
"82 519 LINE"
);
},
{
closed = 1;
nodes = (
"365 -15 OFFCURVE",
"481 44 OFFCURVE",
"576 150 CURVE",
"525 209 LINE",
"464 156 OFFCURVE",
"404 126 OFFCURVE",
"357 126 CURVE SMOOTH",
"299 126 OFFCURVE",
"267 170 OFFCURVE",
"267 250 CURVE SMOOTH",
"267 334 OFFCURVE",
"303 370 OFFCURVE",
"388 375 CURVE SMOOTH",
"522 383 LINE",
"506 485 LINE",
"320 458 LINE SMOOTH",
"135 431 OFFCURVE",
"32 343 OFFCURVE",
"32 200 CURVE SMOOTH",
"32 69 OFFCURVE",
"117 -15 OFFCURVE",
"252 -15 CURVE SMOOTH"
);
},
{
closed = 1;
nodes = (
"1151 364 LINE",
"1135 464 LINE",
"577 460 LINE",
"577 360 LINE"
);
}
);
width = 1189;
}
);
leftKerningGroup = a;
leftMetricsKey = a;
rightKerningGroup = o;
rightMetricsKey = e;
unicode = 00E6;
},
{
color = 4;
glyphname = b;
layers = (
{
components = (
{
name = _serif.headtop;
transform = "{1, 0, 0, 1, -2, 0}";
}
);
layerId = "8D9E6227-A940-4CC2-85D6-810E74B12C63";
paths = (
{
closed = 1;
nodes = (
"640 -18 OFFCURVE",
"790 144 OFFCURVE",
"790 398 CURVE SMOOTH",
"790 622 OFFCURVE",
"674 764 OFFCURVE",
"492 764 CURVE SMOOTH",
"387 764 OFFCURVE",
"298 716 OFFCURVE",
"214 616 CURVE",
"233 573 LINE",
"298 624 OFFCURVE",
"359 648 OFFCURVE",
"420 648 CURVE SMOOTH",
"547 648 OFFCURVE",
"618 546 OFFCURVE",
"618 363 CURVE SMOOTH",
"618 179 OFFCURVE",
"546 76 OFFCURVE",
"416 76 CURVE SMOOTH",
"350 76 OFFCURVE",
"282 103 OFFCURVE",
"225 151 CURVE",
"193 76 LINE",
"233 13 OFFCURVE",
"302 -18 OFFCURVE",
"405 -18 CURVE SMOOTH"
);
},
{
closed = 1;
nodes = (
"186 0 LINE",
"201 10 OFFCURVE",
"217 24 OFFCURVE",
"230 40 CURVE",
"284 76 LINE",
"284 1030 LINE",
"124 1070 LINE",
"124 144 LINE",
"118 0 LINE"
);
}
);
width = 846;
},
{
components = (
{
name = _serif.headtop;
transform = "{1, 0, 0, 1, 16, 0}";
}
);
layerId = "106916A4-8C74-485A-AD82-F5ABB18EF495";
paths = (
{
closed = 1;
nodes = (
"694 -18 OFFCURVE",
"850 149 OFFCURVE",
"850 411 CURVE SMOOTH",
"850 643 OFFCURVE",
"727 790 OFFCURVE",
"534 790 CURVE SMOOTH",
"421 790 OFFCURVE",
"323 739 OFFCURVE",
"232 632 CURVE",
"251 569 LINE",
"314 620 OFFCURVE",
"371 644 OFFCURVE",
"426 644 CURVE SMOOTH",
"537 644 OFFCURVE",
"598 548 OFFCURVE",
"598 375 CURVE SMOOTH",
"598 202 OFFCURVE",
"536 106 OFFCURVE",
"425 106 CURVE SMOOTH",
"365 106 OFFCURVE",
"300 133 OFFCURVE",
"243 181 CURVE",
"211 76 LINE",
"264 13 OFFCURVE",
"342 -18 OFFCURVE",
"448 -18 CURVE SMOOTH"
);
},
{
closed = 1;
nodes = (
"186 0 LINE",
"208 15 OFFCURVE",
"231 35 OFFCURVE",
"250 58 CURVE",
"328 76 LINE",
"328 1030 LINE",
"96 1070 LINE",
"96 144 LINE",
"88 0 LINE"
);
}
);
width = 880;
}
);
leftKerningGroup = b;
rightKerningGroup = o;
rightMetricsKey = "=o-6";
unicode = 0062;
},
{
color = 4;
glyphname = c;
layers = (
{
anchors = (
{
name = bottom;
position = "{404, 0}";
},
{
name = top;
position = "{392, 746}";
}
);
layerId = "8D9E6227-A940-4CC2-85D6-810E74B12C63";
paths = (
{
closed = 1;
nodes = (
"519 -16 OFFCURVE",
"605 5 OFFCURVE",
"667 43 CURVE",
"674 137 LINE",
"610 113 OFFCURVE",
"540 100 OFFCURVE",
"479 100 CURVE SMOOTH",
"316 100 OFFCURVE",
"238 196 OFFCURVE",
"238 395 CURVE SMOOTH",
"238 573 OFFCURVE",
"300 671 OFFCURVE",
"411 671 CURVE SMOOTH",
"460 671 OFFCURVE",
"523 653 OFFCURVE",
"574 622 CURVE",
"488 697 LINE",
"570 525 LINE",
"650 525 LINE",
"654 594 OFFCURVE",
"648 660 OFFCURVE",
"637 710 CURVE",
"576 745 OFFCURVE",
"499 764 OFFCURVE",
"422 764 CURVE SMOOTH",
"202 764 OFFCURVE",
"62 606 OFFCURVE",
"62 358 CURVE SMOOTH",
"62 118 OFFCURVE",
"192 -16 OFFCURVE",
"426 -16 CURVE SMOOTH"
);
}
);
width = 718;
},
{
anchors = (
{
name = bottom;
position = "{420, 0}";
},
{
name = top;
position = "{408, 746}";
}
);
layerId = "106916A4-8C74-485A-AD82-F5ABB18EF495";
paths = (
{
closed = 1;
nodes = (
"548 -16 OFFCURVE",
"645 7 OFFCURVE",
"714 49 CURVE",
"724 177 LINE",
"660 153 OFFCURVE",
"590 140 OFFCURVE",
"529 140 CURVE SMOOTH",
"369 140 OFFCURVE",
"292 234 OFFCURVE",
"292 428 CURVE SMOOTH",
"292 582 OFFCURVE",
"341 667 OFFCURVE",
"428 667 CURVE SMOOTH",
"468 667 OFFCURVE",
"522 649 OFFCURVE",
"575 618 CURVE",
"498 685 LINE",
"590 513 LINE",
"700 513 LINE",
"705 586 OFFCURVE",
"699 663 OFFCURVE",
"685 728 CURVE",
"614 768 OFFCURVE",
"529 790 OFFCURVE",
"438 790 CURVE SMOOTH",
"192 790 OFFCURVE",
"36 627 OFFCURVE",
"36 370 CURVE SMOOTH",
"36 122 OFFCURVE",
"181 -16 OFFCURVE",
"442 -16 CURVE SMOOTH"
);
}
);
width = 746;
}
);
leftKerningGroup = o;
leftMetricsKey = o;
rightKerningGroup = c;
unicode = 0063;
},
{
color = 4;
glyphname = d;
layers = (
{
anchors = (
{
name = bar;
position = "{562, 889}";
},
{
name = bottom;
position = "{463, 0}";
},
{
name = topright;
position = "{722, 746}";
}
);
components = (
{
name = _serif.base;
transform = "{1, 0, 0, 1, 438, 0}";
}
);
layerId = "8D9E6227-A940-4CC2-85D6-810E74B12C63";
paths = (
{
closed = 1;
nodes = (
"459 -18 OFFCURVE",
"548 30 OFFCURVE",
"632 130 CURVE",
"613 173 LINE",
"548 122 OFFCURVE",
"487 98 OFFCURVE",
"426 98 CURVE SMOOTH",
"299 98 OFFCURVE",
"228 200 OFFCURVE",
"228 383 CURVE SMOOTH",
"228 567 OFFCURVE",
"300 670 OFFCURVE",
"430 670 CURVE SMOOTH",
"496 670 OFFCURVE",
"564 643 OFFCURVE",
"621 595 CURVE",
"653 670 LINE",
"613 733 OFFCURVE",
"544 764 OFFCURVE",
"441 764 CURVE SMOOTH",
"206 764 OFFCURVE",
"56 602 OFFCURVE",
"56 348 CURVE SMOOTH",
"56 124 OFFCURVE",
"172 -18 OFFCURVE",
"354 -18 CURVE SMOOTH"
);
},
{
closed = 1;
nodes = (
"722 1017 LINE",
"562 1017 LINE",
"562 99 LINE",
"722 58 LINE"
);
},
{
closed = 1;
nodes = (
"722 944 LINE",
"722 1116 LINE",
"662 1116 LINE",
"580 1113 OFFCURVE",
"499 1098 OFFCURVE",
"436 1075 CURVE",
"432 1039 LINE",
"578 984 LINE",
"562 1019 LINE",
"562 894 LINE"
);
}
);
width = 864;
},
{
anchors = (
{
name = bar;
position = "{583, 905}";
},
{
name = bottom;
position = "{467, 0}";
},
{
name = topright;
position = "{784, 746}";
}
);
components = (
{
name = _serif.base;
transform = "{1, 0, 0, 1, 464, 0}";
}
);
layerId = "106916A4-8C74-485A-AD82-F5ABB18EF495";
paths = (
{
closed = 1;
nodes = (
"459 -18 OFFCURVE",
"557 33 OFFCURVE",
"648 140 CURVE",
"629 203 LINE",
"566 152 OFFCURVE",
"509 128 OFFCURVE",
"454 128 CURVE SMOOTH",
"343 128 OFFCURVE",
"282 224 OFFCURVE",
"282 397 CURVE SMOOTH",
"282 570 OFFCURVE",
"344 666 OFFCURVE",
"455 666 CURVE SMOOTH",
"515 666 OFFCURVE",
"580 639 OFFCURVE",
"637 591 CURVE",
"669 696 LINE",
"616 759 OFFCURVE",
"538 790 OFFCURVE",
"432 790 CURVE SMOOTH",
"186 790 OFFCURVE",
"30 623 OFFCURVE",
"30 361 CURVE SMOOTH",
"30 129 OFFCURVE",
"153 -18 OFFCURVE",
"346 -18 CURVE SMOOTH"
);
},
{
closed = 1;
nodes = (
"784 1017 LINE",
"552 1017 LINE",
"552 99 LINE",
"784 59 LINE"
);
},
{
closed = 1;
nodes = (
"784 950 LINE",
"784 1122 LINE",
"698 1122 LINE",
"613 1119 OFFCURVE",
"523 1104 OFFCURVE",
"446 1079 CURVE",
"440 1013 LINE",
"585 950 LINE",
"552 1025 LINE",
"552 900 LINE"
);
}
);
width = 898;
}
);
leftKerningGroup = o;
leftMetricsKey = "=o-6";
rightKerningGroup = d;
unicode = 0064;
},
{
color = 4;
glyphname = eth;
layers = (
{
layerId = "8D9E6227-A940-4CC2-85D6-810E74B12C63";
paths = (
{
closed = 1;
nodes = (
"385 1095 OFFCURVE",
"300 1128 OFFCURVE",
"219 1144 CURVE",
"169 1066 LINE",
"242 1048 OFFCURVE",
"306 1024 OFFCURVE",
"355 995 CURVE SMOOTH",
"481 921 OFFCURVE",
"562 796 OFFCURVE",
"605 611 CURVE",
"602 567 LINE",
"609 516 OFFCURVE",
"612 462 OFFCURVE",
"612 403 CURVE SMOOTH",
"612 172 OFFCURVE",
"562 76 OFFCURVE",
"441 76 CURVE SMOOTH",
"311 76 OFFCURVE",
"238 188 OFFCURVE",
"238 389 CURVE SMOOTH",
"238 563 OFFCURVE",
"294 650 OFFCURVE",
"408 650 CURVE SMOOTH",
"498 650 OFFCURVE",
"573 597 OFFCURVE",
"618 503 CURVE",
"650 540 LINE",
"624 678 OFFCURVE",
"544 744 OFFCURVE",
"405 744 CURVE SMOOTH",
"195 744 OFFCURVE",
"62 595 OFFCURVE",
"62 361 CURVE SMOOTH",
"62 129 OFFCURVE",
"203 -18 OFFCURVE",
"424 -18 CURVE SMOOTH",
"658 -18 OFFCURVE",
"788 143 OFFCURVE",
"788 432 CURVE SMOOTH",
"788 706 OFFCURVE",
"671 927 OFFCURVE",
"460 1051 CURVE SMOOTH"
);
},
{
closed = 1;
nodes = (
"483 969 LINE",
"412 1018 LINE",
"167 878 LINE",
"201 807 LINE"
);
},
{
closed = 1;
nodes = (
"651 1063 LINE",
"618 1134 LINE",
"415 1018 LINE",
"486 969 LINE"
);
}
);
width = 860;
},
{
layerId = "106916A4-8C74-485A-AD82-F5ABB18EF495";
paths = (
{
closed = 1;
nodes = (
"408 1103 OFFCURVE",
"313 1138 OFFCURVE",
"232 1154 CURVE",
"168 1054 LINE",
"231 1038 OFFCURVE",
"291 1017 OFFCURVE",
"341 988 CURVE SMOOTH",
"469 913 OFFCURVE",
"560 791 OFFCURVE",
"601 611 CURVE",
"579 583 LINE",
"587 537 OFFCURVE",
"590 477 OFFCURVE",
"590 417 CURVE SMOOTH",
"590 198 OFFCURVE",
"551 106 OFFCURVE",
"456 106 CURVE SMOOTH",
"351 106 OFFCURVE",
"292 212 OFFCURVE",
"292 403 CURVE SMOOTH",
"292 567 OFFCURVE",
"336 646 OFFCURVE",
"426 646 CURVE SMOOTH",
"496 646 OFFCURVE",
"556 600 OFFCURVE",
"596 517 CURVE",
"643 562 LINE",
"617 700 OFFCURVE",
"544 766 OFFCURVE",
"419 766 CURVE SMOOTH",
"183 766 OFFCURVE",
"36 615 OFFCURVE",
"36 375 CURVE SMOOTH",
"36 135 OFFCURVE",
"193 -18 OFFCURVE",
"440 -18 CURVE SMOOTH",
"701 -18 OFFCURVE",
"846 148 OFFCURVE",
"846 446 CURVE SMOOTH",
"846 715 OFFCURVE",
"728 915 OFFCURVE",
"483 1059 CURVE SMOOTH"
);
},
{
closed = 1;
nodes = (
"500 966 LINE",
"421 1031 LINE",
"166 885 LINE",
"208 798 LINE"
);
},
{
closed = 1;
nodes = (
"671 1062 LINE",
"630 1149 LINE",
"422 1030 LINE",
"501 965 LINE"
);
}
);
width = 892;
}
);
leftKerningGroup = o;
leftMetricsKey = o;
rightKerningGroup = o;
rightMetricsKey = "=o+10";
unicode = 00F0;
},
{
color = 4;
glyphname = dcroat;
layers = (
{
anchors = (
{
name = bottom;
position = "{463, 0}";
}
);
components = (
{
name = _serif.base;
transform = "{1, 0, 0, 1, 440, 0}";
},
{
name = _bar;
transform = "{1, 0, 0, 1, 564, -70}";
}
);
layerId = "8D9E6227-A940-4CC2-85D6-810E74B12C63";
paths = (
{
closed = 1;
nodes = (
"461 -18 OFFCURVE",
"550 30 OFFCURVE",
"634 130 CURVE",
"615 173 LINE",
"550 122 OFFCURVE",
"489 98 OFFCURVE",
"428 98 CURVE SMOOTH",
"299 98 OFFCURVE",
"228 198 OFFCURVE",
"228 378 CURVE SMOOTH",
"228 559 OFFCURVE",
"300 660 OFFCURVE",
"430 660 CURVE SMOOTH",
"490 660 OFFCURVE",
"553 639 OFFCURVE",
"623 595 CURVE",
"655 670 LINE",
"607 727 OFFCURVE",
"538 754 OFFCURVE",
"441 754 CURVE SMOOTH",
"206 754 OFFCURVE",
"56 594 OFFCURVE",
"56 343 CURVE SMOOTH",
"56 122 OFFCURVE",
"173 -18 OFFCURVE",
"356 -18 CURVE SMOOTH"
);
},
{
closed = 1;
nodes = (
"724 1017 LINE",
"564 1017 LINE",
"564 99 LINE",
"724 58 LINE"
);
},
{
closed = 1;
nodes = (
"724 944 LINE",
"724 1116 LINE",
"664 1116 LINE",
"582 1113 OFFCURVE",
"501 1098 OFFCURVE",
"438 1075 CURVE",
"434 1039 LINE",
"579 992 LINE",
"564 1019 LINE",
"564 894 LINE"
);
}
);
width = 868;
},
{
anchors = (
{
name = bottom;
position = "{467, 0}";
}
);
components = (
{
name = _serif.base;
transform = "{1, 0, 0, 1, 466, 0}";
},
{
name = _bar;
transform = "{1.04, 0, 0, 1, 585, -54}";
}
);
layerId = "106916A4-8C74-485A-AD82-F5ABB18EF495";
paths = (
{
closed = 1;
nodes = (
"461 -18 OFFCURVE",
"559 33 OFFCURVE",
"650 140 CURVE",
"631 203 LINE",
"568 152 OFFCURVE",
"511 128 OFFCURVE",
"456 128 CURVE SMOOTH",
"344 128 OFFCURVE",
"282 222 OFFCURVE",
"282 392 CURVE SMOOTH",
"282 562 OFFCURVE",
"344 656 OFFCURVE",
"455 656 CURVE SMOOTH",
"515 656 OFFCURVE",
"580 629 OFFCURVE",
"637 581 CURVE",
"669 686 LINE",
"616 749 OFFCURVE",
"538 780 OFFCURVE",
"432 780 CURVE SMOOTH",
"186 780 OFFCURVE",
"30 616 OFFCURVE",
"30 358 CURVE SMOOTH",
"30 128 OFFCURVE",
"154 -18 OFFCURVE",
"348 -18 CURVE SMOOTH"
);
},
{
closed = 1;
nodes = (
"786 1017 LINE",
"554 1017 LINE",
"554 99 LINE",
"786 59 LINE"
);
},
{
closed = 1;
nodes = (
"786 950 LINE",
"786 1122 LINE",
"700 1122 LINE",
"615 1119 OFFCURVE",
"525 1104 OFFCURVE",
"448 1079 CURVE",
"442 1013 LINE",
"587 990 LINE",
"554 1025 LINE",
"554 900 LINE"
);
}
);
width = 900;
}
);
leftKerningGroup = o;
leftMetricsKey = d;
rightKerningGroup = d;
rightMetricsKey = d;
unicode = 0111;
},
{
color = 4;
glyphname = e;
layers = (
{
anchors = (
{
name = bottom;
position = "{414, 0}";
},
{
name = ogonek;
position = "{667, 0}";
},
{
name = top;
position = "{397, 746}";
}
);
layerId = "8D9E6227-A940-4CC2-85D6-810E74B12C63";
paths = (
{
closed = 1;
nodes = (
"538 -16 OFFCURVE",
"628 7 OFFCURVE",
"691 47 CURVE",
"698 141 LINE",
"629 115 OFFCURVE",
"554 100 OFFCURVE",
"489 100 CURVE SMOOTH",
"317 100 OFFCURVE",
"234 204 OFFCURVE",
"234 419 CURVE SMOOTH",
"234 590 OFFCURVE",
"286 672 OFFCURVE",
"394 672 CURVE SMOOTH",
"503 672 OFFCURVE",
"549 587 OFFCURVE",
"549 383 CURVE",
"717 351 LINE",
"720 370 OFFCURVE",
"721 390 OFFCURVE",
"721 410 CURVE SMOOTH",
"721 638 OFFCURVE",
"612 764 OFFCURVE",
"417 764 CURVE SMOOTH",
"200 764 OFFCURVE",
"62 608 OFFCURVE",
"62 362 CURVE SMOOTH",
"62 119 OFFCURVE",
"197 -16 OFFCURVE",
"439 -16 CURVE SMOOTH"
);
},
{
closed = 1;
nodes = (
"717 351 LINE",
"701 433 LINE",
"127 433 LINE",
"127 351 LINE"
);
}
);
width = 779;
},
{
anchors = (
{
name = bottom;
position = "{430, 0}";
},
{
name = ogonek;
position = "{683, 0}";
},
{
name = top;
position = "{413, 746}";
}
);
layerId = "106916A4-8C74-485A-AD82-F5ABB18EF495";
paths = (
{
closed = 1;
nodes = (
"568 -16 OFFCURVE",
"675 9 OFFCURVE",
"742 53 CURVE",
"752 181 LINE",
"683 155 OFFCURVE",
"608 140 OFFCURVE",
"543 140 CURVE SMOOTH",
"370 140 OFFCURVE",
"286 241 OFFCURVE",
"286 451 CURVE SMOOTH",
"286 596 OFFCURVE",
"326 668 OFFCURVE",
"410 668 CURVE SMOOTH",
"497 668 OFFCURVE",
"533 589 OFFCURVE",
"533 396 CURVE",
"771 348 LINE",
"774 367 OFFCURVE",
"775 403 OFFCURVE",
"775 423 CURVE SMOOTH",
"775 659 OFFCURVE",
"653 790 OFFCURVE",
"433 790 CURVE SMOOTH",
"190 790 OFFCURVE",
"36 629 OFFCURVE",
"36 375 CURVE SMOOTH",
"36 124 OFFCURVE",
"186 -16 OFFCURVE",
"455 -16 CURVE SMOOTH"
);
},
{
closed = 1;
nodes = (
"771 348 LINE",
"755 450 LINE",
"143 450 LINE",
"143 348 LINE"
);
}
);
width = 811;
}
);
leftKerningGroup = o;
leftMetricsKey = o;
rightKerningGroup = o;
unicode = 0065;
},
{
color = 4;
glyphname = eogonek;
layers = (
{
anchors = (
{
name = bottom;
position = "{418, 0}";
},
{
name = top;
position = "{397, 746}";
}
);
guideLines = (
{
angle = 265.7412;
position = "{698, 141}";
}
);
layerId = "8D9E6227-A940-4CC2-85D6-810E74B12C63";
paths = (
{
closed = 1;
nodes = (
"466 -14 OFFCURVE",
"498 -11 OFFCURVE",
"523 -5 CURVE",
"691 47 LINE",
"698 141 LINE",
"629 115 OFFCURVE",
"554 100 OFFCURVE",
"489 100 CURVE SMOOTH",
"317 100 OFFCURVE",
"234 204 OFFCURVE",
"234 419 CURVE SMOOTH",
"234 589 OFFCURVE",
"286 672 OFFCURVE",
"394 672 CURVE SMOOTH",
"503 672 OFFCURVE",
"549 587 OFFCURVE",
"549 383 CURVE",
"717 351 LINE",
"720 370 OFFCURVE",
"721 390 OFFCURVE",
"721 410 CURVE SMOOTH",
"721 638 OFFCURVE",
"612 764 OFFCURVE",
"417 764 CURVE SMOOTH",
"200 764 OFFCURVE",
"62 608 OFFCURVE",
"62 362 CURVE SMOOTH",
"62 119 OFFCURVE",
"195 -14 OFFCURVE",
"439 -14 CURVE SMOOTH"
);
},
{
closed = 1;
nodes = (
"717 351 LINE",
"701 433 LINE",
"127 433 LINE",
"127 351 LINE"
);
},
{
closed = 1;
nodes = (
"578 -343 OFFCURVE",
"627 -332 OFFCURVE",
"665 -311 CURVE",
"670 -239 LINE",
"634 -248 OFFCURVE",
"601 -253 OFFCURVE",
"577 -253 CURVE SMOOTH",
"524 -253 OFFCURVE",
"498 -229 OFFCURVE",
"498 -179 CURVE SMOOTH",
"498 -104 OFFCURVE",
"554 -30 OFFCURVE",
"654 26 CURVE SMOOTH",
"691 47 LINE",
"665 66 LINE",
"470 5 OFFCURVE",
"362 -93 OFFCURVE",
"362 -209 CURVE SMOOTH",
"362 -295 OFFCURVE",
"422 -343 OFFCURVE",
"529 -343 CURVE SMOOTH"
);
}
);
width = 779;
},
{
anchors = (
{
name = bottom;
position = "{430, 0}";
},
{
name = top;
position = "{413, 746}";
}
);
guideLines = (
{
angle = 265.7412;
position = "{770, 181}";
}
);
layerId = "106916A4-8C74-485A-AD82-F5ABB18EF495";
paths = (
{
closed = 1;
nodes = (
"482 -14 OFFCURVE",
"512 -11 OFFCURVE",
"539 -6 CURVE",
"742 53 LINE",
"752 181 LINE",
"683 155 OFFCURVE",
"608 140 OFFCURVE",
"543 140 CURVE SMOOTH",
"375 140 OFFCURVE",
"288 238 OFFCURVE",
"288 433 CURVE SMOOTH",
"288 591 OFFCURVE",
"328 668 OFFCURVE",
"411 668 CURVE SMOOTH",
"497 668 OFFCURVE",
"533 588 OFFCURVE",
"533 396 CURVE",
"771 348 LINE",
"774 367 OFFCURVE",
"775 403 OFFCURVE",
"775 423 CURVE SMOOTH",
"775 659 OFFCURVE",
"653 790 OFFCURVE",
"433 790 CURVE SMOOTH",
"190 790 OFFCURVE",
"36 629 OFFCURVE",
"36 375 CURVE SMOOTH",
"36 124 OFFCURVE",
"184 -14 OFFCURVE",
"455 -14 CURVE SMOOTH"
);
},
{
closed = 1;
nodes = (
"771 348 LINE",
"755 450 LINE",
"143 450 LINE",
"143 348 LINE"
);
},
{
closed = 1;
nodes = (
"622 -349 OFFCURVE",
"676 -336 OFFCURVE",
"715 -312 CURVE",
"721 -227 LINE",
"685 -235 OFFCURVE",
"654 -239 OFFCURVE",
"634 -239 CURVE SMOOTH",
"587 -239 OFFCURVE",
"565 -217 OFFCURVE",
"565 -172 CURVE SMOOTH",
"565 -100 OFFCURVE",
"619 -17 OFFCURVE",
"705 32 CURVE SMOOTH",
"742 53 LINE",
"694 72 LINE",
"493 10 OFFCURVE",
"381 -90 OFFCURVE",
"381 -209 CURVE SMOOTH",
"381 -299 OFFCURVE",
"446 -349 OFFCURVE",
"564 -349 CURVE SMOOTH"
);
}
);
width = 811;
}
);
leftKerningGroup = o;
rightKerningGroup = o;
unicode = 0119;
},
{
color = 4;
glyphname = schwa;
layers = (
{
layerId = "8D9E6227-A940-4CC2-85D6-810E74B12C63";
paths = (
{
closed = 1;
nodes = (
"579 -18 OFFCURVE",
"717 135 OFFCURVE",
"717 375 CURVE SMOOTH",
"717 613 OFFCURVE",
"579 764 OFFCURVE",
"363 764 CURVE SMOOTH",
"271 764 OFFCURVE",
"167 736 OFFCURVE",
"97 691 CURVE",
"160 613 LINE",
"219 650 OFFCURVE",
"285 670 OFFCURVE",
"344 670 CURVE SMOOTH",
"480 670 OFFCURVE",
"545 563 OFFCURVE",
"545 342 CURVE SMOOTH",
"545 153 OFFCURVE",
"498 74 OFFCURVE",
"385 74 CURVE SMOOTH",
"276 74 OFFCURVE",
"230 159 OFFCURVE",
"230 363 CURVE",
"62 395 LINE",
"59 376 OFFCURVE",
"58 356 OFFCURVE",
"58 336 CURVE SMOOTH",
"58 108 OFFCURVE",
"167 -18 OFFCURVE",
"362 -18 CURVE SMOOTH"
);
},
{
closed = 1;
nodes = (
"652 313 LINE",
"652 395 LINE",
"62 395 LINE",
"78 313 LINE"
);
},
{
closed = 1;
nodes = (
"168 525 LINE",
"250 697 LINE",
"97 691 LINE",
"89 644 OFFCURVE",
"85 582 OFFCURVE",
"88 525 CURVE"
);
}
);
width = 779;
},
{
layerId = "106916A4-8C74-485A-AD82-F5ABB18EF495";
paths = (
{
closed = 1;
nodes = (
"621 -18 OFFCURVE",
"775 143 OFFCURVE",
"775 397 CURVE SMOOTH",
"775 637 OFFCURVE",
"621 790 OFFCURVE",
"379 790 CURVE SMOOTH",
"269 790 OFFCURVE",
"152 759 OFFCURVE",
"78 709 CURVE",
"163 609 LINE",
"224 646 OFFCURVE",
"290 666 OFFCURVE",
"347 666 CURVE SMOOTH",
"471 666 OFFCURVE",
"523 570 OFFCURVE",
"523 339 CURVE SMOOTH",
"523 181 OFFCURVE",
"483 104 OFFCURVE",
"400 104 CURVE SMOOTH",
"314 104 OFFCURVE",
"278 184 OFFCURVE",
"278 376 CURVE",
"40 424 LINE",
"37 405 OFFCURVE",
"36 369 OFFCURVE",
"36 349 CURVE SMOOTH",
"36 113 OFFCURVE",
"158 -18 OFFCURVE",
"378 -18 CURVE SMOOTH"
);
},
{
closed = 1;
nodes = (
"668 322 LINE",
"668 424 LINE",
"40 424 LINE",
"56 322 LINE"
);
},
{
closed = 1;
nodes = (
"177 513 LINE",
"269 685 LINE",
"78 709 LINE",
"68 647 OFFCURVE",
"64 577 OFFCURVE",
"67 513 CURVE"
);
}
);
width = 811;
}
);
leftKerningGroup = o;
leftMetricsKey = "=|e";
rightKerningGroup = o;
rightMetricsKey = "=|e";
unicode = 0259;
},
{
color = 4;
glyphname = f;
layers = (
{
layerId = "8D9E6227-A940-4CC2-85D6-810E74B12C63";
paths = (
{
closed = 1;
nodes = (
"321 6 LINE",
"321 690 LINE",
"319 710 LINE",
"319 822 LINE SMOOTH",
"319 964 OFFCURVE",
"354 1014 OFFCURVE",
"453 1014 CURVE SMOOTH",
"485 1014 OFFCURVE",
"524 1009 OFFCURVE",
"561 1000 CURVE",
"571 1118 LINE",
"546 1128 OFFCURVE",
"511 1134 OFFCURVE",
"473 1134 CURVE SMOOTH",
"283 1134 OFFCURVE",
"162 989 OFFCURVE",
"162 762 CURVE SMOOTH",
"162 6 LINE"
);
},
{
closed = 1;
nodes = (
"518 650 LINE",
"526 746 LINE",
"170 746 LINE",
"124 745 OFFCURVE",
"78 739 OFFCURVE",
"42 730 CURVE",
"35 650 LINE"
);
},
{
closed = 1;
nodes = (
"472 0 LINE",
"477 62 LINE",
"304 90 LINE",
"321 26 LINE",
"321 162 LINE",
"162 162 LINE",
"162 26 LINE",
"181 99 LINE",
"142 90 OFFCURVE",
"104 78 OFFCURVE",
"65 60 CURVE",
"60 0 LINE"
);
}
);
width = 546;
},
{
layerId = "106916A4-8C74-485A-AD82-F5ABB18EF495";
paths = (
{
closed = 1;
nodes = (
"365 6 LINE",
"365 690 LINE",
"361 710 LINE",
"361 822 LINE SMOOTH",
"361 931 OFFCURVE",
"392 970 OFFCURVE",
"479 970 CURVE SMOOTH",
"511 970 OFFCURVE",
"551 965 OFFCURVE",
"592 956 CURVE",
"606 1124 LINE",
"581 1134 OFFCURVE",
"547 1140 OFFCURVE",
"506 1140 CURVE SMOOTH",
"290 1140 OFFCURVE",
"134 969 OFFCURVE",
"134 732 CURVE SMOOTH",
"134 6 LINE"
);
},
{
closed = 1;
nodes = (
"550 646 LINE",
"560 772 LINE",
"142 772 LINE",
"104 763 OFFCURVE",
"64 750 OFFCURVE",
"32 736 CURVE",
"25 646 LINE"
);
},
{
closed = 1;
nodes = (
"504 0 LINE",
"511 86 LINE",
"329 112 LINE",
"365 25 LINE",
"365 182 LINE",
"134 182 LINE",
"134 25 LINE",
"171 123 LINE",
"132 114 OFFCURVE",
"94 102 OFFCURVE",
"57 84 CURVE",
"50 0 LINE"
);
}
);
width = 574;
}
);
leftKerningGroup = f;
rightKerningGroup = f;
unicode = 0066;
},
{
color = 4;
glyphname = g;
layers = (
{
anchors = (
{
name = top;
position = "{369, 746}";
}
);
layerId = "8D9E6227-A940-4CC2-85D6-810E74B12C63";
paths = (
{
closed = 1;
nodes = (
"542 235 OFFCURVE",
"657 338 OFFCURVE",
"657 500 CURVE SMOOTH",
"657 653 OFFCURVE",
"520 763 OFFCURVE",
"363 763 CURVE SMOOTH",
"181 763 OFFCURVE",
"66 660 OFFCURVE",
"66 498 CURVE SMOOTH",
"66 337 OFFCURVE",
"181 235 OFFCURVE",
"361 235 CURVE SMOOTH"
);
},
{
closed = 1;
nodes = (
"279 319 OFFCURVE",
"226 389 OFFCURVE",
"226 516 CURVE SMOOTH",
"226 626 OFFCURVE",
"266 679 OFFCURVE",
"349 679 CURVE SMOOTH",
"444 679 OFFCURVE",
"497 611 OFFCURVE",
"497 481 CURVE SMOOTH",
"497 372 OFFCURVE",
"457 319 OFFCURVE",
"374 319 CURVE SMOOTH"
);
},
{
closed = 1;
nodes = (
"747 754 LINE",
"648 745 OFFCURVE",
"574 740 OFFCURVE",
"541 740 CURVE SMOOTH",
"470 740 OFFCURVE",
"457 763 OFFCURVE",
"363 763 CURVE",
"508 656 LINE",
"737 644 LINE"
);
},
{
closed = 1;
nodes = (
"590 -350 OFFCURVE",
"764 -231 OFFCURVE",
"764 -67 CURVE SMOOTH",
"764 39 OFFCURVE",
"690 98 OFFCURVE",
"557 98 CURVE SMOOTH",
"329 98 LINE SMOOTH",
"263 98 OFFCURVE",
"235 118 OFFCURVE",
"235 166 CURVE SMOOTH",
"235 209 OFFCURVE",
"259 248 OFFCURVE",
"309 285 CURVE",
"248 295 LINE",
"158 250 OFFCURVE",
"114 189 OFFCURVE",
"114 108 CURVE SMOOTH",
"114 10 OFFCURVE",
"179 -44 OFFCURVE",
"295 -44 CURVE SMOOTH",
"523 -44 LINE SMOOTH",
"589 -44 OFFCURVE",
"617 -65 OFFCURVE",
"617 -114 CURVE SMOOTH",
"617 -203 OFFCURVE",
"526 -260 OFFCURVE",
"382 -260 CURVE SMOOTH",
"246 -260 OFFCURVE",
"170 -209 OFFCURVE",
"170 -116 CURVE SMOOTH",
"170 -69 OFFCURVE",
"190 -30 OFFCURVE",
"232 3 CURVE",
"176 35 LINE",
"78 -13 OFFCURVE",
"31 -73 OFFCURVE",
"31 -149 CURVE SMOOTH",
"31 -272 OFFCURVE",
"155 -350 OFFCURVE",
"349 -350 CURVE SMOOTH"
);
}
);
width = 778;
},
{
anchors = (
{
name = top;
position = "{385, 746}";
}
);
layerId = "106916A4-8C74-485A-AD82-F5ABB18EF495";
paths = (
{
closed = 1;
nodes = (
"579 245 OFFCURVE",
"708 351 OFFCURVE",
"708 517 CURVE SMOOTH",
"708 676 OFFCURVE",
"532 789 OFFCURVE",
"378 789 CURVE SMOOTH",
"176 789 OFFCURVE",
"48 683 OFFCURVE",
"48 516 CURVE SMOOTH",
"48 350 OFFCURVE",
"176 245 OFFCURVE",
"377 245 CURVE SMOOTH"
);
},
{
closed = 1;
nodes = (
"314 354 OFFCURVE",
"274 418 OFFCURVE",
"274 533 CURVE SMOOTH",
"274 632 OFFCURVE",
"304 680 OFFCURVE",
"367 680 CURVE SMOOTH",
"441 680 OFFCURVE",
"482 616 OFFCURVE",
"482 501 CURVE SMOOTH",
"482 402 OFFCURVE",
"451 354 OFFCURVE",
"387 354 CURVE SMOOTH"
);
},
{
closed = 1;
nodes = (
"805 780 LINE",
"706 771 OFFCURVE",
"610 766 OFFCURVE",
"577 766 CURVE SMOOTH",
"506 766 OFFCURVE",
"471 789 OFFCURVE",
"378 789 CURVE",
"543 656 LINE",
"792 644 LINE"
);
},
{
closed = 1;
nodes = (
"628 -350 OFFCURVE",
"820 -223 OFFCURVE",
"820 -48 CURVE SMOOTH",
"820 68 OFFCURVE",
"735 132 OFFCURVE",
"582 132 CURVE SMOOTH",
"340 132 LINE SMOOTH",
"293 132 OFFCURVE",
"273 147 OFFCURVE",
"273 182 CURVE SMOOTH",
"273 220 OFFCURVE",
"297 257 OFFCURVE",
"347 295 CURVE",
"266 309 LINE",
"158 255 OFFCURVE",
"106 187 OFFCURVE",
"106 100 CURVE SMOOTH",
"106 0 OFFCURVE",
"174 -56 OFFCURVE",
"296 -56 CURVE SMOOTH",
"538 -56 LINE SMOOTH",
"585 -56 OFFCURVE",
"605 -71 OFFCURVE",
"605 -109 CURVE SMOOTH",
"605 -186 OFFCURVE",
"522 -236 OFFCURVE",
"394 -236 CURVE SMOOTH",
"273 -236 OFFCURVE",
"206 -193 OFFCURVE",
"206 -116 CURVE SMOOTH",
"206 -72 OFFCURVE",
"229 -33 OFFCURVE",
"278 5 CURVE",
"216 39 LINE",
"82 -1 OFFCURVE",
"17 -62 OFFCURVE",
"17 -148 CURVE SMOOTH",
"17 -272 OFFCURVE",
"151 -350 OFFCURVE",
"362 -350 CURVE SMOOTH"
);
}
);
width = 820;
}
);
leftKerningGroup = g;
rightKerningGroup = g;
unicode = 0067;
},
{
color = 4;
glyphname = h;
layers = (
{
anchors = (
{
name = bar;
position = "{312, 889}";
},
{
name = bottom;
position = "{471, 0}";
},
{
name = top;
position = "{244, 1086}";
}
);
components = (
{
name = _serif.left;
transform = "{1, 0, 0, 1, -17, 0}";
},
{
name = _serif.right;
transform = "{1, 0, 0, 1, 435, 0}";
},
{
name = _serif.headtop;
transform = "{1, 0, 0, 1, 26, 0}";
}
);
layerId = "8D9E6227-A940-4CC2-85D6-810E74B12C63";
paths = (
{
closed = 1;
nodes = (
"312 6 LINE",
"312 1005 LINE",
"152 1034 LINE",
"152 6 LINE"
);
},
{
closed = 1;
nodes = (
"768 6 LINE",
"768 541 LINE SMOOTH",
"768 684 OFFCURVE",
"690 763 OFFCURVE",
"549 763 CURVE SMOOTH",
"433 763 OFFCURVE",
"323 709 OFFCURVE",
"242 613 CURVE",
"262 563 LINE",
"334 620 OFFCURVE",
"403 647 OFFCURVE",
"474 647 CURVE SMOOTH",
"564 647 OFFCURVE",
"608 603 OFFCURVE",
"608 510 CURVE SMOOTH",
"608 6 LINE"
);
}
);
width = 916;
},
{
anchors = (
{
name = bar;
position = "{325, 905}";
},
{
name = bottom;
position = "{488, 0}";
},
{
name = top;
position = "{257, 1092}";
}
);
components = (
{
name = _serif.left;
transform = "{1, 0, 0, 1, 1, 0}";
},
{
name = _serif.right;
transform = "{1, 0, 0, 1, 451, 0}";
},
{
name = _serif.headtop;
transform = "{1, 0, 0, 1, 44, 0}";
}
);
layerId = "106916A4-8C74-485A-AD82-F5ABB18EF495";
paths = (
{
closed = 1;
nodes = (
"356 6 LINE",
"356 1005 LINE",
"124 1034 LINE",
"124 6 LINE"
);
},
{
closed = 1;
nodes = (
"830 6 LINE",
"830 567 LINE SMOOTH",
"830 710 OFFCURVE",
"745 789 OFFCURVE",
"592 789 CURVE SMOOTH",
"458 789 OFFCURVE",
"340 728 OFFCURVE",
"262 619 CURVE",
"280 559 LINE",
"352 616 OFFCURVE",
"416 643 OFFCURVE",
"479 643 CURVE SMOOTH",
"559 643 OFFCURVE",
"598 598 OFFCURVE",
"598 506 CURVE SMOOTH",
"598 6 LINE"
);
}
);
width = 950;
}
);
leftKerningGroup = h;
rightKerningGroup = n;
rightMetricsKey = n;
unicode = 0068;
},
{
color = 4;
glyphname = hbar;
layers = (
{
components = (
{
name = _serif.left;
transform = "{1, 0, 0, 1, -17, 0}";
},
{
name = _serif.right;
transform = "{1, 0, 0, 1, 435, 0}";
},
{
name = _bar;
transform = "{1, 0, 0, 1, 312, -70}";
}
);
layerId = "8D9E6227-A940-4CC2-85D6-810E74B12C63";
paths = (
{
closed = 1;
nodes = (
"312 6 LINE",
"312 1005 LINE",
"152 1034 LINE",
"152 6 LINE"
);
},
{
closed = 1;
nodes = (
"312 944 LINE",
"312 1116 LINE",
"252 1116 LINE",
"173 1113 OFFCURVE",
"96 1099 OFFCURVE",
"36 1077 CURVE",
"32 1037 LINE",
"167 992 LINE",
"152 1019 LINE",
"152 894 LINE"
);
},
{
closed = 1;
nodes = (
"768 6 LINE",
"768 541 LINE SMOOTH",
"768 684 OFFCURVE",
"696 753 OFFCURVE",
"548 753 CURVE SMOOTH",
"427 753 OFFCURVE",
"324 707 OFFCURVE",
"231 611 CURVE",
"252 563 LINE",
"331 615 OFFCURVE",
"396 637 OFFCURVE",
"471 637 CURVE SMOOTH",
"568 637 OFFCURVE",
"608 600 OFFCURVE",
"608 510 CURVE SMOOTH",
"608 6 LINE"
);
}
);
width = 916;
},
{
components = (
{
name = _serif.left;
transform = "{1, 0, 0, 1, 1, 0}";
},
{
name = _serif.right;
transform = "{1, 0, 0, 1, 451, 0}";
},
{
name = _bar;
transform = "{1.04, 0, 0, 1, 325, -54}";
}
);
layerId = "106916A4-8C74-485A-AD82-F5ABB18EF495";
paths = (
{
closed = 1;
nodes = (
"356 6 LINE",
"356 1005 LINE",
"124 1034 LINE",
"124 6 LINE"
);
},
{
closed = 1;
nodes = (
"356 950 LINE",
"356 1122 LINE",
"270 1122 LINE",
"184 1119 OFFCURVE",
"98 1104 OFFCURVE",
"28 1079 CURVE",
"22 1013 LINE",
"157 990 LINE",
"124 1025 LINE",
"124 900 LINE"
);
},
{
closed = 1;
nodes = (
"830 6 LINE",
"830 567 LINE SMOOTH",
"830 710 OFFCURVE",
"752 779 OFFCURVE",
"592 779 CURVE SMOOTH",
"457 779 OFFCURVE",
"346 729 OFFCURVE",
"251 624 CURVE",
"270 574 LINE",
"359 616 OFFCURVE",
"421 633 OFFCURVE",
"479 633 CURVE SMOOTH",
"563 633 OFFCURVE",
"598 596 OFFCURVE",
"598 506 CURVE SMOOTH",
"598 6 LINE"
);
}
);
width = 950;
}
);
leftKerningGroup = h;
leftMetricsKey = h;
rightKerningGroup = n;
rightMetricsKey = h;
unicode = 0127;
},
{
color = 4;
glyphname = idotless;
layers = (
{
anchors = (
{
name = bottom;
position = "{242, 0}";
},
{
name = ogonek;
position = "{410, 0}";
},
{
name = top;
position = "{227, 746}";
}
);
components = (
{
name = _serif;
transform = "{1, 0, 0, 1, -3, 0}";
}
);
layerId = "8D9E6227-A940-4CC2-85D6-810E74B12C63";
paths = (
{
closed = 1;
nodes = (
"326 6 LINE",
"326 694 LINE",
"166 675 LINE",
"166 6 LINE"
);
},
{
closed = 1;
nodes = (
"326 596 LINE",
"326 755 LINE",
"282 755 LINE",
"194 747 OFFCURVE",
"114 727 OFFCURVE",
"56 701 CURVE",
"52 659 LINE",
"190 593 LINE",
"166 637 LINE",
"166 509 LINE"
);
}
);
width = 480;
},
{
anchors = (
{
name = bottom;
position = "{250, 0}";
},
{
name = ogonek;
position = "{418, 0}";
},
{
name = top;
position = "{235, 746}";
}
);
components = (
{
name = _serif;
transform = "{1, 0, 0, 1, 5, 0}";
}
);
layerId = "106916A4-8C74-485A-AD82-F5ABB18EF495";
paths = (
{
closed = 1;
nodes = (
"370 6 LINE",
"370 720 LINE",
"138 701 LINE",
"138 6 LINE"
);
},
{
closed = 1;
nodes = (
"370 622 LINE",
"370 781 LINE",
"306 781 LINE",
"211 773 OFFCURVE",
"118 751 OFFCURVE",
"46 719 CURVE",
"40 651 LINE",
"178 575 LINE",
"138 643 LINE",
"138 515 LINE"
);
}
);
width = 496;
}
);
leftKerningGroup = i;
rightKerningGroup = i;
unicode = 0131;
},
{
color = 4;
glyphname = iogonek;
layers = (
{
components = (
{
name = idotless;
},
{
name = dotaccentcomb;
transform = "{1, 0, 0, 1, 227, 0}";
}
);
layerId = "8D9E6227-A940-4CC2-85D6-810E74B12C63";
paths = (
{
closed = 1;
nodes = (
"315 -343 OFFCURVE",
"364 -332 OFFCURVE",
"402 -311 CURVE",
"407 -239 LINE",
"371 -248 OFFCURVE",
"338 -253 OFFCURVE",
"314 -253 CURVE SMOOTH",
"261 -253 OFFCURVE",
"235 -229 OFFCURVE",
"235 -179 CURVE SMOOTH",
"235 -96 OFFCURVE",
"306 -32 OFFCURVE",
"433 0 CURVE",
"423 37 LINE",
"214 0 OFFCURVE",
"98 -88 OFFCURVE",
"98 -209 CURVE SMOOTH",
"98 -295 OFFCURVE",
"158 -343 OFFCURVE",
"266 -343 CURVE SMOOTH"
);
}
);
width = 480;
},
{
components = (
{
name = idotless;
transform = "{1, 0, 0, 1, 4, 0}";
},
{
name = dotaccentcomb;
transform = "{1, 0, 0, 1, 235, 0}";
}
);
layerId = "106916A4-8C74-485A-AD82-F5ABB18EF495";
paths = (
{
closed = 1;
nodes = (
"332 -349 OFFCURVE",
"386 -336 OFFCURVE",
"425 -312 CURVE",
"431 -227 LINE",
"395 -235 OFFCURVE",
"364 -239 OFFCURVE",
"344 -239 CURVE SMOOTH",
"297 -239 OFFCURVE",
"275 -217 OFFCURVE",
"275 -172 CURVE SMOOTH",
"275 -100 OFFCURVE",
"329 -49 OFFCURVE",
"457 0 CURVE",
"445 47 LINE",
"206 -4 OFFCURVE",
"91 -88 OFFCURVE",
"91 -209 CURVE SMOOTH",
"91 -299 OFFCURVE",
"156 -349 OFFCURVE",
"274 -349 CURVE SMOOTH"
);
}
);
width = 496;
}
);
leftKerningGroup = i;
rightKerningGroup = i;
unicode = 012F;
},
{
color = 4;
glyphname = jdotless;
layers = (
{
anchors = (
{
name = top;
position = "{208, 746}";
}
);
layerId = "8D9E6227-A940-4CC2-85D6-810E74B12C63";
paths = (
{
closed = 1;
nodes = (
"194 -298 OFFCURVE",
"258 -220 OFFCURVE",
"286 -119 CURVE SMOOTH",
"300 -68 OFFCURVE",
"307 4 OFFCURVE",
"307 105 CURVE SMOOTH",
"307 678 LINE",
"147 678 LINE",
"147 70 LINE SMOOTH",
"147 -90 OFFCURVE",
"125 -191 OFFCURVE",
"67 -265 CURVE SMOOTH",
"38 -300 LINE",
"89 -342 LINE"
);
},
{
closed = 1;
nodes = (
"307 596 LINE",
"307 755 LINE",
"263 755 LINE",
"175 747 OFFCURVE",
"95 727 OFFCURVE",
"37 701 CURVE",
"33 659 LINE",
"171 593 LINE",
"147 637 LINE",
"147 509 LINE"
);
}
);
width = 431;
},
{
anchors = (
{
name = top;
position = "{216, 746}";
}
);
layerId = "106916A4-8C74-485A-AD82-F5ABB18EF495";
paths = (
{
closed = 1;
nodes = (
"228 -293 OFFCURVE",
"303 -215 OFFCURVE",
"330 -119 CURVE SMOOTH",
"344 -67 OFFCURVE",
"351 8 OFFCURVE",
"351 113 CURVE SMOOTH",
"351 720 LINE",
"119 701 LINE",
"119 62 LINE SMOOTH",
"119 -107 OFFCURVE",
"97 -203 OFFCURVE",
"45 -265 CURVE SMOOTH",
"25 -289 LINE",
"97 -348 LINE"
);
},
{
closed = 1;
nodes = (
"351 622 LINE",
"351 781 LINE",
"287 781 LINE",
"192 773 OFFCURVE",
"99 751 OFFCURVE",
"27 719 CURVE",
"21 651 LINE",
"159 575 LINE",
"119 643 LINE",
"119 515 LINE"
);
}
);
width = 447;
}
);
leftKerningGroup = j;
rightKerningGroup = i;
unicode = 0237;
},
{
color = 4;
glyphname = k;
layers = (
{
anchors = (
{
name = bottom;
position = "{474, 0}";
}
);
components = (
{
name = _serif.headtop;
transform = "{1, 0, 0, 1, 26, 0}";
}
);
layerId = "8D9E6227-A940-4CC2-85D6-810E74B12C63";
paths = (
{
closed = 1;
nodes = (
"312 6 LINE",
"312 1054 LINE",
"152 1054 LINE",
"152 6 LINE"
);
},
{
closed = 1;
nodes = (
"424 344 LINE",
"424 440 LINE",
"227 440 LINE",
"227 344 LINE"
);
},
{
closed = 1;
nodes = (
"854 0 LINE",
"859 66 LINE",
"737 95 LINE",
"808 61 LINE",
"483 462 LINE",
"488 393 LINE",
"774 692 LINE",
"712 643 LINE",
"751 652 OFFCURVE",
"790 664 OFFCURVE",
"822 682 CURVE",
"827 746 LINE",
"482 746 LINE",
"477 680 LINE",
"601 651 LINE",
"625 697 LINE",
"365 415 LINE",
"365 367 LINE",
"647 0 LINE"
);
},
{
closed = 1;
nodes = (
"405 0 LINE",
"410 64 LINE",
"296 91 LINE",
"312 25 LINE",
"312 162 LINE",
"152 162 LINE",
"152 25 LINE",
"171 99 LINE",
"132 90 OFFCURVE",
"94 78 OFFCURVE",
"55 60 CURVE",
"50 0 LINE"
);
}
);
width = 871;
},
{
anchors = (
{
name = bottom;
position = "{492, 0}";
}
);
components = (
{
name = _serif.headtop;
transform = "{1, 0, 0, 1, 44, 0}";
}
);
layerId = "106916A4-8C74-485A-AD82-F5ABB18EF495";
paths = (
{
closed = 1;
nodes = (
"356 6 LINE",
"356 1054 LINE",
"124 1054 LINE",
"124 6 LINE"
);
},
{
closed = 1;
nodes = (
"446 345 LINE",
"446 467 LINE",
"245 467 LINE",
"245 345 LINE"
);
},
{
closed = 1;
nodes = (
"898 0 LINE",
"905 90 LINE",
"783 119 LINE",
"872 85 LINE",
"587 470 LINE",
"541 420 LINE",
"844 694 LINE",
"758 645 LINE",
"797 654 OFFCURVE",
"836 666 OFFCURVE",
"866 684 CURVE",
"873 772 LINE",
"528 772 LINE",
"521 682 LINE",
"645 653 LINE",
"665 699 LINE",
"390 442 LINE",
"390 375 LINE",
"649 0 LINE"
);
},
{
closed = 1;
nodes = (
"437 0 LINE",
"444 88 LINE",
"323 114 LINE",
"356 25 LINE",
"356 182 LINE",
"124 182 LINE",
"124 25 LINE",
"161 123 LINE",
"122 114 OFFCURVE",
"84 102 OFFCURVE",
"47 84 CURVE",
"40 0 LINE"
);
}
);
width = 907;
}
);
leftKerningGroup = h;
leftMetricsKey = h;
rightKerningGroup = x;
unicode = 006B;
},
{
color = 4;
glyphname = kgreenlandic;
layers = (
{
layerId = "8D9E6227-A940-4CC2-85D6-810E74B12C63";
paths = (
{
closed = 1;
nodes = (
"864 0 LINE",
"869 66 LINE",
"747 95 LINE",
"818 61 LINE",
"493 450 LINE",
"498 381 LINE",
"784 692 LINE",
"722 643 LINE",
"761 652 OFFCURVE",
"800 664 OFFCURVE",
"832 682 CURVE",
"837 746 LINE",
"492 746 LINE",
"487 680 LINE",
"611 651 LINE",
"635 697 LINE",
"375 403 LINE",
"375 355 LINE",
"657 0 LINE"
);
},
{
closed = 1;
nodes = (
"322 6 LINE",
"322 654 LINE",
"162 654 LINE",
"162 6 LINE"
);
},
{
closed = 1;
nodes = (
"434 332 LINE",
"434 428 LINE",
"237 428 LINE",
"237 332 LINE"
);
},
{
closed = 1;
nodes = (
"322 596 LINE",
"322 755 LINE",
"278 755 LINE",
"190 747 OFFCURVE",
"110 727 OFFCURVE",
"52 701 CURVE",
"48 659 LINE",
"186 593 LINE",
"162 637 LINE",
"162 509 LINE"
);
},
{
closed = 1;
nodes = (
"415 0 LINE",
"420 64 LINE",
"306 91 LINE",
"322 25 LINE",
"322 162 LINE",
"162 162 LINE",
"162 25 LINE",
"181 99 LINE",
"142 90 OFFCURVE",
"104 78 OFFCURVE",
"65 60 CURVE",
"60 0 LINE"
);
}
);
width = 881;
},
{
layerId = "106916A4-8C74-485A-AD82-F5ABB18EF495";
paths = (
{
closed = 1;
nodes = (
"908 0 LINE",
"915 90 LINE",
"793 119 LINE",
"882 85 LINE",
"597 458 LINE",
"551 408 LINE",
"854 694 LINE",
"768 645 LINE",
"807 654 OFFCURVE",
"846 666 OFFCURVE",
"876 684 CURVE",
"883 772 LINE",
"538 772 LINE",
"531 682 LINE",
"655 653 LINE",
"675 699 LINE",
"400 430 LINE",
"400 363 LINE",
"659 0 LINE"
);
},
{
closed = 1;
nodes = (
"366 6 LINE",
"366 654 LINE",
"134 654 LINE",
"134 6 LINE"
);
},
{
closed = 1;
nodes = (
"456 333 LINE",
"456 455 LINE",
"255 455 LINE",
"255 333 LINE"
);
},
{
closed = 1;
nodes = (
"366 622 LINE",
"366 781 LINE",
"302 781 LINE",
"207 773 OFFCURVE",
"114 751 OFFCURVE",
"42 719 CURVE",
"36 651 LINE",
"174 575 LINE",
"134 643 LINE",
"134 515 LINE"
);
},
{
closed = 1;
nodes = (
"447 0 LINE",
"454 88 LINE",
"333 114 LINE",
"366 25 LINE",
"366 182 LINE",
"134 182 LINE",
"134 25 LINE",
"171 123 LINE",
"132 114 OFFCURVE",
"94 102 OFFCURVE",
"57 84 CURVE",
"50 0 LINE"
);
}
);
width = 917;
}
);
leftKerningGroup = n;
leftMetricsKey = n;
rightKerningGroup = x;
rightMetricsKey = k;
unicode = 0138;
},
{
color = 4;
glyphname = l;
layers = (
{
anchors = (
{
name = bottom;
position = "{246, 0}";
},
{
name = top;
position = "{226, 1086}";
},
{
name = topright;
position = "{326, 746}";
}
);
color = 4;
components = (
{
name = _serif.headtop;
transform = "{1, 0, 0, 1, 40, 0}";
}
);
layerId = "8D9E6227-A940-4CC2-85D6-810E74B12C63";
paths = (
{
closed = 1;
nodes = (
"326 6 LINE",
"326 1005 LINE",
"166 1034 LINE",
"166 6 LINE"
);
},
{
closed = 1;
nodes = (
"439 0 LINE",
"444 62 LINE",
"310 91 LINE",
"326 25 LINE",
"326 162 LINE",
"166 162 LINE",
"166 25 LINE",
"185 99 LINE",
"134 87 OFFCURVE",
"93 75 OFFCURVE",
"57 60 CURVE",
"52 0 LINE"
);
}
);
width = 490;
},
{
anchors = (
{
name = bottom;
position = "{254, 0}";
},
{
name = top;
position = "{225, 1092}";
},
{
name = topright;
position = "{370, 746}";
}
);
color = 4;
components = (
{
name = _serif.headtop;
transform = "{1, 0, 0, 1, 58, 0}";
}
);
layerId = "106916A4-8C74-485A-AD82-F5ABB18EF495";
paths = (
{
closed = 1;
nodes = (
"370 6 LINE",
"370 1005 LINE",
"138 1034 LINE",
"138 6 LINE"
);
},
{
closed = 1;
nodes = (
"463 0 LINE",
"470 86 LINE",
"336 115 LINE",
"370 25 LINE",
"370 182 LINE",
"138 182 LINE",
"138 25 LINE",
"175 123 LINE",
"124 111 OFFCURVE",
"83 99 OFFCURVE",
"49 84 CURVE",
"42 0 LINE"
);
}
);
width = 506;
}
);
leftKerningGroup = h;
rightKerningGroup = d;
rightMetricsKey = "=n+4";
unicode = 006C;
},
{
color = 4;
glyphname = lslash;
layers = (
{
components = (
{
alignment = -1;
name = l;
transform = "{1, 0, 0, 1, 24, 0}";
}
);
layerId = "8D9E6227-A940-4CC2-85D6-810E74B12C63";
paths = (
{
closed = 1;
nodes = (
"266 526 LINE",
"274 521 LINE",
"505 635 LINE",
"512 741 LINE",
"274 623 LINE",
"266 628 LINE",
"35 514 LINE",
"28 408 LINE"
);
}
);
width = 534;
},
{
components = (
{
alignment = -1;
name = l;
transform = "{1, 0, 0, 1, 28, 0}";
}
);
layerId = "106916A4-8C74-485A-AD82-F5ABB18EF495";
paths = (
{
closed = 1;
nodes = (
"278 521 LINE",
"286 516 LINE",
"536 638 LINE",
"544 764 LINE",
"286 634 LINE",
"278 639 LINE",
"28 517 LINE",
"20 391 LINE"
);
}
);
width = 558;
}
);
leftKerningGroup = lslash;
rightKerningGroup = lslash;
unicode = 0142;
},
{
color = 4;
glyphname = m;
layers = (
{
anchors = (
{
name = bottom;
position = "{684, 0}";
}
);
components = (
{
name = _serif.head;
transform = "{1, 0, 0, 1, -2, 0}";
},
{
name = _serif.right;
transform = "{1, 0, 0, 1, 875, 0}";
}
);
layerId = "8D9E6227-A940-4CC2-85D6-810E74B12C63";
paths = (
{
closed = 1;
nodes = (
"1208 6 LINE",
"1208 541 LINE SMOOTH",
"1208 684 OFFCURVE",
"1131 763 OFFCURVE",
"995 763 CURVE SMOOTH",
"884 763 OFFCURVE",
"775 709 OFFCURVE",
"693 613 CURVE",
"713 563 LINE",
"786 620 OFFCURVE",
"853 647 OFFCURVE",
"919 647 CURVE SMOOTH",
"1005 647 OFFCURVE",
"1048 603 OFFCURVE",
"1048 510 CURVE SMOOTH",
"1048 6 LINE"
);
},
{
closed = 1;
nodes = (
"419 0 LINE",
"424 62 LINE",
"306 91 LINE",
"322 25 LINE",
"322 162 LINE",
"162 162 LINE",
"162 25 LINE",
"181 99 LINE",
"142 90 OFFCURVE",
"104 78 OFFCURVE",
"65 60 CURVE",
"60 0 LINE"
);
},
{
closed = 1;
nodes = (
"322 6 LINE",
"322 632 LINE",
"162 674 LINE",
"162 6 LINE"
);
},
{
closed = 1;
nodes = (
"861 0 LINE",
"866 62 LINE",
"748 91 LINE",
"764 25 LINE",
"764 162 LINE",
"604 162 LINE",
"604 25 LINE",
"623 99 LINE",
"584 90 OFFCURVE",
"553 78 OFFCURVE",
"525 64 CURVE",
"520 0 LINE"
);
},
{
closed = 1;
nodes = (
"764 6 LINE",
"764 545 LINE SMOOTH",
"764 688 OFFCURVE",
"687 763 OFFCURVE",
"552 763 CURVE SMOOTH",
"442 763 OFFCURVE",
"333 709 OFFCURVE",
"252 613 CURVE",
"272 563 LINE",
"344 620 OFFCURVE",
"412 647 OFFCURVE",
"477 647 CURVE SMOOTH",
"561 647 OFFCURVE",
"604 603 OFFCURVE",
"604 510 CURVE SMOOTH",
"604 6 LINE"
);
}
);
width = 1356;
},
{
anchors = (
{
name = bottom;
position = "{714, 0}";
}
);
components = (
{
name = _serif.head;
transform = "{1, 0, 0, 1, 6, 0}";
},
{
name = _serif.right;
transform = "{1, 0, 0, 1, 917, 0}";
}
);
layerId = "106916A4-8C74-485A-AD82-F5ABB18EF495";
paths = (
{
closed = 1;
nodes = (
"1296 6 LINE",
"1296 567 LINE SMOOTH",
"1296 710 OFFCURVE",
"1212 789 OFFCURVE",
"1061 789 CURVE SMOOTH",
"932 789 OFFCURVE",
"815 732 OFFCURVE",
"734 629 CURVE",
"754 559 LINE",
"826 616 OFFCURVE",
"889 643 OFFCURVE",
"949 643 CURVE SMOOTH",
"1027 643 OFFCURVE",
"1064 598 OFFCURVE",
"1064 506 CURVE SMOOTH",
"1064 6 LINE"
);
},
{
closed = 1;
nodes = (
"451 0 LINE",
"458 86 LINE",
"333 114 LINE",
"366 25 LINE",
"366 182 LINE",
"134 182 LINE",
"134 25 LINE",
"171 123 LINE",
"132 114 OFFCURVE",
"94 102 OFFCURVE",
"57 84 CURVE",
"50 0 LINE"
);
},
{
closed = 1;
nodes = (
"366 6 LINE",
"366 638 LINE",
"134 680 LINE",
"134 6 LINE"
);
},
{
closed = 1;
nodes = (
"907 0 LINE",
"914 86 LINE",
"796 115 LINE",
"830 25 LINE",
"830 182 LINE",
"598 182 LINE",
"598 25 LINE",
"635 122 LINE",
"596 114 OFFCURVE",
"559 102 OFFCURVE",
"531 88 CURVE",
"524 0 LINE"
);
},
{
closed = 1;
nodes = (
"830 6 LINE",
"830 567 LINE SMOOTH",
"830 710 OFFCURVE",
"746 789 OFFCURVE",
"596 789 CURVE SMOOTH",
"468 789 OFFCURVE",
"352 732 OFFCURVE",
"270 629 CURVE",
"290 559 LINE",
"362 616 OFFCURVE",
"425 643 OFFCURVE",
"484 643 CURVE SMOOTH",
"561 643 OFFCURVE",
"598 598 OFFCURVE",
"598 506 CURVE SMOOTH",
"598 6 LINE"
);
}
);
width = 1416;
}
);
leftKerningGroup = n;
leftMetricsKey = n;
rightKerningGroup = n;
rightMetricsKey = n;
unicode = 006D;
},
{
color = 4;
glyphname = n;
layers = (
{
anchors = (
{
name = apostrophe;
position = "{83, 746}";
},
{
name = bottom;
position = "{479, 0}";
},
{
name = top;
position = "{452, 746}";
}
);
components = (
{
name = _serif.left;
transform = "{1, 0, 0, 1, -7, 0}";
},
{
name = _serif.right;
transform = "{1, 0, 0, 1, 441, 0}";
},
{
name = _serif.head;
transform = "{1, 0, 0, 1, -2, 0}";
}
);
layerId = "8D9E6227-A940-4CC2-85D6-810E74B12C63";
paths = (
{
closed = 1;
nodes = (
"774 6 LINE",
"774 541 LINE SMOOTH",
"774 684 OFFCURVE",
"697 763 OFFCURVE",
"558 763 CURVE SMOOTH",
"442 763 OFFCURVE",
"333 709 OFFCURVE",
"252 613 CURVE",
"272 563 LINE",
"344 620 OFFCURVE",
"412 647 OFFCURVE",
"482 647 CURVE SMOOTH",
"571 647 OFFCURVE",
"614 603 OFFCURVE",
"614 510 CURVE SMOOTH",
"614 6 LINE"
);
},
{
closed = 1;
nodes = (
"322 6 LINE",
"322 632 LINE",
"162 674 LINE",
"162 6 LINE"
);
}
);
width = 922;
},
{
anchors = (
{
name = apostrophe;
position = "{81, 746}";
},
{
name = bottom;
position = "{497, 0}";
},
{
name = top;
position = "{470, 746}";
}
);
components = (
{
name = _serif.left;
transform = "{1, 0, 0, 1, 11, 0}";
},
{
name = _serif.right;
transform = "{1, 0, 0, 1, 459, 0}";
},
{
name = _serif.head;
transform = "{1, 0, 0, 1, 6, 0}";
}
);
layerId = "106916A4-8C74-485A-AD82-F5ABB18EF495";
paths = (
{
closed = 1;
nodes = (
"838 6 LINE",
"838 567 LINE SMOOTH",
"838 710 OFFCURVE",
"754 789 OFFCURVE",
"600 789 CURVE SMOOTH",
"473 789 OFFCURVE",
"352 736 OFFCURVE",
"270 629 CURVE",
"290 559 LINE",
"362 616 OFFCURVE",
"426 643 OFFCURVE",
"488 643 CURVE SMOOTH",
"568 643 OFFCURVE",
"606 598 OFFCURVE",
"606 506 CURVE SMOOTH",
"606 6 LINE"
);
},
{
closed = 1;
nodes = (
"366 6 LINE",
"366 638 LINE",
"134 680 LINE",
"134 6 LINE"
);
}
);
width = 958;
}
);
leftKerningGroup = n;
rightKerningGroup = n;
unicode = 006E;
},
{
color = 4;
glyphname = eng;
layers = (
{
components = (
{
name = _serif.left;
transform = "{1, 0, 0, 1, -7, 0}";
},
{
name = _serif.head;
transform = "{1, 0, 0, 1, -2, 0}";
}
);
layerId = "8D9E6227-A940-4CC2-85D6-810E74B12C63";
paths = (
{
closed = 1;
nodes = (
"766 126 LINE",
"766 561 LINE SMOOTH",
"766 691 OFFCURVE",
"692 763 OFFCURVE",
"558 763 CURVE SMOOTH",
"442 763 OFFCURVE",
"333 709 OFFCURVE",
"252 613 CURVE",
"272 563 LINE",
"344 620 OFFCURVE",
"412 647 OFFCURVE",
"482 647 CURVE SMOOTH",
"566 647 OFFCURVE",
"606 609 OFFCURVE",
"606 530 CURVE SMOOTH",
"606 126 LINE"
);
},
{
closed = 1;
nodes = (
"322 6 LINE",
"322 632 LINE",
"162 674 LINE",
"162 6 LINE"
);
},
{
closed = 1;
nodes = (
"653 -298 OFFCURVE",
"717 -220 OFFCURVE",
"745 -119 CURVE SMOOTH",
"759 -68 OFFCURVE",
"766 4 OFFCURVE",
"766 105 CURVE SMOOTH",
"766 378 LINE",
"606 378 LINE",
"606 70 LINE SMOOTH",
"606 -90 OFFCURVE",
"586 -193 OFFCURVE",
"526 -265 CURVE SMOOTH",
"497 -300 LINE",
"548 -342 LINE"
);
}
);
width = 879;
},
{
components = (
{
name = _serif.left;
transform = "{1, 0, 0, 1, 11, 0}";
},
{
name = _serif.head;
transform = "{1, 0, 0, 1, 6, 0}";
}
);
layerId = "106916A4-8C74-485A-AD82-F5ABB18EF495";
paths = (
{
closed = 1;
nodes = (
"830 206 LINE",
"830 587 LINE SMOOTH",
"830 717 OFFCURVE",
"748 789 OFFCURVE",
"600 789 CURVE SMOOTH",
"473 789 OFFCURVE",
"352 736 OFFCURVE",
"270 629 CURVE",
"290 559 LINE",
"362 616 OFFCURVE",
"426 643 OFFCURVE",
"488 643 CURVE SMOOTH",
"562 643 OFFCURVE",
"598 605 OFFCURVE",
"598 526 CURVE SMOOTH",
"598 206 LINE"
);
},
{
closed = 1;
nodes = (
"366 6 LINE",
"366 638 LINE",
"134 680 LINE",
"134 6 LINE"
);
},
{
closed = 1;
nodes = (
"707 -293 OFFCURVE",
"781 -215 OFFCURVE",
"809 -119 CURVE SMOOTH",
"824 -67 OFFCURVE",
"830 8 OFFCURVE",
"830 113 CURVE SMOOTH",
"830 311 LINE",
"598 311 LINE",
"598 62 LINE SMOOTH",
"598 -107 OFFCURVE",
"576 -203 OFFCURVE",
"524 -265 CURVE SMOOTH",
"504 -289 LINE",
"576 -348 LINE"
);
}
);
width = 917;
}
);
leftKerningGroup = n;
leftMetricsKey = n;
rightKerningGroup = n;
rightMetricsKey = j;
unicode = 014B;
},
{
color = 4;
glyphname = nhookleft;
layers = (
{
components = (
{
name = _serif.head;
transform = "{1, 0, 0, 1, -17, 0}";
},
{
name = _serif.right;
transform = "{1, 0, 0, 1, 418, 0}";
}
);
layerId = "8D9E6227-A940-4CC2-85D6-810E74B12C63";
paths = (
{
closed = 1;
nodes = (
"751 126 LINE",
"751 561 LINE SMOOTH",
"751 691 OFFCURVE",
"677 763 OFFCURVE",
"543 763 CURVE SMOOTH",
"427 763 OFFCURVE",
"318 709 OFFCURVE",
"237 613 CURVE",
"257 563 LINE",
"329 620 OFFCURVE",
"397 647 OFFCURVE",
"467 647 CURVE SMOOTH",
"551 647 OFFCURVE",
"591 609 OFFCURVE",
"591 530 CURVE SMOOTH",
"591 126 LINE"
);
},
{
closed = 1;
nodes = (
"307 206 LINE",
"307 632 LINE",
"147 674 LINE",
"147 206 LINE"
);
},
{
closed = 1;
nodes = (
"194 -298 OFFCURVE",
"258 -220 OFFCURVE",
"286 -119 CURVE SMOOTH",
"300 -68 OFFCURVE",
"307 4 OFFCURVE",
"307 105 CURVE SMOOTH",
"307 378 LINE",
"147 378 LINE",
"147 70 LINE SMOOTH",
"147 -90 OFFCURVE",
"127 -193 OFFCURVE",
"67 -265 CURVE SMOOTH",
"38 -300 LINE",
"89 -342 LINE"
);
}
);
width = 899;
},
{
components = (
{
name = _serif.head;
transform = "{1, 0, 0, 1, -9, 0}";
},
{
name = _serif.right;
transform = "{1, 0, 0, 1, 436, 0}";
}
);
layerId = "106916A4-8C74-485A-AD82-F5ABB18EF495";
paths = (
{
closed = 1;
nodes = (
"815 106 LINE",
"815 587 LINE SMOOTH",
"815 717 OFFCURVE",
"733 789 OFFCURVE",
"585 789 CURVE SMOOTH",
"458 789 OFFCURVE",
"337 736 OFFCURVE",
"255 629 CURVE",
"275 559 LINE",
"347 616 OFFCURVE",
"411 643 OFFCURVE",
"473 643 CURVE SMOOTH",
"547 643 OFFCURVE",
"583 605 OFFCURVE",
"583 526 CURVE SMOOTH",
"583 106 LINE"
);
},
{
closed = 1;
nodes = (
"351 206 LINE",
"351 638 LINE",
"119 680 LINE",
"119 206 LINE"
);
},
{
closed = 1;
nodes = (
"228 -293 OFFCURVE",
"302 -215 OFFCURVE",
"330 -119 CURVE SMOOTH",
"345 -67 OFFCURVE",
"351 8 OFFCURVE",
"351 113 CURVE SMOOTH",
"351 311 LINE",
"119 311 LINE",
"119 62 LINE SMOOTH",
"119 -107 OFFCURVE",
"97 -203 OFFCURVE",
"45 -265 CURVE SMOOTH",
"25 -289 LINE",
"97 -348 LINE"
);
}
);
width = 935;
}
);
leftMetricsKey = j;
rightMetricsKey = n;
unicode = 0272;
},
{
color = 4;
glyphname = o;
layers = (
{
anchors = (
{
name = bottom;
position = "{425, 0}";
},
{
name = horn;
position = "{640, 746}";
},
{
name = ogonek;
position = "{571, 0}";
},
{
name = top;
position = "{425, 746}";
}
);
layerId = "8D9E6227-A940-4CC2-85D6-810E74B12C63";
paths = (
{
closed = 1;
nodes = (
"647 -18 OFFCURVE",
"788 134 OFFCURVE",
"788 374 CURVE SMOOTH",
"788 612 OFFCURVE",
"648 764 OFFCURVE",
"427 764 CURVE SMOOTH",
"204 764 OFFCURVE",
"62 611 OFFCURVE",
"62 371 CURVE SMOOTH",
"62 133 OFFCURVE",
"203 -18 OFFCURVE",
"424 -18 CURVE SMOOTH"
);
},
{
closed = 1;
nodes = (
"311 76 OFFCURVE",
"238 191 OFFCURVE",
"238 399 CURVE SMOOTH",
"238 582 OFFCURVE",
"294 670 OFFCURVE",
"409 670 CURVE SMOOTH",
"539 670 OFFCURVE",
"612 555 OFFCURVE",
"612 347 CURVE SMOOTH",
"612 164 OFFCURVE",
"556 76 OFFCURVE",
"441 76 CURVE SMOOTH"
);
}
);
width = 850;
},
{
anchors = (
{
name = bottom;
position = "{441, 0}";
},
{
name = horn;
position = "{656, 746}";
},
{
name = ogonek;
position = "{588, 0}";
},
{
name = top;
position = "{441, 746}";
}
);
layerId = "106916A4-8C74-485A-AD82-F5ABB18EF495";
paths = (
{
closed = 1;
nodes = (
"688 -18 OFFCURVE",
"846 139 OFFCURVE",
"846 387 CURVE SMOOTH",
"846 633 OFFCURVE",
"689 790 OFFCURVE",
"443 790 CURVE SMOOTH",
"194 790 OFFCURVE",
"36 632 OFFCURVE",
"36 384 CURVE SMOOTH",
"36 138 OFFCURVE",
"193 -18 OFFCURVE",
"440 -18 CURVE SMOOTH"
);
},
{
closed = 1;
nodes = (
"351 106 OFFCURVE",
"292 216 OFFCURVE",
"292 413 CURVE SMOOTH",
"292 584 OFFCURVE",
"336 666 OFFCURVE",
"426 666 CURVE SMOOTH",
"531 666 OFFCURVE",
"590 556 OFFCURVE",
"590 359 CURVE SMOOTH",
"590 188 OFFCURVE",
"546 106 OFFCURVE",
"456 106 CURVE SMOOTH"
);
}
);
width = 882;
}
);
leftKerningGroup = o;
rightKerningGroup = o;
unicode = 006F;
},
{
color = 4;
glyphname = oogonek;
layers = (
{
components = (
{
name = o;
}
);
layerId = "8D9E6227-A940-4CC2-85D6-810E74B12C63";
paths = (
{
closed = 1;
nodes = (
"517 -343 OFFCURVE",
"566 -332 OFFCURVE",
"604 -311 CURVE",
"609 -239 LINE",
"573 -248 OFFCURVE",
"540 -253 OFFCURVE",
"516 -253 CURVE SMOOTH",
"463 -253 OFFCURVE",
"437 -229 OFFCURVE",
"437 -179 CURVE SMOOTH",
"437 -73 OFFCURVE",
"550 -8 OFFCURVE",
"601 20 CURVE SMOOTH",
"727 90 OFFCURVE",
"788 210 OFFCURVE",
"788 374 CURVE",
"591 51 LINE",
"405 -4 OFFCURVE",
"301 -97 OFFCURVE",
"301 -209 CURVE SMOOTH",
"301 -295 OFFCURVE",
"361 -343 OFFCURVE",
"468 -343 CURVE SMOOTH"
);
}
);
width = 850;
},
{
components = (
{
name = o;
}
);
layerId = "106916A4-8C74-485A-AD82-F5ABB18EF495";
paths = (
{
closed = 1;
nodes = (
"542 -349 OFFCURVE",
"596 -336 OFFCURVE",
"635 -312 CURVE",
"641 -227 LINE",
"605 -235 OFFCURVE",
"574 -239 OFFCURVE",
"554 -239 CURVE SMOOTH",
"507 -239 OFFCURVE",
"485 -217 OFFCURVE",
"485 -172 CURVE SMOOTH",
"485 -100 OFFCURVE",
"538 -33 OFFCURVE",
"635 20 CURVE SMOOTH",
"698 54 OFFCURVE",
"846 136 OFFCURVE",
"846 387 CURVE",
"622 57 LINE",
"416 5 OFFCURVE",
"301 -90 OFFCURVE",
"301 -209 CURVE SMOOTH",
"301 -299 OFFCURVE",
"366 -349 OFFCURVE",
"484 -349 CURVE SMOOTH"
);
}
);
width = 882;
}
);
leftKerningGroup = o;
leftMetricsKey = o;
rightKerningGroup = o;
rightMetricsKey = o;
unicode = 01EB;
},
{
color = 4;
glyphname = oslash;
layers = (
{
anchors = (
{
name = top;
position = "{425, 746}";
}
);
guideLines = (
{
angle = 270;
position = "{62, 371}";
},
{
angle = 270;
position = "{788, 371}";
}
);
layerId = "8D9E6227-A940-4CC2-85D6-810E74B12C63";
paths = (
{
closed = 1;
nodes = (
"647 -18 OFFCURVE",
"788 134 OFFCURVE",
"788 374 CURVE SMOOTH",
"788 608 OFFCURVE",
"644 764 OFFCURVE",
"427 764 CURVE SMOOTH",
"204 764 OFFCURVE",
"62 611 OFFCURVE",
"62 371 CURVE SMOOTH",
"62 137 OFFCURVE",
"207 -18 OFFCURVE",
"424 -18 CURVE SMOOTH"
);
},
{
closed = 1;
nodes = (
"307 76 OFFCURVE",
"236 189 OFFCURVE",
"236 399 CURVE SMOOTH",
"236 582 OFFCURVE",
"294 670 OFFCURVE",
"409 670 CURVE SMOOTH",
"543 670 OFFCURVE",
"614 557 OFFCURVE",
"614 347 CURVE SMOOTH",
"614 164 OFFCURVE",
"556 76 OFFCURVE",
"441 76 CURVE SMOOTH"
);
},
{
closed = 1;
nodes = (
"648 588 LINE",
"658 601 LINE",
"778 752 LINE",
"716 805 LINE",
"202 158 LINE",
"192 145 LINE",
"72 -6 LINE",
"134 -59 LINE"
);
}
);
width = 850;
},
{
anchors = (
{
name = top;
position = "{441, 746}";
}
);
guideLines = (
{
angle = 270;
position = "{54, 384}";
},
{
angle = 270;
position = "{864, 387}";
}
);
layerId = "106916A4-8C74-485A-AD82-F5ABB18EF495";
paths = (
{
closed = 1;
nodes = (
"688 -18 OFFCURVE",
"846 139 OFFCURVE",
"846 387 CURVE SMOOTH",
"846 627 OFFCURVE",
"683 790 OFFCURVE",
"443 790 CURVE SMOOTH",
"194 790 OFFCURVE",
"36 632 OFFCURVE",
"36 384 CURVE SMOOTH",
"36 144 OFFCURVE",
"199 -18 OFFCURVE",
"440 -18 CURVE SMOOTH"
);
},
{
closed = 1;
nodes = (
"343 102 OFFCURVE",
"286 209 OFFCURVE",
"286 413 CURVE SMOOTH",
"286 586 OFFCURVE",
"332 670 OFFCURVE",
"426 670 CURVE SMOOTH",
"539 670 OFFCURVE",
"596 563 OFFCURVE",
"596 359 CURVE SMOOTH",
"596 186 OFFCURVE",
"550 102 OFFCURVE",
"456 102 CURVE SMOOTH"
);
},
{
closed = 1;
nodes = (
"655 582 LINE",
"673 600 LINE",
"810 772 LINE",
"736 835 LINE",
"227 190 LINE",
"209 172 LINE",
"72 0 LINE",
"146 -63 LINE"
);
}
);
width = 882;
}
);
leftKerningGroup = o;
leftMetricsKey = o;
rightKerningGroup = o;
rightMetricsKey = o;
unicode = 00F8;
},
{
color = 4;
glyphname = oe;
layers = (
{
layerId = "8D9E6227-A940-4CC2-85D6-810E74B12C63";
paths = (
{
closed = 1;
nodes = (
"615 -18 OFFCURVE",
"730 122 OFFCURVE",
"730 374 CURVE SMOOTH",
"730 625 OFFCURVE",
"616 764 OFFCURVE",
"411 764 CURVE SMOOTH",
"198 764 OFFCURVE",
"62 611 OFFCURVE",
"62 371 CURVE SMOOTH",
"62 133 OFFCURVE",
"196 -18 OFFCURVE",
"408 -18 CURVE SMOOTH"
);
},
{
closed = 1;
nodes = (
"1039 -16 OFFCURVE",
"1118 5 OFFCURVE",
"1187 47 CURVE",
"1194 140 LINE",
"1119 112 OFFCURVE",
"1054 99 OFFCURVE",
"995 99 CURVE SMOOTH",
"828 99 OFFCURVE",
"748 204 OFFCURVE",
"748 419 CURVE SMOOTH",
"748 590 OFFCURVE",
"798 673 OFFCURVE",
"900 673 CURVE SMOOTH",
"1004 673 OFFCURVE",
"1047 587 OFFCURVE",
"1047 383 CURVE",
"1213 352 LINE",
"1216 371 OFFCURVE",
"1217 390 OFFCURVE",
"1217 410 CURVE SMOOTH",
"1217 638 OFFCURVE",
"1112 764 OFFCURVE",
"923 764 CURVE SMOOTH",
"718 764 OFFCURVE",
"604 620 OFFCURVE",
"604 362 CURVE SMOOTH",
"604 107 OFFCURVE",
"715 -16 OFFCURVE",
"945 -16 CURVE SMOOTH"
);
},
{
closed = 1;
nodes = (
"304 75 OFFCURVE",
"236 192 OFFCURVE",
"236 401 CURVE SMOOTH",
"236 582 OFFCURVE",
"287 671 OFFCURVE",
"393 671 CURVE SMOOTH",
"514 671 OFFCURVE",
"582 554 OFFCURVE",
"582 345 CURVE SMOOTH",
"582 164 OFFCURVE",
"531 75 OFFCURVE",
"425 75 CURVE SMOOTH"
);
},
{
closed = 1;
nodes = (
"1213 352 LINE",
"1197 432 LINE",
"641 432 LINE",
"641 352 LINE"
);
}
);
width = 1275;
},
{
layerId = "106916A4-8C74-485A-AD82-F5ABB18EF495";
paths = (
{
closed = 1;
nodes = (
"647 -18 OFFCURVE",
"770 127 OFFCURVE",
"770 387 CURVE SMOOTH",
"770 646 OFFCURVE",
"648 790 OFFCURVE",
"429 790 CURVE SMOOTH",
"189 790 OFFCURVE",
"36 632 OFFCURVE",
"36 384 CURVE SMOOTH",
"36 138 OFFCURVE",
"188 -18 OFFCURVE",
"426 -18 CURVE SMOOTH"
);
},
{
closed = 1;
nodes = (
"1076 -16 OFFCURVE",
"1183 9 OFFCURVE",
"1250 53 CURVE",
"1260 181 LINE",
"1191 155 OFFCURVE",
"1116 140 OFFCURVE",
"1059 140 CURVE SMOOTH",
"890 140 OFFCURVE",
"808 242 OFFCURVE",
"808 454 CURVE SMOOTH",
"808 598 OFFCURVE",
"846 668 OFFCURVE",
"925 668 CURVE SMOOTH",
"1008 668 OFFCURVE",
"1043 588 OFFCURVE",
"1043 396 CURVE",
"1279 349 LINE",
"1282 367 OFFCURVE",
"1283 403 OFFCURVE",
"1283 423 CURVE SMOOTH",
"1283 659 OFFCURVE",
"1164 790 OFFCURVE",
"949 790 CURVE SMOOTH",
"727 790 OFFCURVE",
"586 629 OFFCURVE",
"586 375 CURVE SMOOTH",
"586 124 OFFCURVE",
"724 -16 OFFCURVE",
"971 -16 CURVE SMOOTH"
);
},
{
closed = 1;
nodes = (
"344 106 OFFCURVE",
"290 216 OFFCURVE",
"290 414 CURVE SMOOTH",
"290 584 OFFCURVE",
"330 666 OFFCURVE",
"413 666 CURVE SMOOTH",
"510 666 OFFCURVE",
"564 556 OFFCURVE",
"564 358 CURVE SMOOTH",
"564 188 OFFCURVE",
"524 106 OFFCURVE",
"441 106 CURVE SMOOTH"
);
},
{
closed = 1;
nodes = (
"1279 349 LINE",
"1263 449 LINE",
"697 449 LINE",
"697 349 LINE"
);
}
);
width = 1319;
}
);
leftKerningGroup = o;
leftMetricsKey = o;
rightKerningGroup = o;
rightMetricsKey = e;
unicode = 0153;
},
{
color = 4;
glyphname = p;
layers = (
{
components = (
{
name = _serif.head;
transform = "{1, 0, 0, 1, -23, 0}";
}
);
layerId = "8D9E6227-A940-4CC2-85D6-810E74B12C63";
paths = (
{
closed = 1;
nodes = (
"657 -18 OFFCURVE",
"807 144 OFFCURVE",
"807 398 CURVE SMOOTH",
"807 622 OFFCURVE",
"691 764 OFFCURVE",
"509 764 CURVE SMOOTH",
"404 764 OFFCURVE",
"315 716 OFFCURVE",
"231 616 CURVE",
"250 573 LINE",
"315 624 OFFCURVE",
"376 648 OFFCURVE",
"437 648 CURVE SMOOTH",
"564 648 OFFCURVE",
"635 546 OFFCURVE",
"635 363 CURVE SMOOTH",
"635 179 OFFCURVE",
"563 76 OFFCURVE",
"433 76 CURVE SMOOTH",
"367 76 OFFCURVE",
"299 103 OFFCURVE",
"242 151 CURVE",
"210 76 LINE",
"250 13 OFFCURVE",
"319 -18 OFFCURVE",
"422 -18 CURVE SMOOTH"
);
},
{
closed = 1;
nodes = (
"442 -320 LINE",
"447 -258 LINE",
"285 -230 LINE",
"301 -295 LINE",
"301 -158 LINE",
"141 -158 LINE",
"141 -295 LINE",
"160 -221 LINE",
"121 -230 OFFCURVE",
"83 -242 OFFCURVE",
"44 -260 CURVE",
"39 -320 LINE"
);
},
{
closed = 1;
nodes = (
"301 -309 LINE",
"301 631 LINE",
"141 672 LINE",
"141 -309 LINE"
);
}
);
width = 863;
},
{
components = (
{
name = _serif.head;
transform = "{1, 0, 0, 1, -15, 0}";
}
);
layerId = "106916A4-8C74-485A-AD82-F5ABB18EF495";
paths = (
{
closed = 1;
nodes = (
"711 -18 OFFCURVE",
"867 149 OFFCURVE",
"867 411 CURVE SMOOTH",
"867 643 OFFCURVE",
"744 790 OFFCURVE",
"551 790 CURVE SMOOTH",
"438 790 OFFCURVE",
"340 739 OFFCURVE",
"249 632 CURVE",
"268 569 LINE",
"331 620 OFFCURVE",
"388 644 OFFCURVE",
"443 644 CURVE SMOOTH",
"554 644 OFFCURVE",
"615 548 OFFCURVE",
"615 375 CURVE SMOOTH",
"615 202 OFFCURVE",
"553 106 OFFCURVE",
"442 106 CURVE SMOOTH",
"382 106 OFFCURVE",
"317 133 OFFCURVE",
"260 181 CURVE",
"228 76 LINE",
"281 13 OFFCURVE",
"359 -18 OFFCURVE",
"465 -18 CURVE SMOOTH"
);
},
{
closed = 1;
nodes = (
"474 -320 LINE",
"481 -234 LINE",
"312 -208 LINE",
"345 -295 LINE",
"345 -138 LINE",
"113 -138 LINE",
"113 -295 LINE",
"150 -197 LINE",
"111 -206 OFFCURVE",
"73 -218 OFFCURVE",
"36 -236 CURVE",
"29 -320 LINE"
);
},
{
closed = 1;
nodes = (
"345 -309 LINE",
"345 631 LINE",
"113 672 LINE",
"113 -309 LINE"
);
}
);
width = 897;
}
);
leftKerningGroup = n;
rightKerningGroup = o;
rightMetricsKey = "=o-6";
unicode = 0070;
},
{
color = 4;
glyphname = thorn;
layers = (
{
components = (
{
name = _serif.headtop;
transform = "{1, 0, 0, 1, -2, 0}";
}
);
layerId = "8D9E6227-A940-4CC2-85D6-810E74B12C63";
paths = (
{
closed = 1;
nodes = (
"640 -18 OFFCURVE",
"790 144 OFFCURVE",
"790 398 CURVE SMOOTH",
"790 622 OFFCURVE",
"674 764 OFFCURVE",
"492 764 CURVE SMOOTH",
"387 764 OFFCURVE",
"298 716 OFFCURVE",
"214 616 CURVE",
"233 573 LINE",
"298 624 OFFCURVE",
"359 648 OFFCURVE",
"420 648 CURVE SMOOTH",
"547 648 OFFCURVE",
"618 546 OFFCURVE",
"618 363 CURVE SMOOTH",
"618 179 OFFCURVE",
"546 76 OFFCURVE",
"416 76 CURVE SMOOTH",
"350 76 OFFCURVE",
"282 103 OFFCURVE",
"225 151 CURVE",
"193 76 LINE",
"233 13 OFFCURVE",
"302 -18 OFFCURVE",
"405 -18 CURVE SMOOTH"
);
},
{
closed = 1;
nodes = (
"425 -320 LINE",
"430 -258 LINE",
"268 -230 LINE",
"284 -295 LINE",
"284 -158 LINE",
"124 -158 LINE",
"124 -295 LINE",
"143 -221 LINE",
"104 -230 OFFCURVE",
"66 -242 OFFCURVE",
"27 -260 CURVE",
"22 -320 LINE"
);
},
{
closed = 1;
nodes = (
"284 -309 LINE",
"284 1031 LINE",
"124 1072 LINE",
"124 -309 LINE"
);
}
);
width = 846;
},
{
components = (
{
name = _serif.headtop;
transform = "{1, 0, 0, 1, 16, 0}";
}
);
layerId = "106916A4-8C74-485A-AD82-F5ABB18EF495";
paths = (
{
closed = 1;
nodes = (
"694 -18 OFFCURVE",
"850 149 OFFCURVE",
"850 411 CURVE SMOOTH",
"850 643 OFFCURVE",
"727 790 OFFCURVE",
"534 790 CURVE SMOOTH",
"421 790 OFFCURVE",
"323 739 OFFCURVE",
"232 632 CURVE",
"251 569 LINE",
"314 620 OFFCURVE",
"371 644 OFFCURVE",
"426 644 CURVE SMOOTH",
"537 644 OFFCURVE",
"598 548 OFFCURVE",
"598 375 CURVE SMOOTH",
"598 202 OFFCURVE",
"536 106 OFFCURVE",
"425 106 CURVE SMOOTH",
"365 106 OFFCURVE",
"300 133 OFFCURVE",
"243 181 CURVE",
"211 76 LINE",
"264 13 OFFCURVE",
"342 -18 OFFCURVE",
"448 -18 CURVE SMOOTH"
);
},
{
closed = 1;
nodes = (
"457 -320 LINE",
"464 -234 LINE",
"295 -208 LINE",
"328 -295 LINE",
"328 -138 LINE",
"96 -138 LINE",
"96 -295 LINE",
"133 -197 LINE",
"94 -206 OFFCURVE",
"56 -218 OFFCURVE",
"19 -236 CURVE",
"12 -320 LINE"
);
},
{
closed = 1;
nodes = (
"328 -309 LINE",
"328 1031 LINE",
"96 1072 LINE",
"96 -309 LINE"
);
}
);
width = 880;
}
);
leftKerningGroup = b;
leftMetricsKey = b;
rightKerningGroup = o;
rightMetricsKey = p;
unicode = 00FE;
},
{
color = 4;
glyphname = q;
layers = (
{
color = 4;
layerId = "8D9E6227-A940-4CC2-85D6-810E74B12C63";
paths = (
{
closed = 1;
nodes = (
"459 -18 OFFCURVE",
"548 30 OFFCURVE",
"632 130 CURVE",
"613 173 LINE",
"548 122 OFFCURVE",
"487 98 OFFCURVE",
"426 98 CURVE SMOOTH",
"299 98 OFFCURVE",
"228 200 OFFCURVE",
"228 383 CURVE SMOOTH",
"228 567 OFFCURVE",
"300 670 OFFCURVE",
"430 670 CURVE SMOOTH",
"496 670 OFFCURVE",
"564 643 OFFCURVE",
"621 595 CURVE",
"653 670 LINE",
"613 733 OFFCURVE",
"544 764 OFFCURVE",
"441 764 CURVE SMOOTH",
"206 764 OFFCURVE",
"56 602 OFFCURVE",
"56 348 CURVE SMOOTH",
"56 124 OFFCURVE",
"172 -18 OFFCURVE",
"354 -18 CURVE SMOOTH"
);
},
{
closed = 1;
nodes = (
"823 -320 LINE",
"828 -258 LINE",
"706 -229 LINE",
"722 -295 LINE",
"722 -158 LINE",
"562 -158 LINE",
"562 -295 LINE",
"581 -223 LINE",
"524 -231 OFFCURVE",
"468 -244 OFFCURVE",
"425 -260 CURVE",
"420 -320 LINE"
);
},
{
closed = 1;
nodes = (
"722 -311 LINE",
"722 644 LINE",
"728 746 LINE",
"660 746 LINE",
"645 736 OFFCURVE",
"629 722 OFFCURVE",
"616 706 CURVE",
"562 659 LINE",
"562 -311 LINE"
);
}
);
width = 848;
},
{
color = 4;
layerId = "106916A4-8C74-485A-AD82-F5ABB18EF495";
paths = (
{
closed = 1;
nodes = (
"459 -18 OFFCURVE",
"557 33 OFFCURVE",
"648 140 CURVE",
"629 203 LINE",
"566 152 OFFCURVE",
"509 128 OFFCURVE",
"454 128 CURVE SMOOTH",
"343 128 OFFCURVE",
"282 224 OFFCURVE",
"282 397 CURVE SMOOTH",
"282 570 OFFCURVE",
"344 666 OFFCURVE",
"455 666 CURVE SMOOTH",
"515 666 OFFCURVE",
"580 639 OFFCURVE",
"637 591 CURVE",
"669 696 LINE",
"616 759 OFFCURVE",
"538 790 OFFCURVE",
"432 790 CURVE SMOOTH",
"186 790 OFFCURVE",
"30 623 OFFCURVE",
"30 361 CURVE SMOOTH",
"30 129 OFFCURVE",
"153 -18 OFFCURVE",
"346 -18 CURVE SMOOTH"
);
},
{
closed = 1;
nodes = (
"873 -320 LINE",
"880 -234 LINE",
"751 -206 LINE",
"784 -295 LINE",
"784 -138 LINE",
"552 -138 LINE",
"552 -295 LINE",
"589 -200 LINE",
"532 -209 OFFCURVE",
"477 -222 OFFCURVE",
"435 -236 CURVE",
"428 -320 LINE"
);
},
{
closed = 1;
nodes = (
"784 -311 LINE",
"784 628 LINE",
"792 772 LINE",
"694 772 LINE",
"672 757 OFFCURVE",
"649 737 OFFCURVE",
"630 714 CURVE",
"552 696 LINE",
"552 -311 LINE"
);
}
);
width = 888;
}
);
leftKerningGroup = o;
leftMetricsKey = "=o-6";
rightKerningGroup = q;
unicode = 0071;
},
{
color = 4;
glyphname = r;
layers = (
{
anchors = (
{
name = bottom;
position = "{262, 0}";
},
{
name = top;
position = "{337, 746}";
}
);
components = (
{
name = _serif.head;
transform = "{1, 0, 0, 1, -2, 0}";
}
);
guideLines = (
{
angle = 265.3893;
position = "{575, 750}";
}
);
layerId = "8D9E6227-A940-4CC2-85D6-810E74B12C63";
paths = (
{
closed = 1;
nodes = (
"322 6 LINE",
"322 595 LINE",
"162 646 LINE",
"162 6 LINE"
);
},
{
closed = 1;
nodes = (
"463 0 LINE",
"468 62 LINE",
"306 90 LINE",
"322 26 LINE",
"322 162 LINE",
"162 162 LINE",
"162 26 LINE",
"181 99 LINE",
"142 90 OFFCURVE",
"104 78 OFFCURVE",
"65 60 CURVE",
"60 0 LINE"
);
},
{
closed = 1;
nodes = (
"344 583 OFFCURVE",
"405 617 OFFCURVE",
"495 617 CURVE SMOOTH",
"515 617 OFFCURVE",
"543 615 OFFCURVE",
"564 612 CURVE",
"575 750 LINE",
"560 755 OFFCURVE",
"539 756 OFFCURVE",
"522 756 CURVE SMOOTH",
"416 756 OFFCURVE",
"341 693 OFFCURVE",
"270 540 CURVE",
"290 500 LINE"
);
}
);
width = 599;
},
{
anchors = (
{
name = bottom;
position = "{270, 0}";
},
{
name = top;
position = "{351, 746}";
}
);
components = (
{
name = _serif.head;
transform = "{1, 0, 0, 1, 6, 0}";
}
);
guideLines = (
{
angle = 265.3893;
position = "{619, 776}";
}
);
layerId = "106916A4-8C74-485A-AD82-F5ABB18EF495";
paths = (
{
closed = 1;
nodes = (
"366 6 LINE",
"366 595 LINE",
"134 646 LINE",
"134 6 LINE"
);
},
{
closed = 1;
nodes = (
"495 0 LINE",
"502 86 LINE",
"333 112 LINE",
"366 25 LINE",
"366 182 LINE",
"134 182 LINE",
"134 25 LINE",
"171 123 LINE",
"132 114 OFFCURVE",
"94 102 OFFCURVE",
"57 84 CURVE",
"50 0 LINE"
);
},
{
closed = 1;
nodes = (
"358 569 OFFCURVE",
"414 603 OFFCURVE",
"491 603 CURVE SMOOTH",
"513 603 OFFCURVE",
"551 600 OFFCURVE",
"586 594 CURVE",
"601 776 LINE",
"589 780 OFFCURVE",
"573 782 OFFCURVE",
"554 782 CURVE SMOOTH",
"433 782 OFFCURVE",
"352 707 OFFCURVE",
"278 526 CURVE",
"298 486 LINE"
);
}
);
width = 621;
}
);
leftKerningGroup = n;
leftMetricsKey = n;
rightKerningGroup = r;
unicode = 0072;
},
{
color = 4;
glyphname = s;
layers = (
{
anchors = (
{
name = bottom;
position = "{322, 0}";
},
{
name = top;
position = "{318, 746}";
}
);
color = 4;
guideLines = (
{
angle = 67.8807;
position = "{264, 311}";
}
);
layerId = "8D9E6227-A940-4CC2-85D6-810E74B12C63";
paths = (
{
closed = 1;
nodes = (
"485 -16 OFFCURVE",
"600 76 OFFCURVE",
"600 221 CURVE SMOOTH",
"600 328 OFFCURVE",
"538 399 OFFCURVE",
"409 440 CURVE SMOOTH",
"327 466 LINE SMOOTH",
"249 491 OFFCURVE",
"216 524 OFFCURVE",
"216 579 CURVE SMOOTH",
"216 640 OFFCURVE",
"255 674 OFFCURVE",
"326 674 CURVE SMOOTH",
"377 674 OFFCURVE",
"436 657 OFFCURVE",
"491 627 CURVE",
"393 721 LINE",
"475 549 LINE",
"557 549 LINE",
"559 607 OFFCURVE",
"554 667 OFFCURVE",
"543 716 CURVE",
"485 746 OFFCURVE",
"413 762 OFFCURVE",
"342 762 CURVE SMOOTH",
"176 762 OFFCURVE",
"70 673 OFFCURVE",
"70 533 CURVE SMOOTH",
"70 424 OFFCURVE",
"133 352 OFFCURVE",
"264 311 CURVE SMOOTH",
"346 285 LINE SMOOTH",
"419 261 OFFCURVE",
"450 228 OFFCURVE",
"450 175 CURVE SMOOTH",
"450 109 OFFCURVE",
"404 72 OFFCURVE",
"321 72 CURVE SMOOTH",
"263 72 OFFCURVE",
"204 90 OFFCURVE",
"156 121 CURVE",
"221 61 LINE",
"139 233 LINE",
"61 233 LINE",
"57 165 OFFCURVE",
"63 97 OFFCURVE",
"74 48 CURVE",
"133 7 OFFCURVE",
"216 -16 OFFCURVE",
"305 -16 CURVE SMOOTH"
);
}
);
width = 662;
},
{
anchors = (
{
name = bottom;
position = "{340, 0}";
},
{
name = top;
position = "{336, 746}";
}
);
color = 4;
guideLines = (
{
angle = 67.8807;
position = "{259, 292}";
}
);
layerId = "106916A4-8C74-485A-AD82-F5ABB18EF495";
paths = (
{
closed = 1;
nodes = (
"528 -16 OFFCURVE",
"658 87 OFFCURVE",
"658 249 CURVE SMOOTH",
"658 359 OFFCURVE",
"595 440 OFFCURVE",
"450 485 CURVE SMOOTH",
"350 516 LINE SMOOTH",
"282 537 OFFCURVE",
"252 562 OFFCURVE",
"252 604 CURVE SMOOTH",
"252 648 OFFCURVE",
"285 672 OFFCURVE",
"344 672 CURVE SMOOTH",
"395 672 OFFCURVE",
"454 655 OFFCURVE",
"509 625 CURVE",
"413 712 LINE",
"505 540 LINE",
"615 540 LINE",
"617 612 OFFCURVE",
"611 681 OFFCURVE",
"599 735 CURVE",
"529 769 OFFCURVE",
"443 788 OFFCURVE",
"360 788 CURVE SMOOTH",
"169 788 OFFCURVE",
"48 688 OFFCURVE",
"48 531 CURVE SMOOTH",
"48 414 OFFCURVE",
"117 336 OFFCURVE",
"259 292 CURVE SMOOTH",
"359 261 LINE SMOOTH",
"423 241 OFFCURVE",
"450 216 OFFCURVE",
"450 176 CURVE SMOOTH",
"450 127 OFFCURVE",
"410 100 OFFCURVE",
"339 100 CURVE SMOOTH",
"281 100 OFFCURVE",
"222 118 OFFCURVE",
"174 149 CURVE",
"237 97 LINE",
"145 269 LINE",
"39 269 LINE",
"35 194 OFFCURVE",
"40 119 OFFCURVE",
"54 56 CURVE",
"124 10 OFFCURVE",
"220 -16 OFFCURVE",
"323 -16 CURVE SMOOTH"
);
}
);
width = 698;
}
);
leftKerningGroup = s;
rightKerningGroup = s;
unicode = 0073;
},
{
color = 4;
glyphname = germandbls;
layers = (
{
layerId = "8D9E6227-A940-4CC2-85D6-810E74B12C63";
paths = (
{
closed = 1;
nodes = (
"780 -16 OFFCURVE",
"883 70 OFFCURVE",
"883 226 CURVE SMOOTH",
"883 487 OFFCURVE",
"597 457 OFFCURVE",
"597 613 CURVE SMOOTH",
"597 727 OFFCURVE",
"752 763 OFFCURVE",
"752 923 CURVE SMOOTH",
"752 1052 OFFCURVE",
"651 1134 OFFCURVE",
"493 1134 CURVE SMOOTH",
"275 1134 OFFCURVE",
"137 978 OFFCURVE",
"137 732 CURVE SMOOTH",
"137 6 LINE",
"297 6 LINE",
"297 792 LINE SMOOTH",
"297 951 OFFCURVE",
"361 1040 OFFCURVE",
"477 1040 CURVE SMOOTH",
"560 1040 OFFCURVE",
"600 995 OFFCURVE",
"600 901 CURVE SMOOTH",
"600 721 OFFCURVE",
"449 738 OFFCURVE",
"449 568 CURVE SMOOTH",
"449 334 OFFCURVE",
"731 377 OFFCURVE",
"731 180 CURVE SMOOTH",
"731 107 OFFCURVE",
"692 72 OFFCURVE",
"612 72 CURVE SMOOTH",
"562 72 OFFCURVE",
"512 85 OFFCURVE",
"471 107 CURVE",
"554 38 LINE",
"472 210 LINE",
"398 210 LINE",
"394 142 OFFCURVE",
"400 73 OFFCURVE",
"411 23 CURVE",
"465 -3 OFFCURVE",
"525 -16 OFFCURVE",
"596 -16 CURVE SMOOTH"
);
},
{
closed = 1;
nodes = (
"297 0 LINE",
"297 162 LINE",
"137 162 LINE",
"137 26 LINE",
"156 99 LINE",
"117 90 OFFCURVE",
"79 78 OFFCURVE",
"40 60 CURVE",
"35 0 LINE"
);
}
);
width = 945;
},
{
layerId = "106916A4-8C74-485A-AD82-F5ABB18EF495";
paths = (
{
closed = 1;
nodes = (
"824 -16 OFFCURVE",
"941 79 OFFCURVE",
"941 251 CURVE SMOOTH",
"941 518 OFFCURVE",
"661 492 OFFCURVE",
"661 637 CURVE SMOOTH",
"661 746 OFFCURVE",
"818 777 OFFCURVE",
"818 929 CURVE SMOOTH",
"818 1058 OFFCURVE",
"705 1140 OFFCURVE",
"527 1140 CURVE SMOOTH",
"271 1140 OFFCURVE",
"109 970 OFFCURVE",
"109 702 CURVE SMOOTH",
"109 6 LINE",
"341 6 LINE",
"341 792 LINE SMOOTH",
"341 936 OFFCURVE",
"396 1016 OFFCURVE",
"494 1016 CURVE SMOOTH",
"560 1016 OFFCURVE",
"592 979 OFFCURVE",
"592 901 CURVE SMOOTH",
"592 739 OFFCURVE",
"455 741 OFFCURVE",
"455 569 CURVE SMOOTH",
"455 328 OFFCURVE",
"731 352 OFFCURVE",
"731 186 CURVE SMOOTH",
"731 128 OFFCURVE",
"698 100 OFFCURVE",
"630 100 CURVE SMOOTH",
"583 100 OFFCURVE",
"533 113 OFFCURVE",
"489 135 CURVE",
"602 64 LINE",
"510 236 LINE",
"408 236 LINE",
"404 161 OFFCURVE",
"409 83 OFFCURVE",
"423 19 CURVE",
"480 -5 OFFCURVE",
"542 -16 OFFCURVE",
"614 -16 CURVE SMOOTH"
);
},
{
closed = 1;
nodes = (
"341 0 LINE",
"341 182 LINE",
"109 182 LINE",
"109 25 LINE",
"146 123 LINE",
"107 114 OFFCURVE",
"69 102 OFFCURVE",
"32 84 CURVE",
"25 0 LINE"
);
}
);
width = 981;
}
);
leftKerningGroup = f;
leftMetricsKey = f;
rightKerningGroup = s;
rightMetricsKey = s;
unicode = 00DF;
},
{
color = 4;
glyphname = t;
layers = (
{
anchors = (
{
name = bar;
position = "{265, 434}";
},
{
name = bottom;
position = "{319, 0}";
},
{
name = top;
position = "{254, 866}";
},
{
name = topright;
position = "{301, 746}";
}
);
layerId = "8D9E6227-A940-4CC2-85D6-810E74B12C63";
paths = (
{
closed = 1;
nodes = (
"406 -12 OFFCURVE",
"467 3 OFFCURVE",
"514 29 CURVE",
"520 115 LINE",
"475 104 OFFCURVE",
"434 98 OFFCURVE",
"405 98 CURVE SMOOTH",
"332 98 OFFCURVE",
"301 135 OFFCURVE",
"301 223 CURVE SMOOTH",
"301 936 LINE",
"187 936 LINE",
"150 746 LINE",
"141 675 LINE",
"141 193 LINE SMOOTH",
"141 55 OFFCURVE",
"207 -12 OFFCURVE",
"343 -12 CURVE SMOOTH"
);
},
{
closed = 1;
nodes = (
"508 650 LINE",
"516 746 LINE",
"150 746 LINE",
"104 745 OFFCURVE",
"58 739 OFFCURVE",
"22 730 CURVE",
"15 650 LINE"
);
}
);
width = 554;
},
{
anchors = (
{
name = bar;
position = "{273, 447}";
},
{
name = bottom;
position = "{327, 0}";
},
{
name = top;
position = "{271, 896}";
},
{
name = topright;
position = "{345, 746}";
}
);
layerId = "106916A4-8C74-485A-AD82-F5ABB18EF495";
paths = (
{
closed = 1;
nodes = (
"435 -12 OFFCURVE",
"502 3 OFFCURVE",
"547 29 CURVE",
"555 145 LINE",
"510 134 OFFCURVE",
"469 128 OFFCURVE",
"440 128 CURVE SMOOTH",
"373 128 OFFCURVE",
"345 162 OFFCURVE",
"345 243 CURVE SMOOTH",
"345 964 LINE",
"182 964 LINE",
"122 772 LINE",
"113 701 LINE",
"113 213 LINE SMOOTH",
"113 61 OFFCURVE",
"193 -12 OFFCURVE",
"359 -12 CURVE SMOOTH"
);
},
{
closed = 1;
nodes = (
"540 646 LINE",
"550 772 LINE",
"122 772 LINE",
"84 763 OFFCURVE",
"44 750 OFFCURVE",
"12 736 CURVE",
"5 646 LINE"
);
}
);
width = 576;
}
);
leftKerningGroup = t;
note = "wider? ";
rightKerningGroup = t;
unicode = 0074;
},
{
color = 4;
glyphname = tcaron;
layers = (
{
components = (
{
name = t;
}
);
layerId = "8D9E6227-A940-4CC2-85D6-810E74B12C63";
paths = (
{
closed = 1;
nodes = (
"568 1095 LINE",
"571 1125 LINE",
"523 1140 OFFCURVE",
"468 1144 OFFCURVE",
"416 1136 CURVE",
"397 829 LINE",
"475 819 LINE"
);
}
);
width = 554;
},
{
components = (
{
name = t;
transform = "{1, 0, 0, 1, 4, 0}";
}
);
layerId = "106916A4-8C74-485A-AD82-F5ABB18EF495";
paths = (
{
closed = 1;
nodes = (
"632 1079 LINE",
"637 1129 LINE",
"577 1148 OFFCURVE",
"507 1152 OFFCURVE",
"440 1142 CURVE",
"421 835 LINE",
"519 822 LINE"
);
}
);
width = 576;
}
);
leftKerningGroup = t;
rightKerningGroup = tcaron;
unicode = 0165;
},
{
color = 4;
glyphname = u;
layers = (
{
anchors = (
{
name = bottom;
position = "{418, 0}";
},
{
name = ogonek;
position = "{813, 0}";
},
{
name = top;
position = "{400, 746}";
}
);
components = (
{
name = _serif.base;
transform = "{1, 0, 0, 1, 435, 0}";
}
);
layerId = "8D9E6227-A940-4CC2-85D6-810E74B12C63";
paths = (
{
closed = 1;
nodes = (
"438 -17 OFFCURVE",
"538 34 OFFCURVE",
"629 141 CURVE",
"610 186 LINE",
"535 126 OFFCURVE",
"465 97 OFFCURVE",
"396 97 CURVE SMOOTH",
"310 97 OFFCURVE",
"273 142 OFFCURVE",
"273 249 CURVE SMOOTH",
"273 659 LINE",
"113 670 LINE",
"113 217 LINE SMOOTH",
"113 59 OFFCURVE",
"180 -17 OFFCURVE",
"322 -17 CURVE SMOOTH"
);
},
{
closed = 1;
nodes = (
"273 591 LINE",
"273 755 LINE",
"229 755 LINE",
"154 753 OFFCURVE",
"81 742 OFFCURVE",
"23 723 CURVE",
"18 673 LINE",
"137 616 LINE",
"113 656 LINE",
"113 553 LINE"
);
},
{
closed = 1;
nodes = (
"719 658 LINE",
"559 668 LINE",
"559 99 LINE",
"719 59 LINE"
);
},
{
closed = 1;
nodes = (
"719 593 LINE",
"719 755 LINE",
"675 755 LINE",
"600 753 OFFCURVE",
"523 742 OFFCURVE",
"459 720 CURVE",
"455 676 LINE",
"583 615 LINE",
"559 656 LINE",
"559 553 LINE"
);
}
);
width = 867;
},
{
anchors = (
{
name = bottom;
position = "{450, 0}";
},
{
name = ogonek;
position = "{861, 0}";
},
{
name = top;
position = "{432, 746}";
}
);
components = (
{
name = _serif.base;
transform = "{1, 0, 0, 1, 467, 0}";
}
);
layerId = "106916A4-8C74-485A-AD82-F5ABB18EF495";
paths = (
{
closed = 1;
nodes = (
"470 -17 OFFCURVE",
"570 34 OFFCURVE",
"661 141 CURVE",
"642 216 LINE",
"567 156 OFFCURVE",
"497 127 OFFCURVE",
"418 127 CURVE SMOOTH",
"350 127 OFFCURVE",
"321 163 OFFCURVE",
"321 249 CURVE SMOOTH",
"321 659 LINE",
"89 670 LINE",
"89 217 LINE SMOOTH",
"89 59 OFFCURVE",
"172 -17 OFFCURVE",
"344 -17 CURVE SMOOTH"
);
},
{
closed = 1;
nodes = (
"321 622 LINE",
"321 781 LINE",
"257 781 LINE",
"166 779 OFFCURVE",
"81 765 OFFCURVE",
"17 741 CURVE",
"10 665 LINE",
"129 598 LINE",
"89 643 LINE",
"89 515 LINE"
);
},
{
closed = 1;
nodes = (
"787 658 LINE",
"555 668 LINE",
"555 99 LINE",
"787 59 LINE"
);
},
{
closed = 1;
nodes = (
"787 622 LINE",
"787 781 LINE",
"723 781 LINE",
"630 779 OFFCURVE",
"540 763 OFFCURVE",
"473 738 CURVE",
"467 668 LINE",
"595 597 LINE",
"555 643 LINE",
"555 515 LINE"
);
}
);
width = 907;
}
);
leftKerningGroup = u;
rightKerningGroup = u;
unicode = 0075;
},
{
color = 4;
glyphname = uhorn;
layers = (
{
anchors = (
{
name = bottom;
position = "{418, 0}";
},
{
name = ogonek;
position = "{813, 0}";
},
{
name = top;
position = "{390, 746}";
}
);
components = (
{
name = _serif.base;
transform = "{1, 0, 0, 1, 435, 0}";
}
);
layerId = "8D9E6227-A940-4CC2-85D6-810E74B12C63";
paths = (
{
closed = 1;
nodes = (
"438 -17 OFFCURVE",
"538 34 OFFCURVE",
"629 141 CURVE",
"610 186 LINE",
"535 126 OFFCURVE",
"465 97 OFFCURVE",
"396 97 CURVE SMOOTH",
"310 97 OFFCURVE",
"273 142 OFFCURVE",
"273 249 CURVE SMOOTH",
"273 659 LINE",
"113 670 LINE",
"113 217 LINE SMOOTH",
"113 59 OFFCURVE",
"180 -17 OFFCURVE",
"322 -17 CURVE SMOOTH"
);
},
{
closed = 1;
nodes = (
"273 591 LINE",
"273 755 LINE",
"229 755 LINE",
"154 753 OFFCURVE",
"81 742 OFFCURVE",
"23 723 CURVE",
"18 673 LINE",
"137 616 LINE",
"113 656 LINE",
"113 553 LINE"
);
},
{
closed = 1;
nodes = (
"719 658 LINE",
"559 668 LINE",
"559 99 LINE",
"719 59 LINE"
);
},
{
closed = 1;
nodes = (
"719 593 LINE",
"719 735 LINE",
"675 735 LINE",
"460 720 LINE",
"455 676 LINE",
"583 615 LINE",
"559 656 LINE",
"559 553 LINE"
);
},
{
closed = 1;
nodes = (
"805 679 OFFCURVE",
"900 747 OFFCURVE",
"900 868 CURVE SMOOTH",
"900 925 OFFCURVE",
"880 978 OFFCURVE",
"845 1017 CURVE",
"799 1000 OFFCURVE",
"754 975 OFFCURVE",
"716 943 CURVE",
"746 908 OFFCURVE",
"760 872 OFFCURVE",
"760 834 CURVE SMOOTH",
"760 780 OFFCURVE",
"731 761 OFFCURVE",
"651 754 CURVE SMOOTH",
"578 748 OFFCURVE",
"532 744 OFFCURVE",
"460 720 CURVE",
"635 679 LINE"
);
}
);
width = 887;
},
{
anchors = (
{
name = bottom;
position = "{450, 0}";
},
{
name = ogonek;
position = "{861, 0}";
},
{
name = top;
position = "{422, 746}";
}
);
components = (
{
name = _serif.base;
transform = "{1, 0, 0, 1, 467, 0}";
}
);
layerId = "106916A4-8C74-485A-AD82-F5ABB18EF495";
paths = (
{
closed = 1;
nodes = (
"470 -17 OFFCURVE",
"570 34 OFFCURVE",
"661 141 CURVE",
"642 216 LINE",
"567 156 OFFCURVE",
"497 127 OFFCURVE",
"418 127 CURVE SMOOTH",
"350 127 OFFCURVE",
"321 163 OFFCURVE",
"321 249 CURVE SMOOTH",
"321 659 LINE",
"89 670 LINE",
"89 217 LINE SMOOTH",
"89 59 OFFCURVE",
"172 -17 OFFCURVE",
"344 -17 CURVE SMOOTH"
);
},
{
closed = 1;
nodes = (
"321 622 LINE",
"321 781 LINE",
"257 781 LINE",
"166 779 OFFCURVE",
"81 765 OFFCURVE",
"17 741 CURVE",
"10 665 LINE",
"129 598 LINE",
"89 643 LINE",
"89 515 LINE"
);
},
{
closed = 1;
nodes = (
"787 658 LINE",
"555 668 LINE",
"555 99 LINE",
"787 59 LINE"
);
},
{
closed = 1;
nodes = (
"787 622 LINE",
"787 751 LINE",
"723 751 LINE",
"473 738 LINE",
"467 668 LINE",
"595 597 LINE",
"555 643 LINE",
"555 515 LINE"
);
},
{
closed = 1;
nodes = (
"846 684 OFFCURVE",
"952 760 OFFCURVE",
"952 897 CURVE SMOOTH",
"952 957 OFFCURVE",
"931 1012 OFFCURVE",
"894 1050 CURVE",
"836 1029 OFFCURVE",
"779 996 OFFCURVE",
"735 958 CURVE",
"760 927 OFFCURVE",
"772 894 OFFCURVE",
"772 857 CURVE SMOOTH",
"772 805 OFFCURVE",
"747 786 OFFCURVE",
"675 779 CURVE SMOOTH",
"603 772 OFFCURVE",
"541 763 OFFCURVE",
"473 738 CURVE",
"655 684 LINE"
);
}
);
width = 927;
}
);
leftKerningGroup = u;
leftMetricsKey = u;
rightKerningGroup = ohorn;
unicode = 01B0;
},
{
color = 4;
glyphname = v;
layers = (
{
layerId = "8D9E6227-A940-4CC2-85D6-810E74B12C63";
paths = (
{
closed = 1;
nodes = (
"740 679 LINE",
"695 643 LINE",
"734 652 OFFCURVE",
"773 664 OFFCURVE",
"805 682 CURVE",
"810 746 LINE",
"520 746 LINE",
"515 680 LINE",
"626 651 LINE",
"620 680 LINE",
"385 0 LINE",
"489 -1 LINE"
);
},
{
closed = 1;
nodes = (
"392 -10 OFFCURVE",
"444 -8 OFFCURVE",
"489 -1 CURVE",
"467 63 LINE",
"261 670 LINE",
"249 645 LINE",
"288 654 OFFCURVE",
"329 666 OFFCURVE",
"357 680 CURVE",
"362 746 LINE",
"14 746 LINE",
"9 680 LINE",
"131 651 LINE",
"86 679 LINE",
"339 -6 LINE"
);
}
);
width = 826;
},
{
layerId = "106916A4-8C74-485A-AD82-F5ABB18EF495";
paths = (
{
closed = 1;
nodes = (
"784 681 LINE",
"721 645 LINE",
"760 654 OFFCURVE",
"799 666 OFFCURVE",
"829 684 CURVE",
"836 772 LINE",
"544 772 LINE",
"537 682 LINE",
"655 654 LINE",
"632 682 LINE",
"406 0 LINE",
"537 -1 LINE"
);
},
{
closed = 1;
nodes = (
"378 -10 OFFCURVE",
"479 -8 OFFCURVE",
"537 -1 CURVE",
"505 62 LINE",
"307 672 LINE",
"285 647 LINE",
"324 656 OFFCURVE",
"362 668 OFFCURVE",
"391 682 CURVE",
"398 772 LINE",
"6 772 LINE",
"-1 682 LINE",
"128 654 LINE",
"58 681 LINE",
"307 -6 LINE"
);
}
);
width = 842;
}
);
leftKerningGroup = v;
rightKerningGroup = v;
unicode = 0076;
},
{
color = 4;
glyphname = w;
layers = (
{
anchors = (
{
name = top;
position = "{626, 736}";
}
);
guideLines = (
{
position = "{169, 175}";
}
);
layerId = "8D9E6227-A940-4CC2-85D6-810E74B12C63";
paths = (
{
closed = 1;
nodes = (
"353 -10 OFFCURVE",
"406 -8 OFFCURVE",
"447 -1 CURVE",
"427 77 LINE",
"259 675 LINE",
"247 645 LINE",
"286 654 OFFCURVE",
"327 666 OFFCURVE",
"355 680 CURVE",
"360 746 LINE",
"16 746 LINE",
"11 680 LINE",
"133 651 LINE",
"89 680 LINE",
"305 -6 LINE"
);
},
{
closed = 1;
nodes = (
"447 -1 LINE",
"664 726 LINE",
"558 727 LINE",
"351 14 LINE"
);
},
{
closed = 1;
nodes = (
"803 -10 OFFCURVE",
"857 -8 OFFCURVE",
"898 -1 CURVE",
"876 77 LINE",
"692 733 LINE",
"649 736 OFFCURVE",
"595 734 OFFCURVE",
"558 727 CURVE",
"565 663 LINE",
"756 -6 LINE"
);
},
{
closed = 1;
nodes = (
"898 -1 LINE",
"1111 678 LINE",
"1068 643 LINE",
"1107 652 OFFCURVE",
"1146 664 OFFCURVE",
"1178 682 CURVE",
"1183 746 LINE",
"897 746 LINE",
"892 680 LINE",
"1003 651 LINE",
"995 679 LINE",
"802 14 LINE"
);
}
);
width = 1201;
},
{
anchors = (
{
name = top;
position = "{638, 736}";
}
);
guideLines = (
{
position = "{195, 175}";
}
);
layerId = "106916A4-8C74-485A-AD82-F5ABB18EF495";
paths = (
{
closed = 1;
nodes = (
"321 -10 OFFCURVE",
"454 -8 OFFCURVE",
"495 -1 CURVE",
"462 76 LINE",
"305 677 LINE",
"283 647 LINE",
"322 656 OFFCURVE",
"363 668 OFFCURVE",
"389 682 CURVE",
"396 772 LINE",
"8 772 LINE",
"1 682 LINE",
"123 653 LINE",
"61 682 LINE",
"273 -6 LINE"
);
},
{
closed = 1;
nodes = (
"495 -1 LINE",
"699 742 LINE",
"568 743 LINE",
"376 14 LINE"
);
},
{
closed = 1;
nodes = (
"781 -10 OFFCURVE",
"915 -8 OFFCURVE",
"956 -1 CURVE",
"921 76 LINE",
"750 749 LINE",
"694 753 OFFCURVE",
"617 750 OFFCURVE",
"568 743 CURVE",
"581 576 LINE",
"734 -6 LINE"
);
},
{
closed = 1;
nodes = (
"956 -1 LINE",
"1165 680 LINE",
"1104 645 LINE",
"1143 654 OFFCURVE",
"1182 666 OFFCURVE",
"1212 684 CURVE",
"1217 772 LINE",
"931 772 LINE",
"924 682 LINE",
"1035 653 LINE",
"1017 681 LINE",
"837 14 LINE"
);
}
);
width = 1225;
}
);
leftKerningGroup = v;
leftMetricsKey = "=v+2";
rightKerningGroup = v;
rightMetricsKey = "=v+2";
unicode = 0077;
},
{
color = 4;
glyphname = x;
layers = (
{
layerId = "8D9E6227-A940-4CC2-85D6-810E74B12C63";
paths = (
{
closed = 1;
nodes = (
"320 0 LINE",
"325 62 LINE",
"214 91 LINE",
"213 61 LINE",
"476 396 LINE",
"357 401 LINE",
"81 61 LINE",
"141 99 LINE",
"102 90 OFFCURVE",
"63 78 OFFCURVE",
"31 60 CURVE",
"26 0 LINE"
);
},
{
closed = 1;
nodes = (
"798 0 LINE",
"803 62 LINE",
"681 91 LINE",
"746 55 LINE",
"487 410 LINE",
"358 342 LINE",
"555 72 LINE",
"559 97 LINE",
"520 88 OFFCURVE",
"479 76 OFFCURVE",
"451 62 CURVE",
"446 0 LINE"
);
},
{
closed = 1;
nodes = (
"41 746 LINE",
"36 680 LINE",
"158 651 LINE",
"93 691 LINE",
"352 336 LINE",
"481 404 LINE",
"284 674 LINE",
"278 645 LINE",
"317 654 OFFCURVE",
"358 666 OFFCURVE",
"386 680 CURVE",
"391 746 LINE"
);
},
{
closed = 1;
nodes = (
"497 746 LINE",
"492 680 LINE",
"603 651 LINE",
"602 685 LINE",
"339 350 LINE",
"458 345 LINE",
"734 685 LINE",
"674 643 LINE",
"713 652 OFFCURVE",
"752 664 OFFCURVE",
"784 682 CURVE",
"789 746 LINE"
);
}
);
width = 823;
},
{
layerId = "106916A4-8C74-485A-AD82-F5ABB18EF495";
paths = (
{
closed = 1;
nodes = (
"322 0 LINE",
"329 86 LINE",
"211 114 LINE",
"224 85 LINE",
"503 409 LINE",
"344 414 LINE",
"52 85 LINE",
"131 123 LINE",
"92 114 OFFCURVE",
"53 102 OFFCURVE",
"23 84 CURVE",
"16 0 LINE"
);
},
{
closed = 1;
nodes = (
"836 0 LINE",
"843 86 LINE",
"714 114 LINE",
"802 79 LINE",
"545 423 LINE",
"332 355 LINE",
"527 96 LINE",
"541 121 LINE",
"502 112 OFFCURVE",
"464 100 OFFCURVE",
"435 86 CURVE",
"428 0 LINE"
);
},
{
closed = 1;
nodes = (
"33 772 LINE",
"26 682 LINE",
"155 654 LINE",
"67 693 LINE",
"324 349 LINE",
"537 417 LINE",
"342 676 LINE",
"326 647 LINE",
"365 656 OFFCURVE",
"403 668 OFFCURVE",
"432 682 CURVE",
"439 772 LINE"
);
},
{
closed = 1;
nodes = (
"525 772 LINE",
"518 682 LINE",
"636 654 LINE",
"621 687 LINE",
"342 363 LINE",
"501 358 LINE",
"793 687 LINE",
"714 645 LINE",
"753 654 OFFCURVE",
"792 666 OFFCURVE",
"822 684 CURVE",
"829 772 LINE"
);
}
);
width = 853;
}
);
leftKerningGroup = x;
rightKerningGroup = x;
unicode = 0078;
},
{
color = 4;
glyphname = y;
layers = (
{
anchors = (
{
name = bottom;
position = "{616, 0}";
},
{
name = top;
position = "{444, 746}";
}
);
layerId = "8D9E6227-A940-4CC2-85D6-810E74B12C63";
paths = (
{
closed = 1;
nodes = (
"754 677 LINE",
"709 643 LINE",
"748 652 OFFCURVE",
"787 664 OFFCURVE",
"815 682 CURVE",
"820 746 LINE",
"534 746 LINE",
"529 680 LINE",
"640 651 LINE",
"634 678 LINE",
"400 48 LINE",
"368 22 LINE",
"197 -308 LINE",
"242 -329 OFFCURVE",
"297 -345 OFFCURVE",
"350 -352 CURVE"
);
},
{
closed = 1;
nodes = (
"471 -1 LINE",
"471 63 LINE",
"259 670 LINE",
"247 645 LINE",
"286 654 OFFCURVE",
"327 666 OFFCURVE",
"355 680 CURVE",
"360 746 LINE",
"12 746 LINE",
"7 680 LINE",
"129 651 LINE",
"84 679 LINE",
"364 -52 LINE"
);
}
);
width = 832;
},
{
anchors = (
{
name = bottom;
position = "{660, 0}";
},
{
name = top;
position = "{452, 746}";
}
);
layerId = "106916A4-8C74-485A-AD82-F5ABB18EF495";
paths = (
{
closed = 1;
nodes = (
"798 679 LINE",
"735 645 LINE",
"774 654 OFFCURVE",
"813 666 OFFCURVE",
"839 684 CURVE",
"846 772 LINE",
"558 772 LINE",
"551 682 LINE",
"669 654 LINE",
"646 680 LINE",
"420 48 LINE",
"384 22 LINE",
"181 -296 LINE",
"237 -327 OFFCURVE",
"312 -349 OFFCURVE",
"392 -358 CURVE"
);
},
{
closed = 1;
nodes = (
"485 -1 LINE",
"509 62 LINE",
"305 672 LINE",
"283 647 LINE",
"322 656 OFFCURVE",
"360 668 OFFCURVE",
"389 682 CURVE",
"396 772 LINE",
"4 772 LINE",
"-3 682 LINE",
"126 654 LINE",
"56 681 LINE",
"349 -89 LINE"
);
}
);
width = 848;
}
);
leftKerningGroup = v;
leftMetricsKey = "=v-2";
rightKerningGroup = v;
rightMetricsKey = "=v-4";
unicode = 0079;
},
{
color = 4;
glyphname = z;
layers = (
{
anchors = (
{
name = bottom;
position = "{355, 0}";
},
{
name = top;
position = "{365, 746}";
}
);
layerId = "8D9E6227-A940-4CC2-85D6-810E74B12C63";
paths = (
{
closed = 1;
nodes = (
"175 0 LINE",
"655 674 LINE",
"661 746 LINE",
"522 746 LINE",
"42 72 LINE",
"36 0 LINE"
);
},
{
closed = 1;
nodes = (
"639 0 LINE",
"638 84 LINE",
"137 84 LINE",
"36 0 LINE"
);
},
{
closed = 1;
nodes = (
"560 662 LINE",
"661 746 LINE",
"83 746 LINE",
"79 662 LINE"
);
},
{
closed = 1;
nodes = (
"137 515 LINE",
"219 687 LINE",
"83 746 LINE",
"66 676 OFFCURVE",
"59 594 OFFCURVE",
"63 515 CURVE"
);
},
{
closed = 1;
nodes = (
"658 87 OFFCURVE",
"666 178 OFFCURVE",
"662 255 CURVE",
"594 255 LINE",
"507 73 LINE",
"639 0 LINE"
);
}
);
width = 714;
},
{
anchors = (
{
name = bottom;
position = "{375, 0}";
},
{
name = top;
position = "{385, 746}";
}
);
guideLines = (
{
position = "{854, 772}";
}
);
layerId = "106916A4-8C74-485A-AD82-F5ABB18EF495";
paths = (
{
closed = 1;
nodes = (
"227 0 LINE",
"711 676 LINE",
"719 772 LINE",
"510 772 LINE",
"26 96 LINE",
"18 0 LINE"
);
},
{
closed = 1;
nodes = (
"695 0 LINE",
"658 106 LINE",
"157 106 LINE",
"18 0 LINE"
);
},
{
closed = 1;
nodes = (
"580 666 LINE",
"719 772 LINE",
"67 772 LINE",
"98 666 LINE"
);
},
{
closed = 1;
nodes = (
"149 511 LINE",
"241 683 LINE",
"67 772 LINE",
"48 684 OFFCURVE",
"40 591 OFFCURVE",
"45 511 CURVE"
);
},
{
closed = 1;
nodes = (
"715 96 OFFCURVE",
"724 198 OFFCURVE",
"720 285 CURVE",
"622 285 LINE",
"525 103 LINE",
"695 0 LINE"
);
}
);
width = 754;
}
);
leftKerningGroup = z;
rightKerningGroup = z;
unicode = 007A;
},
{
color = 4;
glyphname = f_f;
layers = (
{
components = (
{
name = f;
},
{
alignment = -1;
name = f;
transform = "{1, 0, 0, 1, 536, 0}";
}
);
layerId = "8D9E6227-A940-4CC2-85D6-810E74B12C63";
paths = (
{
closed = 1;
nodes = (
"826 650 LINE",
"826 746 LINE",
"375 746 LINE",
"375 650 LINE"
);
}
);
width = 1082;
},
{
components = (
{
name = f;
},
{
alignment = -1;
name = f;
transform = "{1, 0, 0, 1, 564, 0}";
}
);
layerId = "106916A4-8C74-485A-AD82-F5ABB18EF495";
paths = (
{
closed = 1;
nodes = (
"826 646 LINE",
"826 772 LINE",
"375 772 LINE",
"375 646 LINE"
);
}
);
width = 1138;
}
);
leftKerningGroup = f;
leftMetricsKey = f;
rightKerningGroup = f;
rightMetricsKey = f;
},
{
color = 4;
glyphname = ordfeminine;
layers = (
{
anchors = (
{
name = bottom;
position = "{259, 507}";
},
{
name = ogonek;
position = "{499, 507}";
},
{
name = top;
position = "{253, 955}";
}
);
layerId = "8D9E6227-A940-4CC2-85D6-810E74B12C63";
paths = (
{
closed = 1;
nodes = (
"444 586 LINE",
"444 634 OFFCURVE",
"448 797 OFFCURVE",
"448 843 CURVE SMOOTH",
"448 933 OFFCURVE",
"393 977 OFFCURVE",
"281 977 CURVE SMOOTH",
"210 977 OFFCURVE",
"138 959 OFFCURVE",
"78 928 CURVE",
"72 897 OFFCURVE",
"69 858 OFFCURVE",
"71 820 CURVE",
"126 873 LINE",
"160 897 OFFCURVE",
"195 908 OFFCURVE",
"233 908 CURVE SMOOTH",
"291 908 OFFCURVE",
"319 880 OFFCURVE",
"319 823 CURVE SMOOTH",
"319 771 LINE",
"319 710 OFFCURVE",
"316 638 OFFCURVE",
"316 572 CURVE"
);
},
{
closed = 1;
nodes = (
"136 820 LINE",
"194 923 LINE",
"79 889 LINE",
"71 820 LINE"
);
},
{
closed = 1;
nodes = (
"254 498 OFFCURVE",
"315 529 OFFCURVE",
"371 593 CURVE",
"359 624 LINE",
"312 594 OFFCURVE",
"273 579 OFFCURVE",
"241 579 CURVE SMOOTH",
"196 579 OFFCURVE",
"172 606 OFFCURVE",
"172 654 CURVE SMOOTH",
"172 705 OFFCURVE",
"199 730 OFFCURVE",
"265 737 CURVE SMOOTH",
"359 747 LINE",
"350 808 LINE",
"236 786 LINE SMOOTH",
"103 760 OFFCURVE",
"39 708 OFFCURVE",
"39 625 CURVE SMOOTH",
"39 548 OFFCURVE",
"95 498 OFFCURVE",
"183 498 CURVE SMOOTH"
);
},
{
closed = 1;
nodes = (
"410 504 OFFCURVE",
"464 507 OFFCURVE",
"500 512 CURVE",
"504 559 LINE",
"424 580 LINE",
"444 544 LINE",
"444 618 LINE",
"322 589 LINE",
"350 504 LINE"
);
}
);
userData = {
RMXScaler = {
adjustSpace = 10;
height = 60;
verticalShift = 507;
weight = -30;
width = 66;
};
};
width = 542;
},
{
anchors = (
{
name = bottom;
position = "{267, 522}";
},
{
name = ogonek;
position = "{518, 522}";
},
{
name = top;
position = "{260, 970}";
}
);
layerId = "106916A4-8C74-485A-AD82-F5ABB18EF495";
paths = (
{
closed = 1;
nodes = (
"472 601 LINE",
"472 649 OFFCURVE",
"476 824 OFFCURVE",
"476 869 CURVE SMOOTH",
"476 960 OFFCURVE",
"416 1004 OFFCURVE",
"293 1004 CURVE SMOOTH",
"213 1004 OFFCURVE",
"133 985 OFFCURVE",
"70 951 CURVE",
"63 915 OFFCURVE",
"60 871 OFFCURVE",
"61 830 CURVE",
"134 887 LINE",
"168 911 OFFCURVE",
"201 922 OFFCURVE",
"235 922 CURVE SMOOTH",
"289 922 OFFCURVE",
"315 895 OFFCURVE",
"315 837 CURVE SMOOTH",
"315 786 LINE",
"315 725 OFFCURVE",
"312 653 OFFCURVE",
"312 587 CURVE"
);
},
{
closed = 1;
nodes = (
"140 830 LINE",
"201 933 LINE",
"68 900 LINE",
"61 830 LINE"
);
},
{
closed = 1;
nodes = (
"256 513 OFFCURVE",
"321 545 OFFCURVE",
"378 613 CURVE",
"366 653 LINE",
"320 622 OFFCURVE",
"283 608 OFFCURVE",
"255 608 CURVE SMOOTH",
"215 608 OFFCURVE",
"194 633 OFFCURVE",
"194 679 CURVE SMOOTH",
"194 727 OFFCURVE",
"218 749 OFFCURVE",
"275 755 CURVE SMOOTH",
"369 765 LINE",
"356 836 LINE",
"234 812 LINE SMOOTH",
"95 785 OFFCURVE",
"28 731 OFFCURVE",
"28 646 CURVE SMOOTH",
"28 565 OFFCURVE",
"88 513 OFFCURVE",
"181 513 CURVE SMOOTH"
);
},
{
closed = 1;
nodes = (
"422 518 OFFCURVE",
"481 521 OFFCURVE",
"519 527 CURVE",
"524 585 LINE",
"446 606 LINE",
"472 559 LINE",
"472 642 LINE",
"321 609 LINE",
"355 518 LINE"
);
}
);
userData = {
RMXScaler = {
adjustSpace = 10;
height = 60;
verticalShift = 522;
weight = -70;
width = 66;
};
};
width = 558;
}
);
unicode = 00AA;
userData = {
RMXScaler = {
source = a;
};
};
},
{
color = 4;
glyphname = ordmasculine;
layers = (
{
anchors = (
{
name = bottom;
position = "{286, 507}";
},
{
name = horn;
position = "{424, 955}";
},
{
name = ogonek;
position = "{381, 507}";
},
{
name = top;
position = "{286, 955}";
}
);
layerId = "8D9E6227-A940-4CC2-85D6-810E74B12C63";
paths = (
{
closed = 1;
nodes = (
"438 496 OFFCURVE",
"535 590 OFFCURVE",
"535 738 CURVE SMOOTH",
"535 884 OFFCURVE",
"439 978 OFFCURVE",
"288 978 CURVE SMOOTH",
"135 978 OFFCURVE",
"38 884 OFFCURVE",
"38 736 CURVE SMOOTH",
"38 589 OFFCURVE",
"134 496 OFFCURVE",
"286 496 CURVE SMOOTH"
);
},
{
closed = 1;
nodes = (
"223 567 OFFCURVE",
"181 633 OFFCURVE",
"181 753 CURVE SMOOTH",
"181 857 OFFCURVE",
"213 907 OFFCURVE",
"277 907 CURVE SMOOTH",
"350 907 OFFCURVE",
"392 840 OFFCURVE",
"392 721 CURVE SMOOTH",
"392 617 OFFCURVE",
"360 567 OFFCURVE",
"296 567 CURVE SMOOTH"
);
}
);
userData = {
RMXScaler = {
adjustSpace = 10;
height = 60;
verticalShift = 507;
weight = -30;
width = 64;
};
};
width = 573;
},
{
anchors = (
{
name = bottom;
position = "{296, 522}";
},
{
name = horn;
position = "{434, 970}";
},
{
name = ogonek;
position = "{390, 522}";
},
{
name = top;
position = "{296, 970}";
}
);
layerId = "106916A4-8C74-485A-AD82-F5ABB18EF495";
paths = (
{
closed = 1;
nodes = (
"459 511 OFFCURVE",
"563 607 OFFCURVE",
"563 758 CURVE SMOOTH",
"563 908 OFFCURVE",
"460 1004 OFFCURVE",
"297 1004 CURVE SMOOTH",
"133 1004 OFFCURVE",
"29 908 OFFCURVE",
"29 757 CURVE SMOOTH",
"29 606 OFFCURVE",
"132 511 OFFCURVE",
"295 511 CURVE SMOOTH"
);
},
{
closed = 1;
nodes = (
"243 595 OFFCURVE",
"208 660 OFFCURVE",
"208 774 CURVE SMOOTH",
"208 873 OFFCURVE",
"234 920 OFFCURVE",
"287 920 CURVE SMOOTH",
"349 920 OFFCURVE",
"384 856 OFFCURVE",
"384 741 CURVE SMOOTH",
"384 642 OFFCURVE",
"358 595 OFFCURVE",
"305 595 CURVE SMOOTH"
);
}
);
userData = {
RMXScaler = {
adjustSpace = 10;
height = 60;
verticalShift = 522;
weight = -70;
width = 64;
};
};
width = 592;
}
);
unicode = 00BA;
userData = {
RMXScaler = {
source = o;
};
};
},
{
color = 4;
glyphname = pi;
layers = (
{
layerId = "8D9E6227-A940-4CC2-85D6-810E74B12C63";
paths = (
{
closed = 1;
nodes = (
"135 596 OFFCURVE",
"249 617 OFFCURVE",
"376 618 CURVE",
"620 618 LINE",
"714 618 OFFCURVE",
"830 613 OFFCURVE",
"946 604 CURVE",
"958 751 LINE",
"850 748 OFFCURVE",
"733 746 OFFCURVE",
"630 746 CURVE",
"386 746 LINE",
"236 746 OFFCURVE",
"84 703 OFFCURVE",
"-5 633 CURVE",
"24 553 LINE"
);
},
{
closed = 1;
nodes = (
"223 -8 OFFCURVE",
"280 -4 OFFCURVE",
"327 3 CURVE",
"349 191 OFFCURVE",
"369 442 OFFCURVE",
"378 648 CURVE",
"257 637 LINE",
"240 405 OFFCURVE",
"208 175 OFFCURVE",
"167 -8 CURVE"
);
},
{
closed = 1;
nodes = (
"781 -3 OFFCURVE",
"817 4 OFFCURVE",
"856 18 CURVE",
"861 82 LINE",
"773 98 OFFCURVE",
"741 122 OFFCURVE",
"741 176 CURVE SMOOTH",
"741 249 LINE SMOOTH",
"741 417 OFFCURVE",
"743 551 OFFCURVE",
"746 651 CURVE",
"623 651 LINE",
"609 484 OFFCURVE",
"601 308 OFFCURVE",
"601 149 CURVE SMOOTH",
"601 51 OFFCURVE",
"653 -3 OFFCURVE",
"746 -3 CURVE SMOOTH"
);
}
);
width = 992;
},
{
layerId = "106916A4-8C74-485A-AD82-F5ABB18EF495";
paths = (
{
closed = 1;
nodes = (
"126 572 OFFCURVE",
"237 593 OFFCURVE",
"364 594 CURVE",
"648 594 LINE",
"735 594 OFFCURVE",
"847 589 OFFCURVE",
"963 580 CURVE",
"979 777 LINE",
"855 774 OFFCURVE",
"742 772 OFFCURVE",
"662 772 CURVE",
"378 772 LINE",
"237 772 OFFCURVE",
"84 718 OFFCURVE",
"-15 630 CURVE",
"21 529 LINE"
);
},
{
closed = 1;
nodes = (
"203 -8 OFFCURVE",
"328 -4 OFFCURVE",
"375 3 CURVE",
"397 191 OFFCURVE",
"413 421 OFFCURVE",
"421 648 CURVE",
"242 637 LINE",
"230 440 OFFCURVE",
"196 210 OFFCURVE",
"147 -8 CURVE"
);
},
{
closed = 1;
nodes = (
"797 -3 OFFCURVE",
"837 4 OFFCURVE",
"876 18 CURVE",
"883 108 LINE",
"808 122 OFFCURVE",
"781 142 OFFCURVE",
"781 186 CURVE SMOOTH",
"781 249 LINE SMOOTH",
"781 420 OFFCURVE",
"783 556 OFFCURVE",
"786 657 CURVE",
"603 657 LINE",
"584 462 OFFCURVE",
"573 287 OFFCURVE",
"573 158 CURVE SMOOTH",
"573 55 OFFCURVE",
"638 -3 OFFCURVE",
"756 -3 CURVE SMOOTH"
);
}
);
width = 1000;
}
);
leftMetricsKey = "=t-20";
rightMetricsKey = t;
unicode = 03C0;
},
{
color = 6;
glyphname = "hamza-ar";
layers = (
{
anchors = (
{
name = bottom;
position = "{353, 116}";
},
{
name = top;
position = "{291, 580}";
}
);
layerId = "8D9E6227-A940-4CC2-85D6-810E74B12C63";
paths = (
{
closed = 1;
nodes = (
"112 -38 LINE",
"219 24 OFFCURVE",
"363 92 OFFCURVE",
"579 166 CURVE",
"588 301 LINE",
"504 270 OFFCURVE",
"447 250 OFFCURVE",
"413 239 CURVE SMOOTH",
"346 216 OFFCURVE",
"210 287 OFFCURVE",
"210 352 CURVE SMOOTH",
"210 392 OFFCURVE",
"269 433 OFFCURVE",
"346 433 CURVE SMOOTH",
"390 433 OFFCURVE",
"440 425 OFFCURVE",
"488 414 CURVE",
"518 519 LINE",
"463 550 OFFCURVE",
"405 565 OFFCURVE",
"352 565 CURVE SMOOTH",
"221 565 OFFCURVE",
"113 482 OFFCURVE",
"113 337 CURVE SMOOTH",
"113 253 OFFCURVE",
"161 162 OFFCURVE",
"278 101 CURVE",
"260 164 LINE",
"192 130 OFFCURVE",
"135 94 OFFCURVE",
"100 68 CURVE",
"105 -38 LINE"
);
}
);
width = 648;
},
{
anchors = (
{
name = bottom;
position = "{372, 44}";
},
{
name = top;
position = "{372, 580}";
}
);
layerId = "106916A4-8C74-485A-AD82-F5ABB18EF495";
paths = (
{
closed = 1;
nodes = (
"115 -92 LINE",
"238 -22 OFFCURVE",
"406 48 OFFCURVE",
"614 116 CURVE",
"628 321 LINE",
"546 290 OFFCURVE",
"484 268 OFFCURVE",
"437 253 CURVE SMOOTH",
"342 222 OFFCURVE",
"232 279 OFFCURVE",
"232 321 CURVE SMOOTH",
"232 361 OFFCURVE",
"279 399 OFFCURVE",
"379 399 CURVE SMOOTH",
"419 399 OFFCURVE",
"472 394 OFFCURVE",
"523 386 CURVE",
"565 531 LINE",
"495 573 OFFCURVE",
"441 591 OFFCURVE",
"379 591 CURVE SMOOTH",
"219 591 OFFCURVE",
"110 478 OFFCURVE",
"110 313 CURVE SMOOTH",
"110 189 OFFCURVE",
"190 76 OFFCURVE",
"332 27 CURVE",
"269 179 LINE",
"210 150 OFFCURVE",
"150 113 OFFCURVE",
"96 72 CURVE",
"104 -92 LINE"
);
}
);
width = 698;
}
);
unicode = 0621;
},
{
color = 1;
glyphname = "alef-ar";
layers = (
{
anchors = (
{
name = bottom;
position = "{289, -43}";
},
{
name = top;
position = "{96, 1041}";
}
);
layerId = "8D9E6227-A940-4CC2-85D6-810E74B12C63";
paths = (
{
closed = 1;
nodes = (
"287 0 LINE",
"260 357 OFFCURVE",
"229 676 OFFCURVE",
"189 1048 CURVE",
"60 1038 LINE",
"108 691 OFFCURVE",
"153 324 OFFCURVE",
"182 0 CURVE"
);
}
);
width = 407;
},
{
anchors = (
{
name = bottom;
position = "{232, 0}";
},
{
name = top;
position = "{123, 1078}";
}
);
layerId = "106916A4-8C74-485A-AD82-F5ABB18EF495";
paths = (
{
closed = 1;
nodes = (
"342 0 LINE",
"318 332 OFFCURVE",
"287 693 OFFCURVE",
"245 1088 CURVE",
"70 1078 LINE",
"123 688 OFFCURVE",
"163 329 OFFCURVE",
"192 0 CURVE"
);
}
);
width = 470;
}
);
unicode = 0627;
},
{
color = 1;
glyphname = "alef-ar.fina";
layers = (
{
anchors = (
{
name = bottom;
position = "{362, -43}";
},
{
name = top;
position = "{91, 1041}";
}
);
components = (
{
name = connection_r;
transform = "{1, 0, 0, 1, 358, 0}";
}
);
layerId = "8D9E6227-A940-4CC2-85D6-810E74B12C63";
paths = (
{
closed = 1;
nodes = (
"407 155 LINE",
"352 155 OFFCURVE",
"322 163 OFFCURVE",
"303 182 CURVE SMOOTH",
"276 208 OFFCURVE",
"266 251 OFFCURVE",
"252 401 CURVE SMOOTH",
"220 737 OFFCURVE",
"203 910 OFFCURVE",
"189 1048 CURVE",
"60 1038 LINE",
"89 832 OFFCURVE",
"107 692 OFFCURVE",
"142 401 CURVE SMOOTH",
"174 152 OFFCURVE",
"189 95 OFFCURVE",
"238 49 CURVE SMOOTH",
"274 15 OFFCURVE",
"326 0 OFFCURVE",
"407 0 CURVE"
);
}
);
width = 407;
},
{
anchors = (
{
name = bottom;
position = "{332, 0}";
},
{
name = top;
position = "{150, 1078}";
}
);
components = (
{
name = connection_r;
transform = "{1, 0, 0, 1, 354, 0}";
}
);
layerId = "106916A4-8C74-485A-AD82-F5ABB18EF495";
paths = (
{
closed = 1;
nodes = (
"454 235 LINE",
"404 235 OFFCURVE",
"371 241 OFFCURVE",
"349 260 CURVE SMOOTH",
"316 287 OFFCURVE",
"307 341 OFFCURVE",
"300 442 CURVE SMOOTH",
"290 576 OFFCURVE",
"265 868 OFFCURVE",
"242 1088 CURVE",
"70 1078 LINE",
"108 790 OFFCURVE",
"130 613 OFFCURVE",
"153 401 CURVE SMOOTH",
"169 249 OFFCURVE",
"177 171 OFFCURVE",
"214 112 CURVE SMOOTH",
"263 39 OFFCURVE",
"326 0 OFFCURVE",
"454 0 CURVE"
);
}
);
width = 454;
}
);
unicode = FE8E;
},
{
color = 1;
glyphname = "dotlessbeh-ar";
layers = (
{
anchors = (
{
name = bottom;
position = "{736, -35}";
},
{
name = top;
position = "{694, 402}";
}
);
layerId = "8D9E6227-A940-4CC2-85D6-810E74B12C63";
paths = (
{
closed = 1;
nodes = (
"858 -24 OFFCURVE",
"1086 -10 OFFCURVE",
"1212 11 CURVE SMOOTH",
"1296 25 OFFCURVE",
"1306 30 OFFCURVE",
"1327 72 CURVE SMOOTH",
"1346 110 OFFCURVE",
"1356 173 OFFCURVE",
"1356 217 CURVE SMOOTH",
"1356 318 OFFCURVE",
"1317 447 OFFCURVE",
"1267 563 CURVE",
"1147 553 LINE",
"1194 431 OFFCURVE",
"1242 299 OFFCURVE",
"1254 216 CURVE SMOOTH",
"1259 176 OFFCURVE",
"1252 171 OFFCURVE",
"1218 164 CURVE SMOOTH",
"1121 147 OFFCURVE",
"856 133 OFFCURVE",
"664 135 CURVE SMOOTH",
"364 138 OFFCURVE",
"201 199 OFFCURVE",
"201 427 CURVE SMOOTH",
"201 464 OFFCURVE",
"205 505 OFFCURVE",
"214 552 CURVE",
"126 567 LINE",
"109 488 OFFCURVE",
"100 419 OFFCURVE",
"100 359 CURVE SMOOTH",
"100 70 OFFCURVE",
"295 -24 OFFCURVE",
"701 -24 CURVE SMOOTH"
);
}
);
width = 1438;
},
{
anchors = (
{
name = bottom;
position = "{807, 0}";
},
{
name = top;
position = "{735, 436}";
}
);
layerId = "106916A4-8C74-485A-AD82-F5ABB18EF495";
paths = (
{
closed = 1;
nodes = (
"931 -23 OFFCURVE",
"1171 -2 OFFCURVE",
"1298 20 CURVE SMOOTH",
"1374 33 OFFCURVE",
"1396 44 OFFCURVE",
"1420 92 CURVE SMOOTH",
"1442 136 OFFCURVE",
"1455 198 OFFCURVE",
"1455 247 CURVE SMOOTH",
"1455 358 OFFCURVE",
"1414 492 OFFCURVE",
"1362 613 CURVE",
"1193 600 LINE",
"1237 490 OFFCURVE",
"1282 371 OFFCURVE",
"1293 296 CURVE SMOOTH",
"1298 252 OFFCURVE",
"1291 244 OFFCURVE",
"1257 239 CURVE SMOOTH",
"1170 226 OFFCURVE",
"843 215 OFFCURVE",
"681 215 CURVE SMOOTH",
"395 215 OFFCURVE",
"259 256 OFFCURVE",
"259 467 CURVE SMOOTH",
"259 503 OFFCURVE",
"263 545 OFFCURVE",
"271 592 CURVE",
"138 607 LINE",
"119 519 OFFCURVE",
"110 443 OFFCURVE",
"110 377 CURVE SMOOTH",
"110 70 OFFCURVE",
"314 -23 OFFCURVE",
"742 -23 CURVE SMOOTH"
);
}
);
width = 1547;
}
);
unicode = 066E;
},
{
color = 1;
glyphname = "dotlessbeh-ar.fina";
layers = (
{
anchors = (
{
name = bottom;
position = "{736, -25}";
},
{
name = top;
position = "{694, 402}";
}
);
components = (
{
name = connection_r;
transform = "{1, 0, 0, 1, 1428, 0}";
}
);
layerId = "8D9E6227-A940-4CC2-85D6-810E74B12C63";
paths = (
{
closed = 1;
nodes = (
"840 -24 OFFCURVE",
"1156 -10 OFFCURVE",
"1292 29 CURVE",
"1192 29 LINE",
"1274 4 OFFCURVE",
"1337 0 OFFCURVE",
"1477 0 CURVE",
"1477 155 LINE",
"1262 155 LINE",
"1331 104 LINE",
"1336 126 OFFCURVE",
"1339 151 OFFCURVE",
"1339 177 CURVE SMOOTH",
"1339 226 OFFCURVE",
"1329 281 OFFCURVE",
"1318 341 CURVE SMOOTH",
"1308 395 OFFCURVE",
"1294 454 OFFCURVE",
"1280 516 CURVE",
"1167 507 LINE",
"1223 207 LINE SMOOTH",
"1229 174 OFFCURVE",
"1224 166 OFFCURVE",
"1192 161 CURVE SMOOTH",
"1095 146 OFFCURVE",
"822 135 OFFCURVE",
"699 136 CURVE SMOOTH",
"373 139 OFFCURVE",
"200 188 OFFCURVE",
"200 423 CURVE SMOOTH",
"200 461 OFFCURVE",
"205 504 OFFCURVE",
"214 552 CURVE",
"126 567 LINE",
"109 489 OFFCURVE",
"101 421 OFFCURVE",
"101 360 CURVE SMOOTH",
"101 75 OFFCURVE",
"291 -24 OFFCURVE",
"684 -24 CURVE SMOOTH"
);
}
);
width = 1477;
},
{
anchors = (
{
name = bottom;
position = "{747, 0}";
},
{
name = top;
position = "{725, 436}";
}
);
components = (
{
name = connection_r;
transform = "{1, 0, 0, 1, 1400, 0}";
}
);
layerId = "106916A4-8C74-485A-AD82-F5ABB18EF495";
paths = (
{
closed = 1;
nodes = (
"868 -24 OFFCURVE",
"1197 -6 OFFCURVE",
"1308 27 CURVE",
"1208 31 LINE",
"1288 5 OFFCURVE",
"1349 0 OFFCURVE",
"1500 0 CURVE",
"1500 235 LINE",
"1279 235 LINE",
"1383 147 LINE",
"1386 163 OFFCURVE",
"1387 182 OFFCURVE",
"1387 203 CURVE SMOOTH",
"1387 247 OFFCURVE",
"1381 301 OFFCURVE",
"1371 361 CURVE SMOOTH",
"1359 433 OFFCURVE",
"1343 514 OFFCURVE",
"1324 596 CURVE",
"1172 587 LINE",
"1225 307 LINE SMOOTH",
"1236 251 OFFCURVE",
"1227 245 OFFCURVE",
"1193 240 CURVE SMOOTH",
"1102 226 OFFCURVE",
"840 215 OFFCURVE",
"722 215 CURVE SMOOTH",
"400 215 OFFCURVE",
"260 238 OFFCURVE",
"260 467 CURVE SMOOTH",
"260 504 OFFCURVE",
"263 545 OFFCURVE",
"270 592 CURVE",
"138 607 LINE",
"119 522 OFFCURVE",
"110 447 OFFCURVE",
"110 381 CURVE SMOOTH",
"110 84 OFFCURVE",
"303 -24 OFFCURVE",
"707 -24 CURVE SMOOTH"
);
}
);
width = 1500;
}
);
},
{
color = 1;
glyphname = "dotlessbeh-ar.medi";
layers = (
{
anchors = (
{
name = bottom;
position = "{186, -15}";
},
{
name = top;
position = "{221, 507}";
}
);
components = (
{
name = connection_r;
transform = "{1, 0, 0, 1, 457, 0}";
},
{
name = connection_l;
}
);
layerId = "8D9E6227-A940-4CC2-85D6-810E74B12C63";
paths = (
{
closed = 1;
nodes = (
"96 0 LINE SMOOTH",
"226 0 OFFCURVE",
"328 10 OFFCURVE",
"381 32 CURVE",
"307 36 LINE",
"352 15 OFFCURVE",
"410 0 OFFCURVE",
"477 0 CURVE SMOOTH",
"506 0 LINE",
"506 155 LINE",
"364 155 LINE",
"401 122 LINE",
"396 236 OFFCURVE",
"371 360 OFFCURVE",
"334 516 CURVE",
"221 507 LINE",
"276 212 LINE SMOOTH",
"285 164 OFFCURVE",
"278 155 OFFCURVE",
"242 155 CURVE SMOOTH",
"0 155 LINE",
"0 0 LINE"
);
}
);
width = 506;
},
{
anchors = (
{
name = bottom;
position = "{230, -10}";
},
{
name = top;
position = "{260, 580}";
}
);
components = (
{
name = connection_r;
transform = "{1, 0, 0, 1, 476, 0}";
},
{
name = connection_l;
}
);
layerId = "106916A4-8C74-485A-AD82-F5ABB18EF495";
paths = (
{
closed = 1;
nodes = (
"101 0 LINE SMOOTH",
"294 0 OFFCURVE",
"406 8 OFFCURVE",
"475 44 CURVE",
"361 44 LINE",
"397 21 OFFCURVE",
"474 0 OFFCURVE",
"553 0 CURVE SMOOTH",
"576 0 LINE",
"576 235 LINE",
"434 235 LINE",
"490 161 LINE",
"490 299 OFFCURVE",
"446 465 OFFCURVE",
"409 595 CURVE",
"258 586 LINE",
"311 314 LINE SMOOTH",
"324 246 OFFCURVE",
"322 235 OFFCURVE",
"276 235 CURVE SMOOTH",
"0 235 LINE",
"0 0 LINE"
);
}
);
width = 576;
}
);
},
{
color = 1;
glyphname = "dotlessbeh-ar.init";
layers = (
{
anchors = (
{
name = bottom;
position = "{168, -15}";
},
{
name = top;
position = "{198, 540}";
}
);
components = (
{
name = connection_l;
}
);
layerId = "8D9E6227-A940-4CC2-85D6-810E74B12C63";
paths = (
{
closed = 1;
nodes = (
"300 0 LINE SMOOTH",
"343 0 OFFCURVE",
"361 11 OFFCURVE",
"382 58 CURVE SMOOTH",
"398 94 OFFCURVE",
"407 142 OFFCURVE",
"407 196 CURVE SMOOTH",
"407 292 OFFCURVE",
"378 412 OFFCURVE",
"318 551 CURVE",
"198 540 LINE",
"253 401 OFFCURVE",
"291 274 OFFCURVE",
"305 212 CURVE SMOOTH",
"315 158 OFFCURVE",
"306 155 OFFCURVE",
"272 155 CURVE SMOOTH",
"0 155 LINE",
"0 0 LINE"
);
}
);
width = 489;
},
{
anchors = (
{
name = bottom;
position = "{231, 0}";
},
{
name = top;
position = "{260, 600}";
}
);
components = (
{
name = connection_l;
}
);
guideLines = (
{
position = "{499, 580}";
}
);
layerId = "106916A4-8C74-485A-AD82-F5ABB18EF495";
paths = (
{
closed = 1;
nodes = (
"377 0 LINE SMOOTH",
"432 0 OFFCURVE",
"455 13 OFFCURVE",
"483 73 CURVE SMOOTH",
"503 116 OFFCURVE",
"517 172 OFFCURVE",
"517 231 CURVE SMOOTH",
"517 348 OFFCURVE",
"484 475 OFFCURVE",
"420 631 CURVE",
"250 620 LINE",
"302 484 OFFCURVE",
"337 370 OFFCURVE",
"350 312 CURVE SMOOTH",
"367 240 OFFCURVE",
"360 235 OFFCURVE",
"304 235 CURVE SMOOTH",
"0 235 LINE",
"0 0 LINE"
);
}
);
width = 609;
}
);
},
{
color = 1;
glyphname = "hah-ar";
layers = (
{
anchors = (
{
name = bottom;
position = "{704, -714}";
},
{
name = top;
position = "{423, 681}";
}
);
layerId = "8D9E6227-A940-4CC2-85D6-810E74B12C63";
paths = (
{
closed = 1;
nodes = (
"475 -527 OFFCURVE",
"258 -396 OFFCURVE",
"258 -192 CURVE SMOOTH",
"258 104 OFFCURVE",
"691 289 OFFCURVE",
"1053 320 CURVE",
"1073 467 LINE",
"1025 467 OFFCURVE",
"980 473 OFFCURVE",
"934 484 CURVE SMOOTH",
"871 499 OFFCURVE",
"805 522 OFFCURVE",
"727 549 CURVE SMOOTH",
"610 589 OFFCURVE",
"493 631 OFFCURVE",
"393 631 CURVE SMOOTH",
"228 631 OFFCURVE",
"100 514 OFFCURVE",
"80 368 CURVE",
"151 325 LINE",
"199 428 OFFCURVE",
"269 475 OFFCURVE",
"395 475 CURVE SMOOTH",
"493 475 OFFCURVE",
"645 418 OFFCURVE",
"798 373 CURVE",
"797 405 LINE",
"440 314 OFFCURVE",
"157 112 OFFCURVE",
"157 -215 CURVE SMOOTH",
"157 -508 OFFCURVE",
"393 -684 OFFCURVE",
"785 -684 CURVE SMOOTH",
"878 -684 OFFCURVE",
"980 -674 OFFCURVE",
"1089 -654 CURVE",
"1120 -493 LINE",
"1013 -516 OFFCURVE",
"910 -527 OFFCURVE",
"813 -527 CURVE SMOOTH"
);
}
);
width = 1180;
},
{
anchors = (
{
name = bottom;
position = "{779, -749}";
},
{
name = top;
position = "{546, 745}";
}
);
layerId = "106916A4-8C74-485A-AD82-F5ABB18EF495";
paths = (
{
closed = 1;
nodes = (
"558 -487 OFFCURVE",
"307 -379 OFFCURVE",
"307 -174 CURVE SMOOTH",
"307 97 OFFCURVE",
"751 277 OFFCURVE",
"1093 319 CURVE",
"1113 517 LINE",
"1055 520 OFFCURVE",
"989 524 OFFCURVE",
"948 531 CURVE SMOOTH",
"892 540 OFFCURVE",
"812 569 OFFCURVE",
"728 598 CURVE SMOOTH",
"656 623 OFFCURVE",
"516 670 OFFCURVE",
"406 670 CURVE SMOOTH",
"186 670 OFFCURVE",
"110 493 OFFCURVE",
"90 378 CURVE",
"198 315 LINE",
"235 422 OFFCURVE",
"298 445 OFFCURVE",
"380 445 CURVE SMOOTH",
"485 445 OFFCURVE",
"587 414 OFFCURVE",
"759 367 CURVE",
"740 421 LINE",
"411 309 OFFCURVE",
"167 92 OFFCURVE",
"167 -229 CURVE SMOOTH",
"167 -562 OFFCURVE",
"437 -719 OFFCURVE",
"799 -719 CURVE SMOOTH",
"891 -719 OFFCURVE",
"988 -709 OFFCURVE",
"1088 -689 CURVE",
"1143 -459 LINE",
"1049 -478 OFFCURVE",
"954 -487 OFFCURVE",
"864 -487 CURVE SMOOTH"
);
}
);
width = 1213;
}
);
unicode = 062D;
},
{
color = 1;
glyphname = "hah-ar.fina";
layers = (
{
anchors = (
{
name = bottom;
position = "{704, -714}";
},
{
name = top;
position = "{422, 681}";
}
);
components = (
{
name = connection_r;
transform = "{1, 0, 0, 1, 1148, 0}";
}
);
layerId = "8D9E6227-A940-4CC2-85D6-810E74B12C63";
paths = (
{
closed = 1;
nodes = (
"463 -527 OFFCURVE",
"238 -396 OFFCURVE",
"238 -192 CURVE SMOOTH",
"238 104 OFFCURVE",
"682 289 OFFCURVE",
"1053 320 CURVE",
"1073 467 LINE",
"1025 467 OFFCURVE",
"980 473 OFFCURVE",
"934 484 CURVE SMOOTH",
"871 499 OFFCURVE",
"805 522 OFFCURVE",
"727 549 CURVE SMOOTH",
"610 589 OFFCURVE",
"493 631 OFFCURVE",
"393 631 CURVE SMOOTH",
"228 631 OFFCURVE",
"100 514 OFFCURVE",
"80 368 CURVE",
"151 325 LINE",
"199 428 OFFCURVE",
"269 475 OFFCURVE",
"395 475 CURVE SMOOTH",
"493 475 OFFCURVE",
"645 418 OFFCURVE",
"798 373 CURVE",
"797 405 LINE",
"429 314 OFFCURVE",
"137 112 OFFCURVE",
"137 -215 CURVE SMOOTH",
"137 -508 OFFCURVE",
"381 -684 OFFCURVE",
"785 -684 CURVE SMOOTH",
"872 -684 OFFCURVE",
"967 -674 OFFCURVE",
"1069 -654 CURVE",
"1100 -493 LINE",
"1000 -516 OFFCURVE",
"904 -527 OFFCURVE",
"813 -527 CURVE SMOOTH"
);
},
{
closed = 1;
nodes = (
"1197 0 LINE",
"1197 155 LINE",
"1054 155 LINE SMOOTH",
"940 155 OFFCURVE",
"903 178 OFFCURVE",
"887 242 CURVE",
"825 186 LINE",
"855 10 OFFCURVE",
"945 0 OFFCURVE",
"1146 0 CURVE SMOOTH"
);
}
);
width = 1197;
},
{
anchors = (
{
name = bottom;
position = "{779, -749}";
},
{
name = top;
position = "{546, 745}";
}
);
components = (
{
name = connection_r;
transform = "{1, 0, 0, 1, 1107, 0}";
}
);
layerId = "106916A4-8C74-485A-AD82-F5ABB18EF495";
paths = (
{
closed = 1;
nodes = (
"558 -487 OFFCURVE",
"307 -379 OFFCURVE",
"307 -174 CURVE SMOOTH",
"307 97 OFFCURVE",
"751 277 OFFCURVE",
"1093 319 CURVE",
"1113 517 LINE",
"1055 520 OFFCURVE",
"989 524 OFFCURVE",
"948 531 CURVE SMOOTH",
"892 540 OFFCURVE",
"812 569 OFFCURVE",
"728 598 CURVE SMOOTH",
"656 623 OFFCURVE",
"516 670 OFFCURVE",
"406 670 CURVE SMOOTH",
"186 670 OFFCURVE",
"110 493 OFFCURVE",
"90 378 CURVE",
"198 315 LINE",
"235 422 OFFCURVE",
"298 445 OFFCURVE",
"380 445 CURVE SMOOTH",
"485 445 OFFCURVE",
"587 414 OFFCURVE",
"759 367 CURVE",
"740 421 LINE",
"411 309 OFFCURVE",
"167 92 OFFCURVE",
"167 -229 CURVE SMOOTH",
"167 -562 OFFCURVE",
"437 -719 OFFCURVE",
"799 -719 CURVE SMOOTH",
"891 -719 OFFCURVE",
"988 -709 OFFCURVE",
"1088 -689 CURVE",
"1143 -459 LINE",
"1049 -478 OFFCURVE",
"954 -487 OFFCURVE",
"864 -487 CURVE SMOOTH"
);
},
{
closed = 1;
nodes = (
"1207 0 LINE",
"1207 235 LINE",
"1135 235 LINE SMOOTH",
"1045 235 OFFCURVE",
"974 235 OFFCURVE",
"932 258 CURVE",
"854 186 LINE",
"885 34 OFFCURVE",
"1013 0 OFFCURVE",
"1172 0 CURVE SMOOTH"
);
}
);
width = 1207;
}
);
unicode = FEA2;
},
{
color = 1;
glyphname = "hah-ar.medi";
layers = (
{
anchors = (
{
name = bottom;
position = "{637, 0}";
},
{
name = top;
position = "{478, 673}";
}
);
components = (
{
name = connection_r;
transform = "{1, 0, 0, 1, 1271, 0}";
},
{
name = connection_l;
}
);
layerId = "8D9E6227-A940-4CC2-85D6-810E74B12C63";
paths = (
{
closed = 1;
nodes = (
"43 0 LINE SMOOTH",
"352 0 OFFCURVE",
"566 95 OFFCURVE",
"753 179 CURVE SMOOTH",
"898 244 OFFCURVE",
"1027 302 OFFCURVE",
"1171 302 CURVE",
"1191 435 LINE",
"1055 435 OFFCURVE",
"993 458 OFFCURVE",
"826 523 CURVE SMOOTH",
"630 599 OFFCURVE",
"536 623 OFFCURVE",
"448 623 CURVE SMOOTH",
"305 623 OFFCURVE",
"186 529 OFFCURVE",
"131 373 CURVE",
"198 326 LINE",
"257 433 OFFCURVE",
"326 477 OFFCURVE",
"422 477 CURVE SMOOTH",
"506 477 OFFCURVE",
"580 454 OFFCURVE",
"753 393 CURVE SMOOTH",
"776 385 OFFCURVE",
"897 342 OFFCURVE",
"903 340 CURVE",
"911 375 LINE",
"632 247 OFFCURVE",
"355 155 OFFCURVE",
"73 155 CURVE SMOOTH",
"0 155 LINE",
"0 0 LINE"
);
},
{
closed = 1;
nodes = (
"1320 0 LINE",
"1320 155 LINE",
"1177 155 LINE SMOOTH",
"1063 155 OFFCURVE",
"1026 178 OFFCURVE",
"1010 242 CURVE",
"948 186 LINE",
"978 10 OFFCURVE",
"1068 0 OFFCURVE",
"1269 0 CURVE SMOOTH"
);
}
);
width = 1320;
},
{
anchors = (
{
name = bottom;
position = "{603, 30}";
},
{
name = top;
position = "{507, 787}";
}
);
components = (
{
name = connection_r;
transform = "{1, 0, 0, 1, 1200, 0}";
},
{
name = connection_l;
}
);
layerId = "106916A4-8C74-485A-AD82-F5ABB18EF495";
paths = (
{
closed = 1;
nodes = (
"23 0 LINE SMOOTH",
"360 0 OFFCURVE",
"586 111 OFFCURVE",
"772 212 CURVE SMOOTH",
"903 283 OFFCURVE",
"1022 345 OFFCURVE",
"1161 345 CURVE",
"1191 558 LINE",
"1014 558 OFFCURVE",
"898 583 OFFCURVE",
"724 639 CURVE SMOOTH",
"634 668 OFFCURVE",
"531 696 OFFCURVE",
"442 696 CURVE SMOOTH",
"256 696 OFFCURVE",
"155 573 OFFCURVE",
"101 413 CURVE",
"208 350 LINE",
"264 444 OFFCURVE",
"319 479 OFFCURVE",
"428 479 CURVE SMOOTH",
"489 479 OFFCURVE",
"565 470 OFFCURVE",
"656 451 CURVE SMOOTH",
"729 435 OFFCURVE",
"810 413 OFFCURVE",
"900 385 CURVE",
"865 441 LINE",
"631 320 OFFCURVE",
"316 235 OFFCURVE",
"53 235 CURVE SMOOTH",
"0 235 LINE",
"0 0 LINE"
);
},
{
closed = 1;
nodes = (
"1300 0 LINE",
"1300 235 LINE",
"1228 235 LINE SMOOTH",
"1137 235 OFFCURVE",
"1065 235 OFFCURVE",
"1022 288 CURVE",
"944 216 LINE",
"975 40 OFFCURVE",
"1104 0 OFFCURVE",
"1265 0 CURVE SMOOTH"
);
}
);
width = 1300;
}
);
unicode = FEA4;
},
